<?xml version="1.0" standalone="no"?>
<!DOCTYPE svg PUBLIC "-//W3C//DTD SVG 20010904//EN"
 "http://www.w3.org/TR/2001/REC-SVG-20010904/DTD/svg10.dtd">
<svg version="1.0" xmlns="http://www.w3.org/2000/svg"
 width="189.000000pt" height="267.000000pt" viewBox="0 0 189.000000 267.000000"
 preserveAspectRatio="xMidYMid meet">

<g transform="translate(0.000000,267.000000) scale(0.100000,-0.100000)"
fill="#000000" stroke="none">
<path d="M605 2047 c-6 -24 15 -98 46 -159 11 -21 19 -41 19 -45 0 -5 -43 -4
-95 0 -98 10 -125 3 -125 -29 0 -23 36 -34 152 -50 62 -8 113 -15 114 -17 5
-5 142 -314 148 -334 6 -18 3 -23 -11 -23 -25 0 -256 36 -319 50 l-51 11 -48
104 c-54 119 -64 131 -94 115 -28 -15 -26 -36 9 -115 44 -98 44 -99 -42 -89
-135 15 -157 9 -158 -42 0 -34 22 -44 121 -55 52 -5 97 -11 102 -12 4 -1 -18
-38 -48 -81 -55 -80 -70 -126 -39 -126 30 0 54 21 119 105 l67 85 46 0 c26 0
110 -7 187 -15 77 -8 144 -15 149 -15 19 0 -146 -221 -205 -275 -44 -39 -57
-41 -174 -24 -86 13 -125 3 -125 -30 0 -27 7 -30 105 -43 52 -6 89 -16 92 -24
2 -7 -18 -45 -46 -85 -52 -74 -62 -108 -37 -129 30 -24 60 -6 120 72 32 43 62
75 67 73 4 -3 22 -37 40 -75 36 -78 60 -106 85 -96 25 9 14 66 -34 173 l-39
90 111 156 c61 86 115 155 120 154 9 -3 146 -331 146 -350 0 -6 -23 -42 -51
-80 -62 -85 -93 -143 -84 -157 3 -5 17 -10 31 -10 22 0 53 32 128 135 13 18
17 13 62 -80 52 -105 70 -121 105 -89 26 24 25 36 -17 137 -20 48 -35 89 -33
91 2 1 46 -2 96 -7 96 -10 123 -4 123 29 0 20 -40 34 -145 50 -49 8 -99 18
-111 23 -14 6 -42 57 -88 157 -70 155 -84 194 -70 194 22 0 366 -50 373 -54 4
-3 26 -50 50 -105 44 -104 70 -137 96 -128 23 10 18 56 -15 137 -16 40 -30 75
-30 77 0 2 47 1 105 -3 115 -7 135 -1 135 43 0 31 -40 48 -134 58 -38 4 -75 9
-82 12 -9 3 2 27 36 75 32 45 50 82 50 100 0 62 -56 22 -158 -114 -39 -51 -46
-56 -75 -52 -18 2 -84 9 -147 14 -151 14 -190 21 -190 32 0 20 165 242 209
282 21 19 27 19 134 7 62 -6 120 -9 129 -6 24 9 29 32 13 49 -15 15 -95 35
-143 37 -65 1 -65 9 -1 93 60 80 71 114 45 136 -35 28 -65 5 -166 -129 l-26
-34 -38 91 c-36 88 -59 114 -86 97 -19 -12 -9 -71 26 -150 20 -44 38 -88 41
-97 6 -21 -204 -321 -221 -315 -13 4 -82 159 -121 269 l-27 76 66 98 c65 96
77 126 55 140 -19 11 -57 -17 -104 -78 -26 -32 -50 -58 -54 -58 -4 0 -26 41
-48 90 -41 89 -42 90 -77 90 -29 0 -37 -4 -41 -23z"/>
</g>
</svg>
