<?xml version="1.0" standalone="no"?>
<!DOCTYPE svg PUBLIC "-//W3C//DTD SVG 20010904//EN"
 "http://www.w3.org/TR/2001/REC-SVG-20010904/DTD/svg10.dtd">
<svg version="1.0" xmlns="http://www.w3.org/2000/svg"
 width="1280.000000pt" height="1144.000000pt" viewBox="0 0 1280.000000 1144.000000"
 preserveAspectRatio="xMidYMid meet">
<g transform="translate(0.000000,1144.000000) scale(0.100000,-0.100000)"
fill="#000000" stroke="none">
<path d="M8899 11435 c-3 -2 -57 -12 -120 -21 -886 -123 -2165 -952 -2765
-1790 -247 -347 -384 -717 -412 -1118 -4 -55 -12 -101 -18 -103 -5 -2 -21 23
-33 54 -111 275 -285 515 -519 717 -277 238 -504 378 -1172 723 -228 118 -461
242 -517 275 -295 176 -414 342 -473 660 -31 169 -34 172 -82 121 -123 -134
-251 -439 -317 -754 -64 -312 -75 -441 -76 -894 0 -328 4 -442 18 -570 123
-1103 442 -1820 1000 -2244 53 -41 95 -76 92 -79 -2 -3 -98 -6 -212 -7 -280
-3 -440 -35 -728 -148 -286 -112 -587 -279 -1105 -615 -359 -234 -440 -283
-570 -348 -139 -69 -224 -94 -340 -101 -125 -7 -217 8 -375 62 -115 40 -175
54 -175 41 0 -12 64 -151 95 -206 71 -127 152 -227 305 -381 160 -160 268
-252 450 -380 781 -553 1806 -928 2536 -929 297 0 620 67 863 181 46 21 85 39
87 39 12 0 -2 -32 -50 -109 -174 -281 -249 -526 -297 -971 -17 -151 -17 -723
-1 -995 43 -710 32 -906 -62 -1092 -50 -99 -134 -200 -250 -299 -55 -48 -101
-94 -101 -102 0 -28 159 -58 261 -49 346 29 728 147 1139 354 857 430 1636
1117 1963 1733 114 213 196 470 228 715 10 69 21 125 26 125 4 0 26 -37 47
-82 113 -238 266 -431 493 -624 259 -221 533 -388 1181 -720 496 -255 598
-316 715 -428 129 -124 195 -256 240 -487 17 -84 33 -144 41 -147 46 -15 193
231 270 452 107 305 159 649 168 1116 10 517 -38 973 -148 1419 -120 489 -296
876 -526 1161 -86 106 -273 285 -375 359 -49 35 -88 68 -88 74 0 6 18 7 48 3
183 -25 435 -15 616 25 205 45 477 151 726 281 193 101 359 202 745 451 377
244 526 333 642 382 212 89 393 87 657 -6 61 -21 121 -39 134 -39 20 0 30 19
16 33 -3 3 -21 39 -38 80 -109 250 -382 547 -758 825 -220 163 -523 343 -820
486 -607 294 -1186 456 -1688 473 -354 12 -670 -50 -976 -192 -54 -25 -101
-44 -106 -43 -4 2 16 40 46 84 198 296 286 560 338 1014 17 147 16 799 0 1035
-21 282 -27 696 -13 810 15 113 52 227 102 311 41 68 160 198 259 279 73 62
83 83 40 95 -86 25 -266 40 -281 25z m-149 -266 c0 -6 -15 -32 -33 -58 -167
-232 -229 -522 -189 -881 107 -937 -55 -1775 -472 -2448 -160 -259 -434 -573
-592 -680 -183 -123 -339 -172 -574 -179 -187 -6 -328 14 -519 76 -68 22 -119
36 -115 31 32 -30 218 -141 319 -190 230 -111 413 -155 620 -148 113 4 142 9
224 37 141 48 285 122 606 312 570 337 751 428 1037 523 222 74 480 114 643
101 396 -33 756 -121 1170 -287 292 -116 814 -389 1026 -536 132 -91 469 -408
456 -429 -4 -6 -36 -6 -84 0 -246 28 -539 -64 -803 -254 -448 -322 -848 -534
-1265 -672 -347 -115 -665 -167 -1019 -167 -377 0 -781 73 -1020 183 -163 74
-255 135 -347 226 -179 179 -291 398 -358 700 l-28 125 -6 -55 c-28 -231 14
-577 94 -777 108 -271 245 -391 824 -717 533 -300 665 -385 901 -582 240 -200
389 -393 509 -662 139 -310 242 -696 294 -1101 35 -275 45 -438 45 -785 1
-378 -1 -395 -75 -700 -47 -192 -58 -225 -70 -225 -5 0 -23 29 -39 64 -82 185
-252 370 -441 484 -35 21 -145 76 -244 122 -577 268 -971 534 -1326 896 -345
353 -582 736 -735 1189 -74 221 -109 489 -85 671 21 167 105 369 219 527 65
91 208 245 276 297 25 19 45 38 46 43 0 15 -201 -94 -319 -173 -245 -164 -424
-369 -495 -568 -56 -158 -59 -203 -61 -857 -2 -618 -9 -753 -46 -980 -66 -398
-172 -634 -425 -949 -324 -403 -802 -790 -1400 -1134 -253 -145 -361 -191
-629 -267 -191 -54 -215 -59 -215 -46 0 5 20 38 44 73 158 228 215 484 182
823 -38 398 -43 675 -16 985 59 663 271 1239 637 1723 142 189 221 272 347
367 262 196 440 260 724 260 188 0 368 -32 540 -97 23 -9 45 -14 48 -11 9 10
-168 118 -301 183 -241 119 -407 160 -630 153 -121 -4 -152 -9 -225 -33 -126
-43 -327 -149 -675 -355 -958 -569 -1342 -666 -2056 -520 -458 94 -957 295
-1487 599 -219 126 -257 150 -362 235 -102 82 -360 336 -360 353 0 11 8 13 32
7 63 -14 260 -6 358 14 185 39 301 95 530 256 332 233 578 378 855 502 490
219 913 314 1395 314 316 0 625 -43 797 -111 139 -54 356 -167 428 -222 219
-167 381 -461 453 -816 l17 -86 6 50 c11 78 10 276 -1 383 -22 201 -65 357
-139 500 -110 210 -234 308 -771 612 -352 199 -386 219 -535 313 -400 254
-670 521 -820 808 -201 386 -331 891 -385 1499 -18 196 -24 722 -11 840 23
200 118 600 142 600 5 0 22 -30 39 -66 76 -169 236 -349 407 -461 48 -31 153
-87 233 -124 314 -144 513 -251 734 -396 808 -530 1301 -1235 1481 -2118 30
-142 29 -212 0 -339 -53 -229 -171 -423 -387 -639 l-138 -137 92 46 c353 177
621 432 717 683 60 158 63 200 72 941 4 395 12 710 18 760 58 437 154 707 349
975 313 430 766 823 1372 1187 342 206 446 253 760 344 200 58 210 60 210 43z"/>
<path d="M7532 9734 c-129 -145 -229 -314 -286 -484 -44 -133 -62 -233 -81
-468 -29 -360 -54 -480 -135 -650 -86 -180 -211 -357 -383 -542 -81 -87 -136
-140 -302 -288 -59 -53 -59 -54 -27 -48 50 9 295 102 408 155 276 131 444 305
552 571 109 268 134 454 113 826 -21 366 14 572 149 877 26 59 46 107 45 107
-2 0 -26 -25 -53 -56z"/>
<path d="M3350 8872 c0 -6 14 -50 31 -99 57 -164 171 -359 278 -477 63 -69
202 -181 368 -296 295 -204 379 -281 493 -452 154 -229 269 -536 346 -915 16
-79 31 -143 34 -143 8 0 56 254 71 374 17 135 7 382 -20 481 -46 165 -141 321
-305 501 -117 128 -254 224 -503 354 -119 62 -255 139 -303 171 -164 107 -293
236 -431 429 -32 45 -59 78 -59 72z"/>
<path d="M10013 6659 c-183 -18 -303 -58 -603 -199 -358 -169 -454 -195 -730
-194 -278 0 -491 38 -830 149 -91 30 -170 55 -174 55 -9 0 63 -66 178 -163 96
-80 265 -196 348 -238 217 -110 453 -131 747 -68 211 46 342 106 616 281 258
165 381 224 572 272 91 24 293 55 366 57 l32 1 -30 9 c-106 33 -351 52 -492
38z"/>
<path d="M4083 5260 c-107 -12 -265 -48 -362 -82 -125 -44 -219 -94 -421 -223
-99 -63 -223 -137 -277 -165 -175 -88 -383 -144 -618 -166 -68 -6 -76 -8 -50
-16 74 -21 241 -39 360 -39 242 0 388 41 738 205 369 173 439 191 722 190 291
0 523 -43 864 -158 74 -25 136 -44 138 -42 6 6 -185 170 -286 246 -169 126
-324 204 -468 234 -89 19 -249 27 -340 16z"/>
<path d="M7702 4653 c-74 -376 -72 -629 4 -832 59 -156 155 -294 318 -456 134
-132 216 -188 486 -329 113 -59 243 -133 290 -164 110 -72 324 -286 410 -410
36 -51 66 -88 68 -83 4 13 -64 193 -101 266 -73 147 -196 308 -314 409 -64 55
-108 88 -378 277 -66 46 -161 124 -212 172 -232 224 -410 610 -509 1107 -15
74 -30 139 -34 143 -4 4 -16 -41 -28 -100z"/>
<path d="M6320 3947 c-368 -127 -566 -246 -707 -422 -109 -136 -206 -359 -255
-590 -19 -90 -21 -123 -17 -335 7 -425 4 -555 -20 -666 -26 -128 -71 -262
-127 -383 -24 -52 -44 -96 -44 -99 0 -14 69 62 134 148 77 102 158 251 200
368 41 115 66 260 87 502 23 279 25 293 55 414 43 173 133 346 288 554 78 104
316 352 466 485 41 36 73 66 70 67 -3 0 -61 -19 -130 -43z"/>
</g>
</svg>
