<?xml version="1.0" encoding="UTF-8" standalone="no"?>
<svg 
  version="1.1" 
  xmlns="http://www.w3.org/2000/svg" 
  xmlns:xlink="http://www.w3.org/1999/xlink" 
  xmlns:svg="http://www.w3.org/2000/svg"
  xmlns:rdf="http://www.w3.org/1999/02/22-rdf-syntax-ns#"
  xmlns:cc="http://creativecommons.org/ns#"
  xmlns:dc="http://purl.org/dc/elements/1.1/"
  viewBox="0 0 768 768"
  width="768"
  height="768"
>
<style>svg {background-color: white; }</style>"
<metadata id="metadata1">
Created by https://svgstud.io and licensed under CC-BY-SA 4.0 license. Please attribute https://svgstud.io
</metadata>
<metadata id="prompt">
Draw the simplest svg you can create
</metadata>
<metadata id="version">
7
</metadata>
<metadata id="metadata2">
<rdf:RDF>
<cc:Work
    rdf:about="">
    <cc:license
    rdf:resource="http://creativecommons.org/licenses/by-sa/4.0/" />
    <dc:creator>
        <cc:Agent>
            <dc:title>https://svgstud.io</dc:title>
        </cc:Agent>
    </dc:creator>
</cc:Work>
<cc:License
    rdf:about="http://creativecommons.org/licenses/by-sa/4.0/">
    <cc:permits
    rdf:resource="http://creativecommons.org/ns#Reproduction" />
    <cc:permits
    rdf:resource="http://creativecommons.org/ns#Distribution" />
    <cc:requires
    rdf:resource="http://creativecommons.org/ns#Notice" />
    <cc:requires
    rdf:resource="http://creativecommons.org/ns#Attribution" />
    <cc:permits
    rdf:resource="http://creativecommons.org/ns#DerivativeWorks" />
    <cc:requires
    rdf:resource="http://creativecommons.org/ns#ShareAlike" />
</cc:License>
</rdf:RDF>
</metadata>
<metadata id="uid">
b6deb3fcbe9b496432f17497e912275c2fd790edc1e2e73102e0418717960640
</metadata>
<path stroke="none" fill="black" fill-rule="evenodd" d="M408.00,643.39C403.88,643.66 398.25,643.48 395.50,642.99C392.58,642.47 389.84,641.28 388.91,640.13C387.78,638.74 387.12,634.98 386.67,627.33C386.31,621.37 385.26,608.69 384.32,599.15C383.15,587.17 382.23,581.64 381.34,581.30C380.62,581.03 377.90,582.10 375.27,583.69C372.65,585.28 366.90,588.20 362.50,590.18C358.10,592.16 350.45,595.22 345.50,596.97C340.55,598.73 331.32,601.29 325.00,602.67C315.98,604.63 309.51,605.29 294.97,605.71C280.55,606.13 274.15,605.89 266.07,604.61C260.36,603.70 251.60,601.60 246.62,599.92C241.63,598.25 234.75,595.55 231.32,593.92C227.90,592.28 221.36,588.18 216.80,584.81C212.23,581.43 205.69,575.70 202.25,572.08C198.81,568.46 193.99,562.58 191.55,559.00C189.10,555.42 185.28,548.62 183.06,543.88C180.84,539.14 178.50,533.00 177.86,530.23C177.23,527.47 176.97,524.51 177.30,523.66C177.63,522.80 179.83,521.59 182.20,520.96C184.56,520.33 194.62,515.60 204.55,510.44C215.57,504.72 227.26,499.51 234.55,497.07C241.12,494.88 250.78,492.32 256.00,491.39C261.86,490.34 270.67,489.70 279.00,489.70C287.18,489.71 296.11,490.37 301.68,491.38C306.73,492.29 314.33,494.17 318.58,495.56C322.82,496.94 329.69,499.64 333.84,501.56C337.98,503.48 345.68,507.92 350.94,511.44C356.20,514.96 363.78,520.63 367.78,524.05C371.79,527.47 375.32,530.02 375.62,529.71C375.93,529.41 375.38,514.83 374.40,497.33C373.42,479.82 372.20,465.21 371.69,464.87C371.17,464.52 366.87,463.73 362.13,463.12C357.38,462.51 348.01,460.67 341.31,459.04C334.60,457.40 325.24,454.49 320.50,452.59C315.77,450.68 308.21,447.00 303.70,444.41C299.19,441.83 291.85,436.87 287.38,433.40C282.92,429.94 275.79,423.36 271.55,418.80C267.30,414.23 261.82,407.47 259.35,403.77C256.89,400.07 253.09,393.55 250.92,389.27C248.74,385.00 245.64,377.23 244.02,372.00C242.40,366.77 240.42,358.68 239.60,354.00C238.79,349.32 237.86,341.68 237.52,337.00C237.19,332.32 237.39,322.89 237.97,316.04C238.54,309.18 239.71,299.89 240.55,295.39C241.39,290.89 242.92,284.26 243.95,280.67C244.98,277.07 247.52,270.18 249.59,265.35C251.67,260.52 255.28,253.17 257.62,249.03C259.96,244.89 264.26,238.04 267.19,233.82C270.11,229.59 276.68,221.40 281.80,215.61C286.91,209.82 295.10,201.72 299.99,197.61C304.89,193.51 311.50,188.38 314.70,186.22C317.89,184.05 324.57,179.99 329.55,177.19C334.52,174.39 342.08,170.70 346.36,168.99C350.63,167.28 358.03,165.04 362.81,164.01C367.59,162.98 376.23,161.82 382.00,161.45C388.21,161.05 397.20,161.26 404.00,161.96C410.32,162.61 419.55,164.07 424.50,165.20C429.45,166.33 437.32,168.60 442.00,170.23C446.68,171.87 454.48,175.20 459.34,177.63C464.20,180.06 472.08,184.59 476.84,187.70C482.55,191.43 490.31,198.15 499.62,207.43C509.33,217.09 515.49,224.20 519.30,230.12C522.35,234.86 526.45,241.94 528.42,245.85C530.39,249.76 533.34,256.32 534.97,260.43C536.60,264.54 539.04,272.31 540.39,277.70C541.74,283.09 543.32,290.74 543.92,294.69C544.51,298.65 545.00,308.32 545.00,316.19C544.99,324.06 544.33,334.56 543.53,339.53C542.72,344.50 540.93,352.47 539.55,357.24C538.16,362.02 535.41,369.43 533.43,373.71C531.46,378.00 528.22,384.20 526.24,387.50C524.26,390.80 520.60,396.17 518.12,399.43C515.64,402.69 509.45,409.69 504.36,414.99C499.28,420.28 490.00,428.52 483.75,433.29C476.05,439.16 468.65,443.73 460.87,447.43C454.54,450.44 443.99,454.48 437.43,456.41C430.87,458.33 423.25,460.51 420.50,461.25C415.50,462.58 415.50,462.58 415.63,487.34C415.70,500.95 416.04,512.37 416.38,512.72C416.73,513.06 418.02,512.42 419.25,511.28C420.49,510.15 424.88,507.08 429.00,504.45C433.12,501.82 441.00,497.51 446.50,494.87C452.00,492.24 461.00,488.84 466.50,487.32C475.90,484.72 477.73,484.55 497.00,484.53C513.21,484.51 519.23,484.88 525.78,486.32C530.33,487.32 540.00,489.94 547.28,492.13C554.55,494.32 563.65,496.84 567.50,497.71C571.97,498.73 580.11,499.39 590.00,499.52C598.52,499.64 606.12,499.79 606.88,499.87C607.97,499.97 608.16,501.47 607.78,506.75C607.43,511.58 606.19,516.06 603.43,522.50C601.31,527.45 596.52,536.07 592.79,541.65C589.06,547.24 582.07,555.84 577.26,560.77C572.44,565.71 564.69,572.54 560.04,575.96C555.39,579.38 547.52,584.56 542.54,587.47C537.57,590.39 529.23,594.35 524.00,596.28C518.77,598.22 510.90,600.63 506.50,601.65C500.15,603.12 494.47,603.50 479.00,603.48C464.17,603.47 457.59,603.05 451.50,601.72C447.10,600.75 439.23,598.63 434.00,596.99C428.77,595.36 423.88,594.02 423.12,594.01C422.02,594.00 421.85,595.58 422.26,601.75C422.55,606.01 423.37,615.88 424.07,623.68C425.13,635.29 425.13,638.14 424.06,639.42C423.35,640.28 421.13,641.42 419.13,641.95C417.14,642.47 412.12,643.12 408.00,643.39zM405.89,637.67C410.53,637.34 414.79,636.61 415.37,636.03C416.09,635.31 415.40,623.68 413.13,598.25C411.33,578.04 409.44,556.33 408.91,550.00C408.39,543.67 407.68,521.72 407.34,501.22C406.99,480.71 406.39,463.74 406.00,463.50C405.61,463.26 399.95,463.52 393.42,464.09C386.89,464.66 381.36,465.31 381.13,465.53C380.90,465.76 381.48,480.02 382.41,497.22C383.38,515.31 385.94,545.59 388.48,569.00C390.89,591.27 393.40,615.35 394.06,622.50C394.72,629.65 395.76,636.12 396.36,636.88C397.22,637.95 399.37,638.13 405.89,637.67zM287.62,597.88C297.85,597.97 305.16,597.42 314.10,595.90C320.89,594.75 330.29,592.70 334.97,591.34C339.66,589.99 348.31,586.83 354.18,584.33C360.05,581.82 368.60,577.67 373.18,575.10C381.50,570.43 381.50,570.43 381.23,564.62C381.08,561.42 380.56,558.04 380.06,557.12C379.52,556.11 376.82,554.95 373.30,554.22C370.08,553.56 362.73,552.34 356.97,551.52C348.99,550.39 335.99,550.03 302.30,550.02C278.00,550.01 252.35,549.52 245.30,548.92C238.26,548.33 226.20,546.78 218.50,545.47C210.80,544.17 201.16,541.95 197.08,540.55C193.00,539.15 189.43,538.23 189.15,538.51C188.87,538.79 189.89,541.64 191.42,544.84C192.95,548.04 197.44,554.65 201.39,559.54C205.35,564.42 212.35,571.47 216.95,575.20C221.56,578.92 229.41,583.99 234.41,586.45C239.41,588.92 247.55,592.08 252.50,593.48C257.45,594.88 264.20,596.42 267.50,596.89C270.80,597.37 279.86,597.81 287.62,597.88zM481.00,595.48C491.87,595.24 499.06,594.55 505.06,593.15C509.77,592.06 517.26,589.77 521.71,588.05C526.15,586.34 533.55,582.68 538.14,579.92C542.74,577.15 549.79,572.37 553.82,569.29C557.84,566.21 564.46,560.58 568.52,556.79C572.58,553.00 578.48,546.47 581.63,542.29C584.77,538.11 589.78,529.72 592.76,523.64C595.74,517.57 598.25,511.58 598.34,510.33C598.50,508.12 598.22,508.06 586.50,507.59C578.70,507.28 570.65,506.21 563.50,504.55C557.45,503.14 550.48,501.33 548.00,500.52C545.52,499.71 540.69,498.40 537.25,497.61C531.00,496.18 531.00,496.18 523.72,504.84C519.71,509.60 512.90,517.95 508.59,523.39C502.11,531.55 501.15,533.19 503.12,532.76C504.43,532.47 514.50,529.96 525.50,527.18C536.50,524.40 552.48,520.54 561.00,518.59C569.52,516.65 579.65,514.14 583.50,513.03C587.35,511.91 590.83,511.00 591.25,511.00C591.66,511.00 592.00,511.45 592.00,512.00C592.00,512.55 590.49,514.68 588.64,516.75C586.80,518.81 583.43,524.48 581.16,529.34C578.90,534.21 574.91,541.18 572.31,544.84C569.71,548.50 565.36,553.86 562.65,556.75C559.93,559.64 557.33,562.00 556.85,562.00C556.38,562.00 556.00,561.54 556.00,560.97C556.00,560.40 562.05,550.95 569.45,539.97C577.71,527.71 582.32,520.00 581.41,520.00C580.60,520.00 572.18,522.00 562.72,524.44C553.25,526.88 535.75,531.36 523.84,534.40C511.92,537.44 492.12,542.89 479.84,546.52C467.55,550.15 451.88,555.35 445.00,558.08C438.12,560.81 429.35,564.72 425.50,566.77C419.58,569.93 418.45,570.95 418.17,573.41C417.99,575.01 418.11,577.77 418.44,579.55C418.95,582.23 419.84,583.11 423.77,584.79C426.37,585.89 432.10,587.92 436.50,589.29C440.90,590.66 447.88,592.49 452.00,593.37C456.12,594.24 460.85,595.15 462.50,595.39C464.15,595.63 472.48,595.67 481.00,595.48zM418.58,562.00C418.84,562.00 424.77,559.33 431.77,556.07C438.77,552.81 449.45,548.55 455.50,546.61C461.55,544.66 470.77,541.90 476.00,540.46C481.23,539.02 486.77,537.36 488.32,536.77C489.98,536.14 493.65,532.38 497.27,527.60C500.64,523.14 506.43,515.90 510.14,511.50C513.85,507.10 518.47,501.70 520.40,499.50C522.34,497.30 523.94,495.19 523.96,494.82C523.98,494.45 521.41,493.56 518.25,492.86C514.90,492.11 506.44,491.60 498.00,491.64C487.47,491.69 480.90,492.27 474.00,493.74C468.77,494.85 460.90,497.15 456.50,498.86C452.10,500.56 444.78,504.10 440.23,506.73C435.68,509.35 428.54,514.19 424.37,517.47C420.20,520.76 416.44,524.36 416.03,525.47C415.62,526.59 415.64,534.82 416.09,543.77C416.54,552.72 417.18,560.48 417.51,561.02C417.85,561.56 418.33,562.00 418.58,562.00zM378.35,547.98C378.82,547.55 378.90,546.26 378.53,545.11C378.17,543.95 373.06,538.92 367.18,533.93C361.31,528.93 352.20,521.96 346.94,518.45C341.69,514.93 333.46,510.21 328.65,507.96C323.84,505.71 315.56,502.76 310.24,501.41C304.91,500.06 294.96,498.44 288.12,497.81C278.35,496.91 273.40,496.94 265.13,497.95C259.34,498.66 251.43,500.11 247.55,501.18C243.67,502.24 237.57,504.18 234.00,505.48C230.43,506.78 222.10,510.57 215.50,513.92C208.90,517.26 200.57,521.57 197.00,523.48C193.43,525.39 189.51,526.97 188.31,526.98C187.10,526.99 185.85,527.43 185.53,527.96C185.20,528.48 185.96,529.58 187.22,530.40C188.47,531.21 192.88,532.78 197.00,533.88C201.12,534.98 209.29,536.82 215.15,537.98C221.01,539.14 230.46,540.69 236.15,541.43C241.84,542.18 246.90,542.54 247.39,542.25C247.88,541.95 241.83,535.44 233.95,527.78C223.14,517.26 219.97,513.64 221.03,512.98C221.94,512.42 223.76,512.86 226.19,514.23C228.26,515.39 236.45,522.31 244.38,529.61C258.81,542.88 258.81,542.88 272.28,543.58C279.69,543.96 286.91,543.99 288.33,543.63C290.90,542.99 290.90,542.99 284.45,529.74C280.90,522.46 278.00,515.71 278.00,514.75C278.00,513.79 278.43,513.00 278.96,513.00C279.48,513.00 281.17,514.56 282.71,516.47C284.24,518.38 288.20,525.02 291.50,531.22C297.51,542.50 297.51,542.50 322.50,543.18C336.25,543.55 351.55,544.39 356.50,545.05C361.45,545.70 368.20,546.80 371.50,547.49C374.80,548.19 377.88,548.40 378.35,547.98zM441.77,545.98C440.36,546.00 440.22,545.56 440.98,543.56C441.49,542.22 443.11,538.73 444.58,535.81C446.05,532.89 449.28,527.35 451.75,523.50C454.22,519.65 458.71,513.46 461.73,509.75C464.75,506.04 467.88,503.00 468.68,503.00C469.70,503.00 469.94,503.62 469.48,505.08C469.11,506.22 466.54,510.83 463.75,515.33C460.97,519.82 455.78,528.23 452.23,534.00C448.67,539.77 445.25,544.83 444.63,545.23C444.01,545.64 442.72,545.98 441.77,545.98zM392.53,456.69C398.71,456.36 408.43,455.14 414.13,453.99C419.83,452.84 429.72,450.15 436.11,448.03C442.49,445.90 451.94,442.05 457.11,439.46C462.27,436.87 471.45,431.04 477.50,426.50C483.55,421.96 492.40,414.20 497.16,409.25C501.92,404.31 508.54,396.59 511.87,392.10C515.20,387.61 519.96,379.86 522.46,374.87C524.95,369.89 528.10,362.14 529.45,357.65C530.80,353.17 532.69,345.45 533.66,340.50C534.90,334.18 535.39,327.04 535.33,316.50C535.27,305.92 534.62,298.01 533.12,289.64C531.95,283.12 529.67,273.81 528.04,268.95C526.41,264.09 522.98,255.92 520.42,250.80C517.86,245.69 513.40,237.90 510.51,233.50C507.62,229.10 502.75,222.63 499.67,219.12C496.60,215.62 493.23,212.15 492.18,211.41C490.44,210.19 490.11,210.44 488.40,214.29C487.37,216.60 484.32,222.55 481.62,227.50C478.92,232.45 474.01,240.55 470.70,245.50C467.40,250.45 460.97,259.26 456.42,265.07C451.87,270.89 442.34,281.91 435.23,289.57C428.13,297.23 417.62,308.00 411.89,313.50C406.16,319.00 397.78,326.74 393.27,330.71C388.77,334.68 383.26,339.12 381.04,340.59C377.00,343.27 377.00,343.27 377.01,352.88C377.01,358.17 377.67,378.02 378.48,397.00C379.29,415.98 380.25,437.30 380.62,444.39C381.30,457.29 381.30,457.29 392.53,456.69zM369.40,455.91C373.30,456.00 373.30,456.00 372.63,440.25C372.26,431.59 371.53,413.48 371.00,400.00C370.48,386.52 369.75,369.78 369.39,362.80C368.72,350.10 368.72,350.10 363.11,346.38C360.03,344.33 351.52,338.18 344.20,332.70C336.89,327.22 326.04,317.96 320.11,312.12C314.17,306.28 307.41,299.05 305.07,296.05C302.74,293.06 299.51,287.99 297.90,284.80C296.29,281.62 294.11,276.64 293.05,273.75C291.99,270.86 290.43,266.02 289.57,263.00C288.72,259.98 287.12,252.55 286.02,246.50C284.93,240.45 284.02,234.71 284.02,233.75C284.01,232.72 284.75,232.00 285.83,232.00C286.83,232.00 293.47,235.97 300.58,240.82C307.68,245.66 318.23,253.01 324.00,257.14C329.77,261.27 340.47,269.02 347.77,274.37C355.08,279.71 361.77,284.36 362.65,284.70C364.10,285.25 364.19,284.01 363.57,272.41C363.19,265.31 362.47,254.78 361.98,249.00C361.48,243.22 360.39,227.70 359.55,214.50C358.70,201.30 357.74,186.77 357.41,182.21C356.84,174.32 356.71,173.95 354.66,174.53C353.47,174.86 347.80,177.38 342.05,180.12C336.30,182.87 327.24,187.97 321.92,191.45C316.60,194.94 308.56,201.04 304.05,205.02C299.54,208.99 291.72,216.98 286.67,222.76C281.63,228.55 274.64,237.55 271.15,242.77C267.65,247.99 262.88,256.14 260.54,260.88C258.19,265.62 255.50,271.88 254.54,274.79C253.59,277.70 253.06,280.72 253.36,281.51C253.67,282.30 259.22,285.64 265.71,288.94C272.19,292.24 286.94,300.13 298.47,306.47C310.00,312.81 318.49,318.00 317.33,318.00C316.17,318.00 311.24,316.86 306.36,315.46C301.49,314.07 292.55,310.50 286.50,307.54C280.45,304.58 270.39,298.97 264.15,295.08C257.90,291.19 252.20,288.00 251.47,288.00C250.73,288.00 249.89,288.79 249.59,289.75C249.30,290.71 248.35,296.22 247.49,301.99C246.63,307.76 245.92,319.05 245.91,327.07C245.90,335.68 246.54,345.72 247.48,351.54C248.36,356.97 250.39,365.36 252.01,370.18C253.62,375.00 256.36,381.77 258.10,385.22C259.84,388.68 263.15,394.43 265.46,398.00C267.78,401.57 271.78,406.98 274.36,410.00C276.94,413.02 282.53,418.59 286.77,422.37C291.02,426.15 296.30,430.39 298.50,431.80C300.70,433.21 305.20,435.90 308.50,437.78C311.80,439.65 318.62,442.91 323.66,445.01C328.70,447.11 336.80,449.79 341.66,450.97C346.52,452.15 353.88,453.72 358.00,454.46C362.12,455.21 367.25,455.86 369.40,455.91zM432.90,388.00C432.40,388.00 431.94,387.44 431.87,386.75C431.80,386.06 431.83,373.14 431.92,358.04C432.02,342.93 432.30,330.37 432.55,330.12C432.80,329.87 433.26,329.93 433.59,330.25C433.91,330.58 434.59,332.56 435.10,334.67C435.61,336.78 436.32,345.81 436.67,354.75C437.02,363.69 437.60,371.00 437.95,371.00C438.31,371.00 440.89,367.51 443.69,363.25C446.48,358.99 451.07,351.47 453.89,346.54C456.70,341.62 461.91,330.14 465.46,321.04C469.02,311.94 474.14,298.42 476.84,290.99C479.55,283.57 483.15,274.42 484.85,270.67C486.88,266.20 488.35,264.10 489.11,264.57C489.75,264.96 492.68,270.34 495.62,276.52C498.55,282.70 502.32,291.82 503.98,296.78C505.64,301.74 507.00,306.94 507.00,308.34C507.00,309.74 506.61,311.12 506.13,311.42C505.66,311.71 504.58,311.18 503.74,310.23C502.90,309.28 499.39,301.41 495.95,292.75C492.51,284.09 489.34,277.00 488.90,277.00C488.47,277.00 486.46,282.29 484.44,288.75C482.43,295.21 479.23,305.13 477.33,310.79C475.44,316.44 472.32,324.77 470.39,329.29C468.46,333.80 464.45,342.12 461.47,347.76C458.49,353.40 453.71,361.50 450.85,365.76C447.99,370.02 444.26,375.23 442.57,377.35C440.88,379.46 438.22,382.73 436.65,384.60C435.08,386.47 433.39,388.00 432.90,388.00zM367.26,339.14C367.71,338.69 367.60,330.04 367.03,319.91C366.45,309.79 365.73,299.59 365.43,297.26C364.94,293.47 364.38,292.73 360.19,290.33C357.61,288.85 344.25,279.85 330.50,270.33C316.75,260.81 302.87,250.99 299.66,248.51C296.45,246.03 293.41,244.00 292.91,244.00C292.41,244.00 292.00,244.48 292.00,245.07C292.00,245.66 293.15,250.72 294.55,256.32C295.96,261.92 298.02,268.98 299.13,272.00C300.24,275.02 302.56,280.20 304.28,283.50C306.50,287.76 311.18,293.26 320.45,302.50C327.63,309.65 339.47,320.12 346.77,325.77C354.06,331.43 361.48,336.93 363.24,338.00C365.00,339.07 366.81,339.59 367.26,339.14zM379.35,333.32C380.53,332.32 386.90,326.46 393.50,320.30C400.10,314.13 409.63,305.13 414.68,300.29C419.72,295.46 428.05,286.74 433.18,280.93C438.30,275.12 446.51,265.22 451.41,258.93C456.32,252.64 463.26,243.00 466.85,237.50C470.44,232.00 475.54,223.75 478.19,219.17C480.83,214.59 483.00,210.58 483.00,210.25C483.00,209.92 483.72,208.86 484.61,207.88C486.10,206.23 486.01,205.91 483.36,203.41C481.79,201.92 476.45,198.03 471.50,194.75C466.55,191.47 459.45,187.25 455.73,185.37C452.01,183.49 446.61,181.01 443.73,179.86C440.85,178.70 434.05,176.46 428.62,174.88C423.19,173.30 417.45,172.00 415.87,172.00C413.00,172.00 413.00,172.00 412.98,187.75C412.97,196.41 412.32,208.31 411.54,214.19C410.76,220.07 408.91,229.97 407.43,236.19C405.95,242.41 403.46,250.35 401.90,253.84C400.13,257.76 398.56,260.01 397.77,259.73C396.98,259.45 396.59,257.83 396.74,255.43C396.88,253.31 398.30,245.71 399.90,238.54C401.50,231.37 403.54,220.10 404.43,213.50C405.33,206.90 406.39,194.82 406.79,186.67C407.19,178.51 407.21,171.34 406.84,170.74C406.45,170.12 401.56,169.47 395.28,169.21C389.30,168.96 380.38,169.29 375.47,169.95C370.56,170.60 366.00,171.59 365.33,172.14C364.66,172.69 364.31,173.68 364.54,174.32C364.78,174.97 366.10,192.92 367.49,214.20C368.87,235.49 370.89,263.61 371.96,276.70C373.04,289.79 374.42,307.91 375.03,316.96C375.64,326.01 376.38,333.80 376.67,334.27C376.96,334.74 378.17,334.31 379.35,333.32zM423.06,234.00C422.66,234.00 422.07,233.73 421.74,233.41C421.42,233.08 421.76,231.10 422.50,229.01C423.24,226.91 427.68,217.61 432.36,208.35C437.05,199.08 441.55,190.60 442.36,189.50C443.17,188.40 444.16,187.83 444.57,188.23C444.97,188.63 444.54,192.01 443.63,195.73C442.71,199.45 439.34,207.91 436.14,214.53C432.94,221.14 428.86,228.23 427.06,230.28C425.26,232.33 423.46,234.00 423.06,234.00zM333.13,226.27C332.38,227.02 331.87,226.82 331.40,225.59C331.03,224.63 330.96,220.17 331.24,215.67C331.53,211.18 332.78,203.72 334.03,199.10C335.55,193.47 337.23,189.67 339.12,187.60C340.67,185.89 341.95,184.95 341.95,185.50C341.96,186.05 340.21,195.21 338.08,205.85C335.94,216.50 333.71,225.69 333.13,226.27z" />

</svg>