<?xml version="1.0" encoding="UTF-8" standalone="no"?>
<svg 
  version="1.1" 
  xmlns="http://www.w3.org/2000/svg" 
  xmlns:xlink="http://www.w3.org/1999/xlink" 
  xmlns:svg="http://www.w3.org/2000/svg"
  xmlns:rdf="http://www.w3.org/1999/02/22-rdf-syntax-ns#"
  xmlns:cc="http://creativecommons.org/ns#"
  xmlns:dc="http://purl.org/dc/elements/1.1/"
  viewBox="0 0 768 768"
  width="768"
  height="768"
>
<style>svg {background-color: white; }</style>"
<metadata id="metadata1">
Created by https://svgstud.io and licensed under CC-BY-SA 4.0 license. Please attribute https://svgstud.io
</metadata>
<metadata id="prompt">
Sun
</metadata>
<metadata id="version">
7
</metadata>
<metadata id="metadata2">
<rdf:RDF>
<cc:Work
    rdf:about="">
    <cc:license
    rdf:resource="http://creativecommons.org/licenses/by-sa/4.0/" />
    <dc:creator>
        <cc:Agent>
            <dc:title>https://svgstud.io</dc:title>
        </cc:Agent>
    </dc:creator>
</cc:Work>
<cc:License
    rdf:about="http://creativecommons.org/licenses/by-sa/4.0/">
    <cc:permits
    rdf:resource="http://creativecommons.org/ns#Reproduction" />
    <cc:permits
    rdf:resource="http://creativecommons.org/ns#Distribution" />
    <cc:requires
    rdf:resource="http://creativecommons.org/ns#Notice" />
    <cc:requires
    rdf:resource="http://creativecommons.org/ns#Attribution" />
    <cc:permits
    rdf:resource="http://creativecommons.org/ns#DerivativeWorks" />
    <cc:requires
    rdf:resource="http://creativecommons.org/ns#ShareAlike" />
</cc:License>
</rdf:RDF>
</metadata>
<metadata id="uid">
3c5ce02136db475cc334a90f55daf179c0eb594791487c82383d22bf28d69f10
</metadata>
<path stroke="none" fill="black" fill-rule="evenodd" d="M314.32,767.80C312.05,767.97 309.92,767.69 309.61,767.17C309.29,766.66 311.05,757.30 313.53,746.37C316.00,735.44 320.02,717.03 322.46,705.47C324.90,693.90 327.35,681.52 327.90,677.97C328.45,674.41 329.59,664.75 330.44,656.50C331.28,648.25 333.54,623.95 335.45,602.50C337.37,581.05 339.85,551.35 340.96,536.50C342.08,521.65 343.69,498.74 344.54,485.59C345.38,472.44 345.72,461.37 345.29,460.99C344.85,460.61 339.55,458.62 333.50,456.56C327.45,454.50 317.62,450.33 311.66,447.28C305.69,444.23 297.14,439.02 292.66,435.70C288.17,432.38 281.40,426.70 277.62,423.08C273.84,419.46 267.71,412.59 264.00,407.81C260.29,403.04 254.94,394.64 252.12,389.14C249.30,383.65 245.63,374.98 243.96,369.89C242.30,364.79 240.19,356.54 239.28,351.56C238.17,345.52 237.61,337.00 237.60,326.00C237.59,314.92 238.17,305.89 239.37,298.50C240.35,292.45 241.85,285.02 242.70,282.00C243.56,278.98 245.58,273.12 247.20,269.00C248.82,264.88 252.15,257.51 254.60,252.64C257.04,247.76 261.84,239.66 265.25,234.64C269.16,228.88 276.82,220.11 285.98,210.91C297.31,199.53 303.09,194.61 312.25,188.55C318.71,184.27 329.06,178.52 335.25,175.76C341.44,173.00 351.46,169.48 357.53,167.95C363.60,166.42 373.27,164.62 379.03,163.94C385.44,163.20 394.15,162.97 401.50,163.36C408.10,163.71 417.71,164.89 422.85,165.99C427.99,167.08 436.32,169.38 441.35,171.10C446.38,172.82 455.68,176.87 462.00,180.11C468.32,183.35 477.39,188.81 482.14,192.25C486.90,195.69 493.42,200.88 496.64,203.80C499.86,206.71 505.60,212.56 509.39,216.80C513.18,221.03 518.72,228.20 521.69,232.73C524.66,237.25 529.52,246.03 532.48,252.23C535.44,258.43 538.80,266.43 539.96,270.00C541.11,273.57 543.04,281.00 544.24,286.50C546.05,294.83 546.42,299.76 546.44,316.00C546.45,331.26 546.06,337.34 544.62,343.96C543.61,348.61 541.68,355.81 540.33,359.96C538.97,364.11 535.40,372.53 532.39,378.69C529.37,384.84 523.61,394.29 519.57,399.69C515.54,405.08 507.57,414.00 501.87,419.50C496.17,425.00 487.23,432.55 482.00,436.29C476.77,440.02 467.55,445.49 461.50,448.43C455.45,451.38 446.60,454.98 441.84,456.43C437.07,457.88 429.42,459.88 424.84,460.87C416.50,462.68 416.50,462.68 416.71,478.59C416.82,487.34 417.41,502.60 418.00,512.50C418.60,522.40 419.54,534.55 420.09,539.50C420.64,544.45 421.55,550.98 422.12,554.00C422.69,557.02 430.07,583.80 438.53,613.50C446.99,643.20 457.56,680.77 462.03,697.00C466.50,713.23 472.32,734.38 474.96,744.00C477.60,753.62 480.07,762.96 480.46,764.75C481.16,767.99 481.14,768.00 477.20,768.00C475.03,768.00 472.81,767.44 472.28,766.75C471.75,766.06 469.48,759.20 467.24,751.50C464.99,743.80 461.34,730.98 459.13,723.00C456.91,715.02 452.57,699.05 449.48,687.50C446.40,675.95 442.13,660.65 440.00,653.50C437.88,646.35 432.73,627.45 428.57,611.50C424.40,595.55 420.54,581.60 419.99,580.50C419.28,579.09 419.15,581.47 419.55,588.50C419.86,594.00 420.75,606.60 421.53,616.50C422.30,626.40 424.08,647.55 425.48,663.50C426.88,679.45 429.13,701.27 430.49,712.00C431.85,722.73 433.87,738.25 434.97,746.50C436.08,754.75 436.99,762.96 436.99,764.75C437.00,767.70 436.72,768.00 433.98,768.00C431.76,768.00 430.72,767.40 430.10,765.75C429.63,764.51 427.18,749.33 424.66,732.00C422.13,714.67 419.61,695.55 419.05,689.50C418.49,683.45 417.56,671.75 416.99,663.50C416.41,655.25 415.30,639.27 414.53,628.00C413.75,616.73 412.84,598.95 412.50,588.50C412.16,578.05 411.26,557.12 410.48,542.00C409.71,526.88 408.77,503.17 408.39,489.31C407.71,464.12 407.71,464.12 393.60,464.71C385.85,465.03 379.23,465.70 378.91,466.20C378.58,466.70 378.02,479.79 377.65,495.30C377.28,510.81 376.31,538.35 375.51,556.50C374.70,574.65 373.57,599.40 373.00,611.50C372.43,623.60 371.28,642.50 370.45,653.50C369.62,664.50 368.08,682.73 367.02,694.00C365.96,705.27 364.37,723.27 363.50,734.00C362.62,744.73 361.58,756.65 361.20,760.50C360.50,767.50 360.50,767.50 356.75,767.81C354.20,768.02 352.97,767.70 352.91,766.81C352.86,766.09 352.88,763.25 352.95,760.50C353.01,757.75 353.96,745.15 355.06,732.50C356.15,719.85 357.72,702.52 358.53,694.00C359.35,685.48 360.94,667.92 362.07,655.00C363.19,642.08 364.37,625.20 364.67,617.50C365.06,607.83 364.91,603.81 364.19,604.50C363.62,605.05 360.67,612.70 357.64,621.50C354.61,630.30 349.66,643.92 346.64,651.77C343.62,659.62 339.99,670.65 338.57,676.27C337.16,681.90 334.00,695.73 331.56,707.00C329.12,718.27 325.96,733.12 324.53,740.00C323.11,746.88 321.17,755.88 320.21,760.00C318.46,767.50 318.46,767.50 314.32,767.80zM396.63,768.00C395.12,768.00 393.68,767.32 393.34,766.45C393.02,765.60 392.69,743.44 392.63,717.20C392.56,690.97 392.89,668.15 393.36,666.50C394.17,663.66 394.26,663.62 395.04,665.66C395.50,666.85 396.34,672.93 396.91,679.16C397.48,685.40 398.26,707.94 398.63,729.25C399.32,768.00 399.32,768.00 396.63,768.00zM338.29,648.00C338.58,647.73 341.81,639.85 345.46,630.50C349.11,621.15 353.47,610.12 355.14,606.00C356.82,601.88 359.91,594.23 362.02,589.00C365.86,579.51 365.86,579.49 366.91,558.50C367.48,546.95 368.48,521.37 369.13,501.65C370.09,472.45 370.06,465.66 369.01,465.01C368.30,464.57 364.37,463.90 360.29,463.51C356.20,463.13 352.61,463.06 352.30,463.36C352.00,463.66 351.38,469.89 350.91,477.20C350.44,484.52 349.57,497.93 348.97,507.00C348.37,516.08 346.77,538.58 345.42,557.00C344.06,575.42 342.09,599.27 341.03,610.00C339.96,620.73 338.79,633.77 338.42,639.00C338.05,644.23 337.99,648.27 338.29,648.00zM392.25,454.75C400.87,454.44 410.76,453.38 417.30,452.07C423.24,450.88 432.01,448.63 436.80,447.06C441.58,445.50 450.23,441.94 456.00,439.16C461.77,436.38 470.77,431.08 476.00,427.38C481.23,423.69 490.92,415.23 497.54,408.58C505.10,401.00 511.94,392.96 515.92,387.00C519.41,381.77 523.77,374.19 525.62,370.15C527.46,366.11 530.09,359.26 531.46,354.93C532.83,350.60 534.69,342.43 535.60,336.78C536.85,328.99 537.10,322.99 536.66,312.00C536.26,302.23 535.27,293.86 533.62,286.36C532.28,280.24 530.02,272.01 528.60,268.08C527.18,264.15 524.18,257.24 521.93,252.72C519.68,248.20 515.44,240.90 512.51,236.50C509.58,232.10 503.73,224.79 499.51,220.25C495.28,215.71 491.45,212.00 490.99,212.00C490.54,212.00 488.14,215.71 485.66,220.25C483.18,224.79 476.23,235.98 470.20,245.11C464.17,254.25 457.56,263.59 455.51,265.86C453.45,268.14 451.14,270.00 450.38,270.00C449.62,270.00 449.00,269.59 449.00,269.08C449.00,268.58 449.86,266.16 450.91,263.70C451.96,261.25 457.00,252.55 462.09,244.37C467.19,236.19 474.63,224.71 478.62,218.86C484.50,210.23 485.65,207.94 484.69,206.76C484.03,205.96 480.80,203.31 477.50,200.86C474.20,198.41 469.23,194.98 466.45,193.23C463.68,191.48 456.70,187.84 450.95,185.13C445.20,182.43 437.30,179.27 433.39,178.11C429.48,176.95 425.56,176.00 424.68,176.00C423.61,176.00 422.56,177.75 421.51,181.25C420.65,184.14 415.92,200.90 411.01,218.50C406.09,236.10 401.47,252.22 400.75,254.32C400.02,256.43 398.99,258.23 398.46,258.32C397.93,258.42 397.36,256.29 397.19,253.58C397.02,250.88 397.86,243.68 399.06,237.58C400.27,231.49 403.24,219.53 405.68,211.00C408.11,202.47 411.46,191.68 413.12,187.00C414.78,182.32 416.22,177.40 416.32,176.05C416.47,174.03 415.89,173.46 413.00,172.76C411.07,172.29 402.98,171.86 395.00,171.81C386.03,171.76 379.39,172.17 377.60,172.89C374.70,174.06 374.70,174.06 375.37,201.28C375.73,216.25 376.45,274.40 376.96,330.50C377.47,386.60 377.91,437.62 377.94,443.88C378.00,455.25 378.00,455.25 392.25,454.75zM366.89,453.93C370.29,454.00 370.29,454.00 369.55,341.75C369.14,280.01 368.46,228.87 368.03,228.10C367.48,227.10 366.95,227.67 366.19,230.10C365.60,231.97 363.75,238.45 362.07,244.50C360.39,250.55 357.50,261.11 355.64,267.96C353.79,274.81 351.77,280.58 351.16,280.78C350.55,280.98 347.49,279.32 344.36,277.07C341.23,274.83 337.95,273.00 337.07,273.00C335.96,273.00 332.43,279.60 325.52,294.59C320.04,306.46 314.96,317.05 314.21,318.11C313.47,319.17 312.44,319.77 311.93,319.46C311.42,319.14 311.00,317.76 311.00,316.40C311.00,315.03 312.63,309.54 314.63,304.21C316.62,298.87 320.67,289.29 323.63,282.92C326.58,276.55 328.99,270.70 328.99,269.92C328.98,269.14 325.69,266.36 321.67,263.75C317.66,261.14 313.85,259.00 313.22,259.00C312.59,259.00 309.67,262.26 306.73,266.25C303.79,270.24 299.01,276.88 296.11,281.00C293.22,285.12 285.42,296.57 278.79,306.43C267.73,322.87 266.62,324.20 265.36,322.48C264.61,321.45 264.25,319.68 264.57,318.55C264.89,317.42 266.86,312.90 268.94,308.50C271.02,304.10 275.90,295.77 279.79,290.00C283.67,284.23 290.92,273.88 295.91,267.00C300.89,260.12 304.86,253.84 304.73,253.04C304.60,252.23 302.24,249.87 299.49,247.79C296.75,245.71 293.93,244.01 293.24,244.01C292.54,244.00 290.34,246.56 288.33,249.69C286.33,252.83 282.99,259.01 280.90,263.44C278.82,267.87 277.09,270.76 277.06,269.86C277.03,268.95 277.90,265.29 279.01,261.72C280.11,258.15 282.62,251.69 284.58,247.36C286.55,243.04 290.58,236.27 293.55,232.32C296.51,228.37 303.67,220.40 309.46,214.61C315.25,208.82 326.30,198.83 334.03,192.41C341.75,185.99 347.86,180.53 347.61,180.28C347.36,180.03 342.82,181.72 337.53,184.04C332.24,186.36 325.12,190.05 321.71,192.25C318.29,194.45 311.67,199.30 307.00,203.02C302.32,206.74 294.59,213.83 289.82,218.78C285.05,223.73 278.18,231.77 274.57,236.64C270.95,241.51 265.33,250.73 262.08,257.11C258.83,263.50 254.81,273.18 253.14,278.61C251.48,284.05 249.31,292.32 248.33,297.00C247.00,303.33 246.54,310.09 246.53,323.50C246.52,337.31 246.95,343.48 248.36,350.00C249.38,354.68 251.34,362.10 252.71,366.50C254.08,370.90 257.27,378.51 259.79,383.41C262.31,388.32 266.92,395.74 270.03,399.91C273.14,404.09 279.57,411.22 284.33,415.76C289.08,420.30 297.14,426.76 302.24,430.11C307.33,433.46 315.55,438.12 320.50,440.47C325.45,442.83 333.22,445.97 337.77,447.47C342.32,448.96 349.97,451.01 354.77,452.02C359.57,453.03 365.03,453.89 366.89,453.93zM503.96,309.00C503.46,309.00 502.39,307.99 501.60,306.75C500.80,305.51 499.22,301.70 498.07,298.28C496.93,294.86 496.00,290.25 496.00,288.03C496.00,285.81 496.42,284.00 496.93,284.00C497.44,284.00 498.74,285.24 499.80,286.75C500.87,288.26 502.71,291.43 503.91,293.78C505.10,296.14 506.11,300.03 506.16,302.43C506.21,304.83 505.94,307.29 505.57,307.89C505.19,308.50 504.47,309.00 503.96,309.00zM348.58,272.96C349.18,272.98 350.67,267.85 351.90,261.56C353.13,255.26 356.53,241.65 359.45,231.31C362.37,220.96 365.27,209.35 365.90,205.50C366.53,201.65 367.38,193.41 367.80,187.19C368.21,180.97 368.37,175.70 368.15,175.48C367.93,175.26 366.34,175.80 364.62,176.68C362.91,177.56 357.45,181.34 352.50,185.07C347.55,188.80 339.00,195.57 333.50,200.12C328.00,204.66 318.10,213.83 311.50,220.50C304.90,227.16 298.72,234.00 297.76,235.69C296.02,238.77 296.02,238.77 309.91,247.41C317.55,252.16 329.13,259.84 335.65,264.48C342.17,269.12 347.99,272.93 348.58,272.96zM435.12,246.00C434.62,246.00 433.96,245.33 433.64,244.50C433.32,243.68 433.95,240.19 435.04,236.75C436.12,233.31 438.24,228.28 439.75,225.57C441.26,222.86 443.06,220.46 443.75,220.23C444.47,220.00 445.00,220.69 445.00,221.87C445.00,222.98 443.88,227.41 442.52,231.70C441.15,235.99 439.13,240.96 438.03,242.75C436.93,244.54 435.62,246.00 435.12,246.00z" />

</svg>