<?xml version="1.0" encoding="UTF-8" standalone="no"?>
<svg 
  version="1.1" 
  xmlns="http://www.w3.org/2000/svg" 
  xmlns:xlink="http://www.w3.org/1999/xlink" 
  xmlns:svg="http://www.w3.org/2000/svg"
  xmlns:rdf="http://www.w3.org/1999/02/22-rdf-syntax-ns#"
  xmlns:cc="http://creativecommons.org/ns#"
  xmlns:dc="http://purl.org/dc/elements/1.1/"
  viewBox="0 0 768 768"
  width="768"
  height="768"
>
<style>svg {background-color: white; }</style>"
<metadata id="metadata1">
Created by https://svgstud.io and licensed under CC-BY-SA 4.0 license. Please attribute https://svgstud.io
</metadata>
<metadata id="prompt">
Create an SVG only containing the text "MAX"
</metadata>
<metadata id="version">
7
</metadata>
<metadata id="metadata2">
<rdf:RDF>
<cc:Work
    rdf:about="">
    <cc:license
    rdf:resource="http://creativecommons.org/licenses/by-sa/4.0/" />
    <dc:creator>
        <cc:Agent>
            <dc:title>https://svgstud.io</dc:title>
        </cc:Agent>
    </dc:creator>
</cc:Work>
<cc:License
    rdf:about="http://creativecommons.org/licenses/by-sa/4.0/">
    <cc:permits
    rdf:resource="http://creativecommons.org/ns#Reproduction" />
    <cc:permits
    rdf:resource="http://creativecommons.org/ns#Distribution" />
    <cc:requires
    rdf:resource="http://creativecommons.org/ns#Notice" />
    <cc:requires
    rdf:resource="http://creativecommons.org/ns#Attribution" />
    <cc:permits
    rdf:resource="http://creativecommons.org/ns#DerivativeWorks" />
    <cc:requires
    rdf:resource="http://creativecommons.org/ns#ShareAlike" />
</cc:License>
</rdf:RDF>
</metadata>
<metadata id="uid">
35aff7cd6953931e57f168e43ba278fd6777dc4295a4b166e1dd5ce4242b38fa
</metadata>
<path stroke="none" fill="black" fill-rule="evenodd" d="M313.50,601.67C306.37,602.09 304.09,601.88 302.50,600.66C300.92,599.46 300.76,598.87 301.72,597.90C302.39,597.22 310.36,595.40 319.43,593.87C328.50,592.33 339.85,589.93 344.66,588.54C349.48,587.14 354.22,586.00 355.21,586.00C356.19,586.00 357.00,586.60 357.00,587.33C357.00,588.05 355.99,589.60 354.75,590.75C353.51,591.91 350.24,593.74 347.47,594.82C344.71,595.91 337.96,597.77 332.47,598.97C326.99,600.17 318.45,601.39 313.50,601.67zM378.50,580.58C364.74,580.84 357.62,580.55 352.67,579.52C348.91,578.74 343.85,576.93 341.43,575.51C339.00,574.09 336.29,571.53 335.41,569.83C334.20,567.50 333.90,564.58 334.16,557.97C334.43,551.05 334.90,548.76 336.43,547.08C337.49,545.91 341.31,544.06 344.93,542.97C348.54,541.88 355.55,540.43 360.50,539.73C369.50,538.46 369.50,538.46 370.24,502.48C370.65,482.69 370.80,465.99 370.57,465.38C370.34,464.76 367.54,463.93 364.33,463.55C361.12,463.16 354.27,461.94 349.09,460.83C343.92,459.73 335.18,457.25 329.67,455.34C324.16,453.42 316.69,450.35 313.08,448.52C309.46,446.69 302.82,442.78 298.33,439.84C293.83,436.91 286.27,431.17 281.53,427.09C276.79,423.01 270.15,416.26 266.78,412.09C263.42,407.92 258.67,401.42 256.22,397.66C253.78,393.90 250.28,387.55 248.43,383.56C246.59,379.57 243.97,372.91 242.62,368.78C241.27,364.64 239.40,356.68 238.47,351.10C237.11,342.98 236.87,336.92 237.28,320.72C237.66,305.71 238.31,298.14 239.80,291.34C240.90,286.30 243.94,276.85 246.54,270.34C249.15,263.83 253.52,254.45 256.25,249.50C258.99,244.55 263.76,236.90 266.86,232.50C269.96,228.10 278.80,218.20 286.50,210.49C294.33,202.65 304.47,193.69 309.50,190.14C314.45,186.65 323.90,181.17 330.50,177.95C337.10,174.73 345.20,171.21 348.50,170.13C351.80,169.05 357.88,167.48 362.00,166.63C366.12,165.79 373.77,164.57 379.00,163.92C384.64,163.23 393.98,162.99 402.00,163.33C409.43,163.65 419.77,164.80 425.00,165.90C430.23,167.00 438.46,169.25 443.29,170.90C448.13,172.55 455.33,175.48 459.29,177.40C463.26,179.32 470.55,183.54 475.50,186.76C480.45,189.99 488.32,195.84 493.00,199.76C497.68,203.68 504.52,210.24 508.21,214.33C511.91,218.43 517.47,225.32 520.57,229.64C523.68,233.96 528.86,242.90 532.09,249.50C535.32,256.10 539.56,266.39 541.50,272.37C543.45,278.35 545.76,287.35 546.63,292.37C547.83,299.30 548.10,305.72 547.73,319.00C547.32,333.68 546.83,338.06 544.65,346.17C543.22,351.49 540.21,360.46 537.95,366.11C535.70,371.76 532.03,379.56 529.78,383.44C527.54,387.33 523.45,393.65 520.69,397.50C517.94,401.35 512.49,408.07 508.59,412.42C504.69,416.78 497.45,423.73 492.50,427.86C487.55,431.98 479.80,437.78 475.28,440.72C470.76,443.67 463.75,447.60 459.69,449.44C455.64,451.29 448.09,454.16 442.91,455.81C437.73,457.46 429.78,459.61 425.24,460.58C416.97,462.35 416.97,462.35 417.24,497.42C417.50,532.50 417.50,532.50 422.00,532.74C424.48,532.87 428.83,533.46 431.69,534.05C434.54,534.64 438.37,536.11 440.19,537.33C442.01,538.54 444.32,541.11 445.32,543.02C446.77,545.81 447.03,547.92 446.59,553.66C446.29,557.59 445.53,561.94 444.91,563.30C444.28,564.67 442.46,566.76 440.85,567.96C439.24,569.15 435.00,571.22 431.44,572.56C427.88,573.90 418.79,576.17 411.23,577.61C400.22,579.71 393.74,580.30 378.50,580.58zM367.50,571.84C371.90,571.92 380.90,571.51 387.50,570.93C394.10,570.35 404.68,569.00 411.00,567.92C417.32,566.85 424.75,565.32 427.50,564.53C430.25,563.74 433.37,562.45 434.43,561.68C435.86,560.63 436.47,558.69 436.79,554.17C437.04,550.82 436.96,546.99 436.63,545.66C436.28,544.26 434.79,542.74 433.06,542.02C430.74,541.06 428.41,541.05 422.30,541.98C418.01,542.64 413.04,543.41 411.25,543.69C408.57,544.13 407.99,543.89 407.97,542.36C407.95,541.34 407.96,523.06 408.00,501.74C408.06,462.99 408.06,462.99 396.28,463.58C389.80,463.90 383.93,464.34 383.23,464.56C382.23,464.87 381.97,473.67 382.02,506.19C382.09,546.86 382.06,547.43 380.04,548.18C378.91,548.60 370.77,549.25 361.94,549.63C347.28,550.25 345.77,550.49 344.45,552.38C343.65,553.51 343.00,556.08 343.00,558.07C343.00,560.07 343.49,563.10 344.08,564.80C344.89,567.12 346.20,568.28 349.33,569.42C351.62,570.26 354.85,571.11 356.50,571.32C358.15,571.53 363.10,571.76 367.50,571.84zM289.97,506.00C289.38,506.00 287.80,504.81 286.45,503.35C285.10,501.90 284.00,500.20 284.00,499.59C284.00,498.97 285.14,496.78 286.54,494.73C287.93,492.68 289.46,491.00 289.93,491.00C290.40,491.00 292.19,492.31 293.89,493.90C295.60,495.50 296.99,497.41 296.97,498.15C296.95,498.89 295.61,500.96 293.98,502.75C292.36,504.54 290.55,506.00 289.97,506.00zM461.72,501.97C461.60,501.95 460.71,501.48 459.75,500.92C458.79,500.36 458.00,499.29 458.00,498.54C458.00,497.79 460.01,495.12 462.46,492.59C464.92,490.07 467.39,488.00 467.96,488.00C468.53,488.00 469.00,488.79 469.00,489.76C469.00,490.73 467.41,493.88 465.47,496.76C463.53,499.64 461.85,501.99 461.72,501.97zM327.58,497.00C327.30,497.00 326.60,496.12 326.02,495.05C325.17,493.45 325.55,492.45 328.09,489.55C329.81,487.60 331.59,486.00 332.07,486.00C332.54,486.00 333.42,486.92 334.02,488.04C334.62,489.16 334.83,490.96 334.48,492.05C334.14,493.13 332.56,494.69 330.98,495.51C329.40,496.33 327.87,497.00 327.58,497.00zM390.75,454.69C397.76,454.35 407.51,453.36 412.42,452.48C417.32,451.59 423.61,450.11 426.38,449.19C431.43,447.50 431.43,447.50 431.18,410.50C431.04,390.15 430.26,332.33 429.44,282.00C428.62,231.67 427.72,189.78 427.45,188.90C427.18,188.02 425.28,186.82 423.23,186.23C421.18,185.64 416.80,184.56 413.50,183.84C409.69,183.00 400.50,182.51 388.30,182.51C374.90,182.50 368.74,182.86 367.92,183.68C367.02,184.58 367.04,195.30 368.00,229.68C368.69,254.33 369.58,277.20 369.98,280.50C370.38,283.80 370.77,285.51 370.85,284.31C370.93,283.10 371.44,281.85 371.97,281.52C372.50,281.19 373.15,281.95 373.41,283.21C373.66,284.47 374.13,291.57 374.44,299.00C374.75,306.43 375.44,322.40 375.97,334.50C376.50,346.60 377.18,378.10 377.49,404.50C377.80,430.90 378.04,453.13 378.02,453.90C378.00,455.06 380.19,455.20 390.75,454.69zM368.14,453.90C369.60,453.95 370.95,453.44 371.16,452.75C371.36,452.06 371.24,441.15 370.89,428.50C370.53,415.85 370.19,393.56 370.12,378.96C370.00,352.42 370.00,352.42 365.25,347.80C362.64,345.26 354.20,338.16 346.50,332.01C338.80,325.87 326.64,316.94 319.48,312.17C312.33,307.40 302.12,301.25 296.81,298.50C291.50,295.76 286.86,293.81 286.49,294.18C286.12,294.55 286.53,310.75 287.39,330.17C288.26,349.60 289.25,371.63 289.59,379.13C289.97,387.34 289.84,392.98 289.26,393.34C288.74,393.66 286.92,392.48 285.22,390.71C282.12,387.50 282.12,387.50 281.05,358.50C280.46,342.55 279.68,321.02 279.33,310.66C278.81,295.55 278.39,291.70 277.23,291.26C276.43,290.95 274.52,291.44 272.98,292.35C271.45,293.26 269.47,294.00 268.60,294.00C267.48,294.00 267.00,293.07 267.00,290.90C267.00,289.20 267.62,286.38 268.38,284.65C269.14,282.92 270.78,278.35 272.01,274.50C273.25,270.65 276.15,263.43 278.46,258.46C280.78,253.48 284.61,246.06 286.99,241.96C289.37,237.86 294.12,230.90 297.57,226.50C301.01,222.10 307.35,215.05 311.66,210.83C315.97,206.61 323.77,199.97 328.99,196.07C334.20,192.18 342.53,186.96 347.49,184.47C352.73,181.83 359.61,179.30 363.93,178.42C368.74,177.43 376.84,176.91 386.93,176.92C396.48,176.94 405.98,177.55 411.50,178.51C416.45,179.38 423.44,180.95 427.03,182.02C430.61,183.08 434.38,184.56 435.40,185.30C436.96,186.45 437.07,187.01 436.05,188.90C435.23,190.44 435.03,194.20 435.42,200.82C435.74,206.15 436.50,262.48 437.12,326.00C437.74,389.52 438.38,441.65 438.54,441.83C438.70,442.02 443.48,438.92 449.17,434.95C454.85,430.97 462.88,424.92 467.00,421.48C471.12,418.05 478.22,411.36 482.77,406.62C487.32,401.88 492.38,395.89 494.02,393.31C497.00,388.61 497.00,388.61 497.00,349.54C497.00,328.05 496.56,296.53 496.01,279.49C495.47,262.44 494.79,246.25 494.50,243.50C493.97,238.50 493.97,238.50 497.41,242.16C499.30,244.17 501.33,247.52 501.90,249.62C502.48,251.71 503.47,271.89 504.10,294.46C504.73,317.03 505.01,344.39 504.72,355.25C504.43,366.11 504.50,375.00 504.88,375.00C505.27,375.00 506.99,372.54 508.72,369.52C510.45,366.51 513.87,358.98 516.32,352.77C518.77,346.57 521.95,336.77 523.38,331.00C524.80,325.23 526.71,315.77 527.60,310.00C528.50,304.23 529.26,294.32 529.29,288.00C529.33,278.32 528.92,275.13 526.70,267.84C525.25,263.08 522.83,256.56 521.33,253.34C519.82,250.13 516.25,243.57 513.38,238.77C510.52,233.97 507.30,228.93 506.23,227.56C505.15,226.20 501.65,222.11 498.45,218.48C495.24,214.85 488.54,208.58 483.56,204.55C478.58,200.53 471.35,195.30 467.50,192.95C463.65,190.60 456.00,186.52 450.50,183.89C445.00,181.26 435.55,177.73 429.50,176.03C422.80,174.16 413.72,172.51 406.28,171.83C397.11,170.98 391.20,170.99 382.58,171.86C376.27,172.50 365.83,174.36 359.39,175.99C350.93,178.12 344.03,180.75 334.59,185.44C327.39,189.01 317.90,194.67 313.50,198.01C309.10,201.35 302.00,207.26 297.72,211.14C293.44,215.02 286.88,221.86 283.13,226.34C279.38,230.83 274.38,237.38 272.02,240.90C269.66,244.42 266.20,250.00 264.33,253.29C262.47,256.59 259.63,262.28 258.03,265.94C256.42,269.60 253.76,277.30 252.12,283.05C250.48,288.80 248.58,297.10 247.90,301.50C247.22,305.90 246.66,317.15 246.66,326.50C246.67,338.90 247.14,345.66 248.40,351.50C249.36,355.90 251.49,363.55 253.13,368.50C254.77,373.45 258.15,381.13 260.64,385.57C263.13,390.02 267.36,396.59 270.05,400.18C272.74,403.77 279.19,410.76 284.38,415.73C289.57,420.69 297.57,427.22 302.16,430.24C306.75,433.26 313.65,437.29 317.50,439.20C321.35,441.11 326.98,443.62 330.00,444.79C333.02,445.95 338.75,447.87 342.73,449.04C346.70,450.22 353.45,451.77 357.73,452.49C362.00,453.21 366.69,453.84 368.14,453.90zM451.69,442.00C452.62,442.00 457.59,439.67 462.73,436.82C467.87,433.97 476.75,427.90 482.46,423.32C488.17,418.75 496.37,411.14 500.67,406.42C504.98,401.69 511.15,394.16 514.39,389.66C517.63,385.17 522.66,376.55 525.57,370.50C528.48,364.45 532.03,355.90 533.45,351.50C534.88,347.10 536.76,339.23 537.62,334.00C538.69,327.52 539.06,320.52 538.77,311.97C538.53,305.07 537.87,298.59 537.29,297.55C536.26,295.72 536.22,295.72 535.66,297.59C535.35,298.64 534.39,304.59 533.54,310.81C532.69,317.03 531.29,325.51 530.44,329.65C529.58,333.79 527.61,341.09 526.05,345.86C524.49,350.63 520.86,359.39 517.98,365.34C515.11,371.29 510.05,380.28 506.73,385.33C503.42,390.37 498.12,397.65 494.95,401.50C491.77,405.35 486.10,411.48 482.34,415.12C478.58,418.77 472.10,424.39 467.95,427.62C463.80,430.86 458.06,435.07 455.20,437.00C452.34,438.93 450.00,440.84 450.00,441.25C450.00,441.66 450.76,442.00 451.69,442.00zM537.59,427.00C536.28,427.00 534.97,426.38 534.68,425.61C534.39,424.85 534.82,423.28 535.63,422.11C536.45,420.95 537.74,420.00 538.50,420.00C539.26,420.00 540.18,420.48 540.54,421.06C540.89,421.64 540.91,423.21 540.58,424.56C540.14,426.29 539.27,427.00 537.59,427.00zM468.79,351.46C466.40,354.23 466.22,354.28 465.28,352.44C464.68,351.28 463.76,321.92 462.99,279.24C462.27,240.04 461.93,207.73 462.23,207.44C462.53,207.14 464.04,207.99 465.60,209.33C468.42,211.76 468.42,211.76 469.12,231.13C469.50,241.78 470.15,272.56 470.56,299.52C471.30,348.53 471.30,348.53 468.79,351.46zM368.24,337.35C368.66,337.09 369.00,334.93 369.00,332.55C369.00,329.25 368.22,327.14 365.75,323.71C363.96,321.24 358.90,315.03 354.50,309.92C350.10,304.81 342.90,296.53 338.50,291.51C334.10,286.49 323.98,275.32 316.00,266.69C308.02,258.06 301.10,251.00 300.61,251.00C300.11,251.00 300.00,253.73 300.36,257.15C300.71,260.53 301.01,269.64 301.02,277.40C301.04,291.50 301.04,291.50 311.21,297.00C316.81,300.02 327.05,306.42 333.97,311.22C340.90,316.01 351.27,323.96 357.02,328.88C362.78,333.79 367.83,337.61 368.24,337.35zM363.19,307.00C363.91,307.00 364.06,304.48 363.64,299.25C363.30,294.99 362.57,283.18 362.01,273.00C361.46,262.82 360.54,239.45 359.97,221.04C359.39,202.64 358.73,187.40 358.49,187.16C358.26,186.92 356.59,187.34 354.78,188.08C352.98,188.82 348.80,190.94 345.50,192.80C342.20,194.65 335.94,198.72 331.58,201.83C327.23,204.95 319.10,212.00 313.51,217.50C307.92,223.00 302.12,229.37 300.61,231.65C298.31,235.13 298.06,236.11 299.08,237.65C299.74,238.67 303.12,241.97 306.58,245.00C310.05,248.03 317.97,255.93 324.19,262.56C330.41,269.19 339.32,279.02 343.99,284.41C348.66,289.80 354.65,297.08 357.30,300.60C359.95,304.12 362.60,307.00 363.19,307.00zM291.25,287.91C292.76,287.96 294.03,287.66 294.07,287.25C294.10,286.84 294.35,277.53 294.60,266.57C294.86,255.60 294.83,245.99 294.52,245.20C294.07,244.02 293.71,244.00 292.40,245.08C291.54,245.80 289.07,249.89 286.92,254.16C284.77,258.44 281.21,266.46 279.00,271.99C276.80,277.52 275.00,282.69 275.00,283.47C275.00,284.35 276.46,285.16 278.75,285.55C280.81,285.91 283.85,286.56 285.50,287.01C287.15,287.45 289.74,287.86 291.25,287.91z" />

</svg>