<?xml version="1.0" encoding="UTF-8" standalone="no"?>
<svg
   version="1.1"
   viewBox="0 0 768 768"
   width="768"
   height="768"
   id="svg1"
   sodipodi:docname="robot.svg"
   inkscape:version="1.4 (86a8ad7, 2024-10-11)"
   xmlns:inkscape="http://www.inkscape.org/namespaces/inkscape"
   xmlns:sodipodi="http://sodipodi.sourceforge.net/DTD/sodipodi-0.dtd"
   xmlns="http://www.w3.org/2000/svg"
   xmlns:svg="http://www.w3.org/2000/svg"
   xmlns:rdf="http://www.w3.org/1999/02/22-rdf-syntax-ns#"
   xmlns:cc="http://creativecommons.org/ns#"
   xmlns:dc="http://purl.org/dc/elements/1.1/"><defs
   id="defs1" />
<sodipodi:namedview
   id="namedview1"
   pagecolor="#ffffff"
   bordercolor="#000000"
   borderopacity="0.25"
   inkscape:showpageshadow="2"
   inkscape:pageopacity="0.0"
   inkscape:pagecheckerboard="0"
   inkscape:deskcolor="#d1d1d1"
   inkscape:zoom="0.76302083"
   inkscape:cx="383.34471"
   inkscape:cy="386.62116"
   inkscape:window-width="1440"
   inkscape:window-height="830"
   inkscape:window-x="-6"
   inkscape:window-y="-6"
   inkscape:window-maximized="1"
   inkscape:current-layer="svg1"
   showgrid="false" />
<style
   id="style1">svg {background-color: white; }</style>

&quot;
<metadata
   id="metadata1">
Created by https://svgstud.io and licensed under CC-BY-SA 4.0 license. Please attribute https://svgstud.io
</metadata>
<metadata
   id="prompt">
Draw a robot
</metadata>
<metadata
   id="version">
7
</metadata>
<metadata
   id="metadata2">
  <rdf:RDF>
    <cc:Work
       rdf:about="">
      <cc:license
         rdf:resource="http://creativecommons.org/licenses/by-sa/4.0/" />
      <dc:creator>
        <cc:Agent>
          <dc:title>https://svgstud.io</dc:title>
        </cc:Agent>
      </dc:creator>
    </cc:Work>
    <cc:License
       rdf:about="http://creativecommons.org/licenses/by-sa/4.0/">
      <cc:permits
         rdf:resource="http://creativecommons.org/ns#Reproduction" />
      <cc:permits
         rdf:resource="http://creativecommons.org/ns#Distribution" />
      <cc:requires
         rdf:resource="http://creativecommons.org/ns#Notice" />
      <cc:requires
         rdf:resource="http://creativecommons.org/ns#Attribution" />
      <cc:permits
         rdf:resource="http://creativecommons.org/ns#DerivativeWorks" />
      <cc:requires
         rdf:resource="http://creativecommons.org/ns#ShareAlike" />
    </cc:License>
  </rdf:RDF>
</metadata>
<metadata
   id="uid">
ec096953e7c32db9e85e802d5d3d066cc1ac3ea4fff198086df98fdd1c5f2c5f
</metadata>
<path
   d="m 293.98,106 c -0.7,0 -0.66,-0.75 0.12,-2.25 0.64,-1.24 2.6,-4.05 4.36,-6.25 1.75,-2.2 5.02,-6.7 7.26,-10 2.24,-3.3 5.6,-7.76 7.47,-9.9 1.88,-2.15 3.92,-3.72 4.55,-3.5 0.65,0.23 -1.46,3.86 -4.88,8.4 -3.32,4.4 -6.7,9.28 -7.52,10.84 -0.82,1.57 -1.22,3.11 -0.89,3.44 0.32,0.33 10.82,-1.27 23.32,-3.56 12.5,-2.28 28.07,-4.87 34.61,-5.76 7.92,-1.07 12.21,-1.27 12.87,-0.61 0.67,0.67 -0.29,1.34 -2.87,2.01 -2.14,0.55 -8.61,1.91 -14.38,3.03 -5.77,1.12 -18.15,3.37 -27.5,5.01 -9.35,1.63 -19.02,3.26 -21.5,3.62 -2.48,0.36 -6.63,1.73 -9.23,3.06 -2.6,1.33 -5.21,2.42 -5.79,2.42 z"
   id="path83"
   style="fill:none;stroke:#000000;stroke-opacity:1" />
<path
   d="m 278.59,122.65 c 7.1,-0.36 27.53,-1.14 45.41,-1.73 23.13,-0.76 43.41,-0.76 70.33,0.01 20.81,0.59 39.94,1.05 42.5,1.03 4.19,-0.03 4.96,-0.41 7.47,-3.72 1.54,-2.03 8.24,-9.7 14.89,-17.04 10.31,-11.36 11.89,-13.54 10.7,-14.71 -0.76,-0.76 -6.36,-3.82 -12.43,-6.82 -6.06,-2.99 -13.26,-6.28 -16,-7.31 -4.65,-1.75 -8.87,-1.86 -68.46,-1.79 -48,0.05 -64.41,0.37 -67.21,1.31 -2.81,0.94 -5.41,3.38 -10.6,9.94 -3.78,4.77 -11.71,15.36 -17.61,23.53 -5.89,8.17 -10.99,15.55 -11.31,16.4 -0.53,1.37 0.9,1.47 12.32,0.9 z"
   id="path82"
   style="fill:none;stroke:#000000;stroke-opacity:1" />
<path
   d="m 255.5,156.76 c 1.82,-0.24 2,-1.01 2,-8.76 0,-4.68 -0.35,-18.4 -0.78,-30.5 -0.43,-12.1 -1.05,-24.03 -1.38,-26.5 -0.32,-2.47 -1.25,-5.26 -2.06,-6.19 -1.31,-1.49 -1.29,-1.95 0.12,-3.97 1,-1.43 1.6,-4.37 1.6,-7.86 0,-3.07 -0.54,-6.12 -1.2,-6.78 -0.66,-0.66 -1.75,-1.2 -2.43,-1.2 -0.67,0 -1.93,0.71 -2.8,1.57 -1.02,1.03 -1.57,3.38 -1.57,6.78 0,3.13 0.63,6.11 1.59,7.47 1.27,1.82 1.34,2.56 0.34,3.76 -0.95,1.15 -1.07,6.73 -0.52,24.21 0.4,12.49 1.06,28.03 1.47,34.54 0.54,8.52 1.15,12.08 2.19,12.75 0.78,0.51 2.33,0.82 3.43,0.68 z"
   id="path81"
   style="fill:none;stroke:#000000;stroke-opacity:1" />
<path
   d="m 412.85,183 c 0.53,0 2.14,-1.38 3.56,-3.08 1.43,-1.69 2.87,-4.2 3.22,-5.57 0.34,-1.37 0.13,-3.59 -0.48,-4.92 -0.63,-1.38 -1.96,-2.43 -3.08,-2.43 -1.46,0 -2.11,0.85 -2.48,3.25 -0.28,1.79 -0.77,5.39 -1.11,8 -0.36,2.83 -0.21,4.75 0.37,4.75 z"
   id="path80"
   style="fill:none;stroke:#000000;stroke-opacity:1" />
<path
   d="m 396.75,188.96 c 1.24,0.02 2.25,-0.19 2.25,-0.47 0,-0.29 -1.44,-1.81 -3.21,-3.39 -2.92,-2.61 -3.25,-3.49 -3.6,-9.79 -0.36,-6.36 -0.17,-7.18 2.34,-10.16 1.5,-1.78 4.8,-4.3 7.35,-5.6 4.62,-2.37 4.62,-2.37 1.83,-3.08 -1.53,-0.39 -4.12,-0.44 -5.76,-0.11 -1.63,0.33 -4.36,1.62 -6.06,2.87 -1.7,1.25 -4.17,4.11 -5.49,6.36 -1.66,2.82 -2.4,5.61 -2.4,9 0.01,3.16 0.73,6.09 2.02,8.22 1.11,1.82 3.47,3.94 5.25,4.71 1.78,0.77 4.24,1.42 5.48,1.44 z"
   id="path79"
   style="fill:none;stroke:#000000;stroke-opacity:1" />
<path
   d="m 312.03,189 c 0.62,0 2.44,-1.32 4.05,-2.92 2.28,-2.29 2.92,-3.83 2.92,-7.04 0,-2.26 -0.61,-5.55 -1.36,-7.32 -0.75,-1.77 -2.27,-4.03 -3.37,-5.01 -2,-1.78 -2.02,-1.74 -1.89,6.5 0.06,4.56 -0.24,9.98 -0.68,12.04 -0.54,2.58 -0.44,3.75 0.33,3.75 z"
   id="path78"
   style="fill:none;stroke:#000000;stroke-opacity:1" />
<path
   d="m 351.5,189.85 c -0.55,-0.04 -1.79,-0.29 -2.75,-0.54 -0.96,-0.25 -1.75,-0.89 -1.75,-1.41 0,-0.53 1.4,-3.73 3.12,-7.13 2.9,-5.75 3.21,-6.04 4.51,-4.27 0.76,1.05 1.81,3.43 2.32,5.3 0.84,3.02 0.65,3.65 -1.75,5.76 -1.49,1.31 -3.15,2.34 -3.7,2.29 z"
   id="path77"
   style="fill:none;stroke:#000000;stroke-opacity:1" />
<path
   d="m 403.78,192.49 c -3.46,0.23 -8.27,-0.05 -10.71,-0.63 -2.44,-0.58 -5.45,-1.72 -6.7,-2.54 -1.25,-0.82 -3.42,-3.79 -4.82,-6.6 -1.48,-2.97 -2.55,-6.81 -2.54,-9.17 0.01,-2.23 1.08,-6.3 2.38,-9.05 1.3,-2.75 3.88,-6.44 5.74,-8.2 1.85,-1.76 5.04,-3.9 7.09,-4.75 2.04,-0.85 5.64,-1.54 8,-1.53 2.35,0.01 6.13,0.86 8.38,1.89 2.26,1.02 5.74,3.5 7.74,5.5 2.01,2 4.55,5.41 5.65,7.58 1.11,2.16 2.01,5.24 2.01,6.85 0,1.6 -0.73,4.66 -1.61,6.79 -0.89,2.13 -2.54,5.16 -3.66,6.75 -1.13,1.58 -3.99,3.73 -6.36,4.78 -2.38,1.05 -7.14,2.1 -10.59,2.33 z"
   id="path76"
   style="fill:none;stroke:#000000;stroke-opacity:1" />
<path
   d="m 292.26,193 c -1.16,0 -3.46,-1.14 -5.11,-2.53 -1.65,-1.39 -3.76,-4.51 -4.69,-6.94 -1.21,-3.16 -1.58,-6.53 -1.31,-11.91 0.33,-6.37 0.83,-8.13 3.37,-11.71 1.64,-2.32 4.19,-5.12 5.66,-6.21 1.89,-1.4 4.24,-1.98 8,-1.97 2.93,0 6.89,0.68 8.82,1.49 1.93,0.82 5.46,3.4 7.85,5.73 2.39,2.33 5.52,6.78 6.95,9.89 1.82,3.94 2.62,7.4 2.65,11.39 0.05,5.16 -0.27,6.05 -3.22,9 -3.1,3.1 -3.71,3.29 -11.77,3.62 -6.11,0.26 -8.97,-0.02 -10.15,-1 -0.91,-0.74 -2.92,-3.35 -4.48,-5.8 -1.56,-2.44 -2.83,-5.55 -2.83,-6.9 0,-2.4 0.05,-2.41 2,-0.65 1.96,1.77 2,1.75 2,-1.1 0,-1.6 0.45,-4.48 1,-6.4 0.55,-1.92 2.57,-4.93 4.5,-6.69 1.92,-1.77 3.5,-3.67 3.5,-4.22 0,-0.56 -0.87,-1.49 -1.93,-2.05 -1.07,-0.57 -3.09,-1.04 -4.5,-1.04 -1.53,0 -4.13,1.42 -6.44,3.5 -2.56,2.31 -4.3,5.02 -5.13,8 -0.78,2.8 -1,6.45 -0.57,9.67 0.38,2.85 1.16,6.11 1.75,7.25 0.59,1.15 2.22,3.32 3.63,4.83 2.47,2.65 2.49,2.75 0.45,2.75 z"
   id="path75"
   style="fill:none;stroke:#000000;stroke-opacity:1" />
<path
   d="m 433,197.5 c -0.55,1.28 -0.91,-2.31 -0.99,-10 -0.08,-6.6 -0.36,-20.8 -0.62,-31.55 -0.26,-10.75 -0.13,-20.43 0.29,-21.5 0.61,-1.52 0.93,-0.96 1.48,2.55 0.38,2.47 0.69,16.65 0.7,31.5 0,14.85 -0.39,27.9 -0.86,29 z"
   id="path74"
   style="fill:none;stroke:#000000;stroke-opacity:1" />
<path
   d="m 252.09,192 c 0.41,-10.54 1.15,-17.22 2.33,-20.87 1.19,-3.69 1.41,-5.7 0.7,-6.41 -0.71,-0.71 -1.97,-0.02 -4.03,2.18 -1.65,1.77 -4.23,5.74 -5.74,8.82 -2.21,4.52 -2.73,6.9 -2.64,12.25 0.05,3.65 0.76,8.19 1.56,10.08 0.81,1.9 2.76,4.8 4.35,6.45 2.88,3 2.88,3 3.47,-12.5 z"
   id="path73"
   style="fill:none;stroke:#000000;stroke-opacity:1" />
<path
   d="m 498.14,208 c 0.68,0 0.82,-0.85 0.38,-2.25 -0.39,-1.24 -1.37,-5.15 -2.17,-8.69 -1.15,-5.14 -1.22,-7.87 -0.35,-13.48 0.6,-3.86 2.23,-9.56 3.62,-12.67 1.39,-3.1 4.5,-7.58 6.91,-9.94 2.41,-2.37 4.15,-4.68 3.87,-5.14 -0.29,-0.45 -2.22,-0.83 -4.31,-0.83 -2.29,0 -5.14,0.9 -7.19,2.28 -1.87,1.26 -4.88,4.75 -6.69,7.75 -1.81,3.01 -4.23,8.56 -5.38,12.34 -1.65,5.39 -1.98,8.45 -1.55,14.16 0.3,4.01 1.15,8.34 1.89,9.63 1.23,2.17 1.35,1.91 1.63,-3.66 0.17,-3.3 0.74,-6.43 1.25,-6.95 0.6,-0.6 0.97,0.14 0.99,2 0.03,1.62 0.65,4.63 1.38,6.69 0.74,2.06 2.08,4.87 2.98,6.25 0.91,1.38 2.14,2.51 2.74,2.51 z"
   id="path72"
   style="fill:none;stroke:#000000;stroke-opacity:1" />
<path
   d="m 510.14,210.98 c 0.91,0.01 3.05,-1.29 4.77,-2.89 1.71,-1.6 4.45,-5.78 6.09,-9.28 1.72,-3.67 3.26,-8.97 3.62,-12.49 0.36,-3.36 0.32,-7.84 -0.08,-9.96 -0.73,-3.86 -0.73,-3.86 -2.59,-0.36 -1.03,1.93 -1.89,5.21 -1.91,7.3 -0.02,2.09 -0.77,5.24 -1.66,7 -0.89,1.76 -2.71,4.66 -4.04,6.44 -1.33,1.78 -3.32,3.71 -4.41,4.3 -1.74,0.93 -2.18,0.62 -3.46,-2.46 -0.81,-1.93 -1.46,-5.22 -1.45,-7.3 0,-2.08 0.49,-4.46 1.07,-5.28 0.69,-0.97 1.22,-1.11 1.52,-0.39 0.26,0.61 1.09,1.96 1.86,3 1.07,1.45 1.67,1.62 2.59,0.71 0.66,-0.64 1.3,-3.42 1.43,-6.16 0.16,-3.24 1.41,-7.39 3.58,-11.83 1.84,-3.75 3.5,-7.14 3.7,-7.52 0.19,-0.38 -0.57,-1.61 -1.71,-2.75 -1.13,-1.13 -2.79,-2.06 -3.69,-2.06 -0.9,0 -3.17,1.62 -5.04,3.61 -1.87,1.98 -4.29,5.35 -5.37,7.48 -1.09,2.13 -2.68,6.89 -3.54,10.59 -1.27,5.5 -1.35,7.91 -0.43,13.27 0.61,3.6 2.08,8.58 3.25,11.05 1.16,2.47 2.6,4.83 3.19,5.23 0.59,0.41 1.81,0.75 2.71,0.75 z"
   id="path71"
   style="fill:none;stroke:#000000;stroke-opacity:1" />
<path
   d="m 355.23,223.96 c 7.6,0.03 11.9,-0.43 14.75,-1.57 2.21,-0.88 4.02,-2.01 4.02,-2.5 0,-0.49 -8.35,-0.89 -18.56,-0.89 -13.23,0 -18.36,0.32 -17.88,1.1 0.37,0.6 2.09,1.71 3.81,2.46 1.98,0.86 7.09,1.38 13.86,1.4 z"
   id="path70"
   style="fill:none;stroke:#000000;stroke-opacity:1" />
<path
   d="m 361.07,229.49 c -4.17,0.22 -9.66,0.02 -12.21,-0.44 -2.55,-0.47 -6.37,-1.67 -8.49,-2.68 -2.12,-1 -5.99,-3.89 -8.61,-6.41 -2.62,-2.53 -4.76,-5.13 -4.76,-5.79 0,-0.9 4.09,-1.05 16.75,-0.59 9.21,0.33 21.93,0.17 28.25,-0.36 6.32,-0.52 12.06,-0.74 12.75,-0.48 0.69,0.26 1.25,1 1.25,1.65 0,0.64 -2.59,3.72 -5.75,6.84 -3.16,3.11 -7.07,6.16 -8.68,6.76 -1.62,0.61 -6.34,1.28 -10.5,1.5 z"
   id="path69"
   style="fill:none;stroke:#000000;stroke-opacity:1" />
<path
   d="m 291.19,235.97 c 1.68,0.02 3.29,-0.81 4.25,-2.19 0.86,-1.22 1.56,-3.82 1.56,-5.78 0,-1.96 -0.76,-4.67 -1.69,-6.03 -0.93,-1.36 -2.17,-2.8 -2.75,-3.2 -0.58,-0.41 -2.04,-0.75 -3.24,-0.75 -1.2,-0.01 -3.11,1.17 -4.25,2.61 -1.14,1.45 -2.07,3.96 -2.07,5.57 0,1.61 0.52,3.91 1.16,5.12 0.64,1.2 1.88,2.73 2.75,3.4 0.88,0.67 2.8,1.23 4.28,1.25 z"
   id="path68"
   style="fill:none;stroke:#000000;stroke-opacity:1" />
<path
   d="m 430.11,237 c 0.92,0 2.72,-0.85 4.01,-1.89 1.75,-1.42 2.33,-2.91 2.33,-5.92 0,-2.54 -0.69,-4.8 -1.88,-6.11 -1.03,-1.14 -2.49,-2.08 -3.22,-2.08 -0.74,0 -1.35,0.91 -1.35,2.03 0,1.12 -0.65,3.59 -1.45,5.5 -0.8,1.91 -2.15,3.47 -3,3.47 -0.85,0 -1.55,0.42 -1.55,0.94 0,0.52 1,1.65 2.22,2.5 1.22,0.86 2.98,1.56 3.89,1.56 z"
   id="path67"
   style="fill:none;stroke:#000000;stroke-opacity:1" />
<path
   d="m 431.32,241.98 c -2.1,-0.01 -5.72,-0.89 -8.05,-1.94 -2.44,-1.11 -5.08,-3.32 -6.25,-5.23 -1.13,-1.86 -2.01,-5.06 -2.01,-7.31 0,-2.21 0.87,-5.43 1.95,-7.2 1.07,-1.76 3.3,-3.9 4.95,-4.75 1.64,-0.85 4.39,-1.55 6.09,-1.55 1.7,0 4.39,0.67 5.97,1.48 1.58,0.82 3.76,2.74 4.85,4.26 1.08,1.53 2.49,4.69 3.12,7.03 0.98,3.66 0.87,4.87 -0.8,8.66 -1.08,2.42 -2.86,4.89 -3.98,5.48 -1.12,0.6 -3.75,1.08 -5.84,1.07 z"
   id="path66"
   style="fill:none;stroke:#000000;stroke-opacity:1" />
<path
   d="m 290.73,241.94 c -1.23,-0.04 -3.13,-0.44 -4.23,-0.9 -1.1,-0.46 -3.35,-2.26 -5,-4 -2.73,-2.89 -3,-3.78 -3,-10.03 0,-5.93 0.34,-7.21 2.5,-9.52 1.38,-1.48 3.77,-3.34 5.32,-4.15 1.75,-0.91 3.95,-1.22 5.78,-0.82 1.62,0.36 4.3,1.79 5.96,3.18 1.66,1.4 3.67,3.81 4.48,5.37 0.8,1.56 1.46,5.12 1.46,7.92 0,2.92 -0.66,6.09 -1.56,7.46 -0.86,1.31 -3.34,3.09 -5.52,3.97 -2.18,0.87 -4.96,1.55 -6.19,1.52 z"
   id="path65"
   style="fill:none;stroke:#000000;stroke-opacity:1" />
<path
   d="m 265.11,247 c 0.65,0 0.82,-1.92 0.46,-5.25 -0.32,-2.89 -1.23,-14.03 -2.03,-24.75 -0.8,-10.72 -1.74,-25.24 -2.1,-32.25 -0.35,-7.02 -0.98,-12.97 -1.4,-13.23 -0.42,-0.26 -1.31,2.78 -1.98,6.76 -0.91,5.43 -0.94,10.32 -0.14,19.72 0.58,6.88 1.71,19.78 2.5,28.69 0.79,8.9 1.94,17.11 2.55,18.25 0.6,1.13 1.57,2.06 2.14,2.06 z"
   id="path64"
   style="fill:none;stroke:#000000;stroke-opacity:1" />
<path
   d="m 470.37,249.41 c 1.17,-0.36 9.33,-3.55 18.13,-7.09 8.8,-3.54 16.56,-6.99 17.24,-7.66 0.69,-0.67 1.54,-4.69 1.9,-8.94 0.65,-7.72 0.65,-7.72 -2.18,-7.72 -1.55,0 -5.4,-0.72 -8.54,-1.6 -3.14,-0.88 -7.34,-2.95 -9.34,-4.59 -1.99,-1.65 -4.33,-4.36 -5.2,-6.03 -0.86,-1.68 -1.96,-5.77 -2.43,-9.11 -0.49,-3.48 -0.46,-9.12 0.07,-13.29 0.5,-3.98 1.83,-9.84 2.94,-13.02 1.12,-3.18 3.61,-8.15 5.53,-11.05 2.18,-3.27 5,-6.03 7.47,-7.29 2.37,-1.21 5.92,-2.02 8.82,-2.02 2.68,0 6.99,0.73 9.6,1.61 2.6,0.89 5.04,1.3 5.42,0.92 0.39,-0.38 0.84,-8.97 1.01,-19.08 0.31,-18.4 0.31,-18.4 -5,-21.79 -2.92,-1.86 -9.17,-5.48 -13.89,-8.03 -4.72,-2.54 -8.89,-4.33 -9.25,-3.96 -0.37,0.36 -0.67,10.28 -0.67,22.03 0,18.33 -0.22,21.45 -1.54,21.95 -0.85,0.33 -1.79,0.36 -2.08,0.06 -0.29,-0.29 -0.84,-9.61 -1.21,-20.72 -0.67,-20.19 -0.67,-20.19 -9.25,-9.84 -4.72,5.69 -9.4,11.61 -10.4,13.16 -1.64,2.51 -1.76,4.3 -1.18,17.5 0.36,8.08 0.67,34.26 0.7,58.18 0.02,23.92 0.3,44.52 0.62,45.78 0.45,1.79 1.03,2.15 2.71,1.64 z"
   id="path63"
   style="fill:none;stroke:#000000;stroke-opacity:1" />
<path
   d="m 455.89,254 c 1.04,0 2.92,-0.83 4.17,-1.85 2.28,-1.85 2.28,-1.85 1.15,-61.23 -1.03,-53.69 -1.3,-59.51 -2.82,-60.62 -1.54,-1.13 -1.44,-1.55 1.17,-5.02 1.57,-2.08 7.97,-9.77 14.23,-17.09 6.74,-7.88 11.16,-13.88 10.84,-14.71 -0.29,-0.76 -2.34,-2.31 -4.54,-3.43 -2.21,-1.13 -4.21,-2.05 -4.46,-2.05 -0.25,0 -3.51,3.71 -7.26,8.25 -3.74,4.54 -10.76,12.34 -15.59,17.35 -4.83,5 -8.78,9.37 -8.78,9.71 0,0.33 1.98,1.76 4.39,3.18 3.93,2.3 4.47,3.06 5.11,7.29 0.39,2.6 0.6,30.37 0.48,61.72 -0.13,31.35 -0.18,57.34 -0.11,57.75 0.07,0.41 0.98,0.75 2.02,0.75 z"
   id="path62"
   style="fill:none;stroke:#000000;stroke-opacity:1" />
<path
   d="m 391.61,255.85 c 27.01,0.08 51.09,-0.12 53.5,-0.45 4.39,-0.6 4.39,-0.6 4.09,-62.75 -0.17,-34.18 -0.62,-62.47 -1.02,-62.87 -0.4,-0.4 -3.86,-1.22 -7.7,-1.82 -3.84,-0.6 -25.66,-1.35 -48.48,-1.66 -22.82,-0.31 -60.71,-0.22 -84.19,0.19 -31.55,0.55 -42.8,1.05 -43.14,1.94 -0.26,0.65 -0.07,10.84 0.4,22.63 0.47,11.79 1.33,32.69 1.91,46.44 0.59,13.75 1.28,31.07 1.55,38.5 0.42,11.82 0.72,13.66 2.38,14.81 1.05,0.72 6.34,1.75 11.75,2.28 5.41,0.53 21.09,1.34 34.84,1.79 13.75,0.44 47.1,0.88 74.11,0.97 z"
   id="path61"
   style="fill:none;stroke:#000000;stroke-opacity:1" />
<path
   d="m 358.5,281.87 c 6.6,0.07 14.93,-0.35 18.5,-0.92 3.57,-0.57 8.19,-1.49 10.25,-2.03 3,-0.8 3.75,-1.47 3.75,-3.38 0,-1.31 -0.27,-3.08 -0.6,-3.93 -0.51,-1.34 -3.31,-1.56 -19.55,-1.54 -10.43,0.02 -22.76,-0.28 -27.41,-0.66 -8.44,-0.69 -8.44,-0.69 -8.56,2.7 -0.06,1.87 -0.03,4.07 0.09,4.89 0.11,0.82 0.55,1.87 0.98,2.31 0.43,0.45 2.98,1.19 5.66,1.64 2.69,0.45 10.29,0.86 16.89,0.92 z"
   id="path60"
   style="fill:none;stroke:#000000;stroke-opacity:1" />
<path
   d="m 414.5,300.77 c 4.95,0.12 11.49,-0.19 14.52,-0.69 3.09,-0.5 11.04,-3.51 18,-6.81 6.87,-3.24 18.68,-8.76 26.26,-12.25 7.58,-3.5 13.41,-6.73 12.95,-7.19 -0.46,-0.46 -5.32,-1.26 -10.79,-1.78 -5.46,-0.51 -17.59,-1.24 -26.94,-1.62 -17,-0.68 -17,-0.68 -28.5,3.88 -6.32,2.51 -15.43,5.7 -20.24,7.09 -4.8,1.39 -13.8,3.28 -20,4.19 -8.19,1.21 -14.53,1.5 -23.26,1.07 -6.6,-0.33 -16.05,-1.33 -21,-2.21 -6.18,-1.1 -11.43,-1.4 -16.75,-0.96 -5.27,0.44 -7.75,0.3 -7.75,-0.43 0,-0.59 3.84,-2.98 8.53,-5.3 5.74,-2.85 8.43,-4.73 8.24,-5.75 -0.24,-1.23 -2.54,-1.57 -12.28,-1.82 -6.6,-0.17 -14.68,0.21 -17.97,0.85 -3.29,0.63 -13.83,4.08 -23.43,7.65 -9.59,3.58 -19.18,7.6 -21.31,8.95 -2.13,1.34 -4.13,3.12 -4.45,3.95 -0.32,0.82 -0.33,1.75 -0.02,2.05 0.31,0.31 14.2,1.4 30.87,2.43 16.68,1.03 44.5,2.35 61.82,2.94 17.32,0.58 38.93,1.17 48,1.3 9.07,0.13 20.55,0.34 25.5,0.46 z"
   id="path59"
   style="fill:none;stroke:#000000;stroke-opacity:1" />
<path
   d="m 560.99,321 c -0.42,0 -1.49,-1.53 -2.38,-3.4 -0.98,-2.07 -1.61,-6 -1.61,-10.03 0,-3.65 0.65,-8.19 1.45,-10.1 0.8,-1.91 2.14,-3.47 2.98,-3.47 0.84,0 1.76,1.01 2.05,2.25 0.28,1.24 0.9,4.89 1.38,8.12 0.52,3.45 0.5,7.55 -0.05,9.96 -0.5,2.25 -1.4,4.67 -1.98,5.38 -0.59,0.71 -1.42,1.29 -1.84,1.29 z"
   id="path58"
   style="fill:none;stroke:#000000;stroke-opacity:1" />
<path
   d="m 268.12,322 c -1.58,0 -2,-1.03 -2.56,-6.27 -0.37,-3.45 -0.37,-7.05 -0.01,-8 0.37,-0.95 1.52,-1.73 2.56,-1.73 1.7,0 1.89,0.82 1.89,8 0,7.17 -0.2,8 -1.88,8 z"
   id="path57"
   style="fill:none;stroke:#000000;stroke-opacity:1" />
<path
   d="m 282.07,324 c -0.55,0 -1.43,-0.8 -1.96,-1.79 -0.52,-0.98 -1.1,-4.92 -1.28,-8.75 -0.3,-6.4 -0.17,-6.96 1.67,-6.96 1.83,0 2.03,0.76 2.29,8.75 0.18,5.38 -0.1,8.75 -0.72,8.75 z"
   id="path56"
   style="fill:none;stroke:#000000;stroke-opacity:1" />
<path
   d="m 406.14,324.41 c -0.47,0.3 -1.15,0.25 -1.5,-0.1 -0.35,-0.36 -0.64,-3.27 -0.64,-6.48 0,-4.52 0.34,-5.83 1.5,-5.83 1.17,0 1.5,1.33 1.5,5.94 0,3.27 -0.39,6.18 -0.86,6.47 z"
   id="path55"
   style="fill:none;stroke:#000000;stroke-opacity:1" />
<path
   d="m 185.84,330.6 c 0.39,-0.24 0.28,-4.11 -0.25,-8.6 -0.69,-5.8 -0.63,-9.8 0.2,-13.83 0.64,-3.12 2.95,-9.27 5.12,-13.66 2.17,-4.39 3.82,-8.11 3.67,-8.26 -0.15,-0.15 -2.34,1.54 -4.86,3.77 -2.63,2.31 -5.88,6.61 -7.6,10.06 -1.66,3.32 -3.31,8.03 -3.68,10.49 -0.38,2.53 -0.16,6.5 0.52,9.19 0.65,2.61 2.31,6.21 3.68,8.01 1.37,1.8 2.81,3.07 3.2,2.83 z"
   id="path54"
   style="fill:none;stroke:#000000;stroke-opacity:1" />
<path
   d="m 561.17,333 c 0.92,0 2.4,-0.28 3.29,-0.62 0.9,-0.35 2.76,-2.85 4.13,-5.56 1.37,-2.71 2.94,-7.34 3.49,-10.29 0.65,-3.52 0.65,-7.45 0.01,-11.45 -0.54,-3.35 -2.17,-8.74 -3.63,-11.98 -1.45,-3.25 -3.84,-7.04 -5.3,-8.44 -1.46,-1.39 -3.88,-2.99 -5.37,-3.56 -2.45,-0.92 -3,-0.67 -5.65,2.55 -1.62,1.96 -3.55,5.65 -4.29,8.21 -0.74,2.55 -1.35,8.92 -1.35,14.16 0,8.78 0.26,10.05 3.35,16.33 2.2,4.46 4.43,7.46 6.5,8.72 1.73,1.06 3.9,1.92 4.82,1.93 z"
   id="path53"
   style="fill:none;stroke:#000000;stroke-opacity:1" />
<path
   d="m 232.2,332.97 c 0.94,0.02 2.83,-0.48 4.2,-1.11 1.37,-0.62 2.72,-1.73 3,-2.46 0.28,-0.73 0.03,-5.5 -0.54,-10.61 -0.58,-5.11 -0.86,-12.79 -0.62,-17.07 0.33,-5.94 0.95,-8.48 2.6,-10.71 1.19,-1.61 2.16,-3.4 2.16,-3.97 0,-0.57 -1.21,-1.04 -2.7,-1.04 -1.95,0 -4.02,1.4 -7.45,5.06 -2.89,3.08 -5.58,7.28 -6.86,10.71 -1.5,4.01 -2.12,7.98 -2.13,13.69 -0.01,4.42 0.47,9.32 1.07,10.89 0.61,1.57 2.1,3.69 3.33,4.72 1.23,1.02 3.01,1.88 3.94,1.9 z"
   id="path52"
   style="fill:none;stroke:#000000;stroke-opacity:1" />
<path
   d="m 544.19,335.97 c 1.48,0.02 3,-0.46 3.37,-1.06 0.37,-0.6 -0.5,-3.42 -1.93,-6.25 -1.43,-2.84 -3.06,-7.58 -3.61,-10.55 -0.56,-2.96 -1.02,-9.05 -1.02,-13.54 0,-4.48 0.69,-10.81 1.54,-14.05 0.84,-3.25 2.42,-7.33 3.5,-9.08 1.08,-1.75 1.96,-3.69 1.96,-4.31 0,-0.62 -0.93,-1.13 -2.07,-1.13 -1.13,0 -2.93,0.47 -3.99,1.03 -1.06,0.57 -2.8,2.74 -3.86,4.81 -1.06,2.08 -2.61,6.45 -3.44,9.72 -0.83,3.27 -1.82,9.14 -2.19,13.06 -0.49,5.06 -0.2,9.55 1,15.5 0.93,4.61 2.41,9.5 3.29,10.88 0.89,1.38 2.32,3.05 3.18,3.72 0.87,0.67 2.79,1.23 4.27,1.25 z"
   id="path51"
   style="fill:none;stroke:#000000;stroke-opacity:1" />
<path
   d="m 526.5,335.17 c 2.75,-0.25 5.14,-0.57 5.32,-0.72 0.18,-0.14 -0.41,-2.41 -1.3,-5.05 -0.9,-2.63 -1.88,-9.09 -2.2,-14.34 -0.32,-5.36 -0.07,-12.74 0.56,-16.79 0.62,-3.98 1.86,-9.38 2.75,-12 0.88,-2.63 2.45,-5.96 3.49,-7.42 1.03,-1.46 1.88,-2.93 1.88,-3.25 0,-0.33 -2.73,-0.6 -6.06,-0.6 -3.33,0 -8.05,0.5 -10.5,1.12 -2.92,0.73 -5.47,2.29 -7.43,4.53 -1.65,1.87 -3.87,5.11 -4.93,7.19 -1.06,2.08 -2.68,6.68 -3.61,10.22 -1.25,4.81 -1.57,9.23 -1.25,17.44 0.29,7.65 0.93,11.97 2.1,14.19 0.91,1.75 2.23,3.55 2.92,3.99 0.69,0.45 3.96,1.07 7.26,1.37 3.3,0.31 8.25,0.36 11,0.12 z"
   id="path50"
   style="fill:none;stroke:#000000;stroke-opacity:1" />
<path
   d="m 217.36,337.91 c 4.26,0.08 4.76,-0.12 4.11,-1.66 -0.41,-0.96 -1.36,-3.99 -2.11,-6.72 -0.75,-2.73 -1.36,-7.7 -1.36,-11.04 0,-3.34 0.69,-8.72 1.53,-11.95 0.84,-3.23 2.95,-8.53 4.68,-11.78 1.73,-3.25 5.11,-7.63 7.51,-9.75 2.4,-2.11 4.01,-4.06 3.57,-4.33 -0.43,-0.27 -3.46,-0.98 -6.72,-1.58 -3.27,-0.61 -8.67,-1.09 -12,-1.08 -3.73,0.02 -7.64,0.74 -10.14,1.87 -2.24,1.02 -5.45,3.52 -7.13,5.57 -1.69,2.04 -4.45,6.55 -6.14,10.01 -1.69,3.46 -3.61,9.24 -4.27,12.82 -0.91,4.95 -0.93,7.9 -0.07,12.17 0.62,3.1 1.84,7.13 2.7,8.95 0.87,1.82 2.79,3.88 4.28,4.57 1.48,0.69 5.85,1.84 9.7,2.55 3.85,0.71 9.19,1.33 11.86,1.38 z"
   id="path49"
   style="fill:none;stroke:#000000;stroke-opacity:1" />
<path
   d="m 496.64,341 c 3.92,0 4.51,-0.26 4.04,-1.75 -0.3,-0.96 -1.34,-3.77 -2.32,-6.25 -1.39,-3.53 -1.77,-7.52 -1.79,-18.5 -0.03,-10.75 0.39,-15.38 1.79,-19.96 1,-3.27 2.9,-8.1 4.23,-10.71 1.32,-2.62 2.41,-5 2.41,-5.3 0,-0.29 -0.65,-0.53 -1.45,-0.53 -0.8,0 -2.57,1.47 -3.95,3.28 -1.37,1.8 -3.9,6.27 -5.61,9.93 -1.72,3.67 -3.99,10.86 -5.04,15.98 -1.06,5.12 -1.92,12.01 -1.91,15.31 0,3.3 0.4,7.7 0.88,9.77 0.49,2.08 1.61,4.89 2.5,6.25 1.34,2.04 2.43,2.48 6.22,2.48 z"
   id="path48"
   style="fill:none;stroke:#000000;stroke-opacity:1" />
<path
   d="m 453.86,378 c -0.6,0 -0.71,-1.84 -0.29,-4.75 0.38,-2.61 2.22,-11.05 4.09,-18.75 1.88,-7.7 4.99,-18.95 6.93,-25 1.93,-6.05 4.53,-12.99 5.76,-15.43 1.23,-2.44 2.85,-4.64 3.59,-4.88 1.07,-0.36 1.21,0.46 0.67,3.83 -0.38,2.36 -3.11,11.76 -6.08,20.89 -2.97,9.12 -6.36,19.97 -7.53,24.09 -1.16,4.12 -3.03,10.31 -4.14,13.75 -1.11,3.44 -2.46,6.25 -3,6.25 z"
   id="path47"
   style="fill:none;stroke:#000000;stroke-opacity:1" />
<path
   d="m 576.17,389.23 c 0.8,-0.8 0.51,-4.59 -1.07,-13.91 -1.19,-7.05 -3.17,-17.96 -4.38,-24.24 -1.27,-6.49 -2.76,-11.59 -3.47,-11.83 -0.86,-0.29 -1.25,0.81 -1.25,3.48 0,2.15 0.47,6.57 1.05,9.84 0.58,3.26 2.4,12.45 4.05,20.43 1.65,7.98 3.21,15.14 3.48,15.92 0.35,1.03 0.79,1.11 1.59,0.31 z"
   id="path46"
   style="fill:none;stroke:#000000;stroke-opacity:1" />
<path
   d="m 544.54,398.94 c 6.86,0.04 13.29,-0.52 17,-1.47 3.28,-0.85 6.53,-2.3 7.23,-3.22 0.7,-0.93 1.03,-2.33 0.73,-3.11 -0.3,-0.78 -2.3,-10.47 -4.44,-21.53 -2.15,-11.06 -4.19,-21.84 -4.54,-23.95 -0.64,-3.83 -0.64,-3.83 -5.83,-3.07 -2.86,0.42 -12.27,0.71 -20.92,0.64 -8.64,-0.06 -15.95,0.25 -16.23,0.7 -0.28,0.46 1.72,11.39 4.45,24.31 2.72,12.91 5.41,24.68 5.97,26.14 0.55,1.47 2.03,3.08 3.28,3.58 1.24,0.5 7.23,0.94 13.3,0.98 z"
   id="path45"
   style="fill:none;stroke:#000000;stroke-opacity:1" />
<path
   d="m 216.03,410.59 c 2.92,-0.39 6.25,-1.19 7.39,-1.78 1.15,-0.6 2.17,-1.15 2.29,-1.24 0.11,-0.08 2.7,-13.33 5.75,-29.43 3.05,-16.11 5.54,-30.12 5.54,-31.14 0,-1.66 -0.61,-1.79 -5.75,-1.28 -3.16,0.31 -6.7,0.92 -7.85,1.34 -1.91,0.71 -2.53,3.45 -6.83,30.11 -2.6,16.13 -4.98,30.41 -5.29,31.73 -0.56,2.36 -0.5,2.39 4.75,1.69 z"
   id="path44"
   style="fill:none;stroke:#000000;stroke-opacity:1" />
<path
   d="m 203.23,411.98 c 0.98,0.01 1.96,-0.95 2.26,-2.23 0.28,-1.24 2.79,-15.93 5.57,-32.65 2.77,-16.72 4.67,-30.77 4.21,-31.23 -0.45,-0.45 -5.25,-1.73 -10.66,-2.85 -5.41,-1.11 -10.62,-2.02 -11.59,-2.02 -1.37,0 -1.91,1.16 -2.43,5.25 -0.36,2.89 -2.47,16.45 -4.68,30.13 -2.22,13.68 -3.8,25.47 -3.52,26.19 0.28,0.72 1.62,2.05 3,2.95 1.37,0.9 5.55,2.71 9.3,4.03 3.75,1.33 7.59,2.42 8.54,2.43 z"
   id="path43"
   style="fill:none;stroke:#000000;stroke-opacity:1" />
<path
   d="m 551,419.49 c 11.48,-0.26 18.17,-0.88 22,-2.03 3.02,-0.91 9.25,-4.14 13.82,-7.17 4.58,-3.03 8.58,-6.16 8.88,-6.95 0.3,-0.79 -0.29,-2.08 -1.32,-2.86 -1.04,-0.78 -3.77,-2.17 -6.08,-3.07 -4.19,-1.64 -4.24,-1.63 -13.11,1.96 -6.44,2.61 -11.65,3.92 -18.8,4.73 -7,0.79 -12.37,0.81 -18.36,0.09 -4.66,-0.57 -8.79,-0.84 -9.17,-0.6 -0.39,0.23 -1.86,2.51 -3.28,5.05 -1.42,2.53 -2.58,5.43 -2.58,6.43 0,1 0.56,2.16 1.25,2.6 0.69,0.43 3.27,1.1 5.75,1.49 2.48,0.4 11.92,0.54 21,0.33 z"
   id="path42"
   style="fill:none;stroke:#000000;stroke-opacity:1" />
<path
   d="m 279.42,425 c -0.81,0 -1.91,-1.15 -2.44,-2.57 -0.54,-1.41 -0.98,-4.18 -0.98,-6.15 0,-3.5 0.05,-3.55 1.96,-1.81 1.08,0.97 2.46,3.28 3.07,5.13 0.61,1.85 0.83,3.82 0.48,4.38 -0.34,0.56 -1.29,1.02 -2.09,1.02 z"
   id="path41"
   style="fill:none;stroke:#000000;stroke-opacity:1" />
<path
   d="m 202.21,432.97 c 3.69,0.02 10.17,-0.48 14.39,-1.11 5.05,-0.75 8.34,-1.8 9.59,-3.05 1.52,-1.52 1.85,-3.07 1.61,-7.61 -0.21,-3.94 -0.69,-5.62 -1.56,-5.45 -0.7,0.14 -5.49,0.79 -10.66,1.44 -8.24,1.05 -10.17,0.98 -15.74,-0.54 -3.48,-0.96 -10.29,-3.6 -15.11,-5.87 -5.32,-2.51 -9.13,-3.77 -9.66,-3.21 -0.49,0.51 -1.21,4.38 -1.59,8.6 -0.7,7.68 -0.7,7.68 3.32,9.73 2.21,1.13 7.32,3.17 11.36,4.55 4.9,1.67 9.57,2.51 14.05,2.52 z"
   id="path40"
   style="fill:none;stroke:#000000;stroke-opacity:1" />
<path
   d="m 437.86,446 c 0.47,0 6.66,-2.64 13.75,-5.86 7.09,-3.23 16.96,-7.91 21.94,-10.41 4.98,-2.51 9.66,-5.28 10.39,-6.16 0.73,-0.88 2.81,-10.04 4.61,-20.34 1.8,-10.3 4.93,-26.38 6.95,-35.73 2.02,-9.35 3.74,-17.43 3.83,-17.96 0.1,-0.52 -2.3,-1.27 -5.31,-1.66 -4.29,-0.56 -5.95,-1.31 -7.66,-3.46 -1.21,-1.51 -2.79,-4.8 -3.52,-7.33 -0.78,-2.65 -1.29,-8.81 -1.21,-14.59 0.07,-5.79 0.84,-12.71 1.83,-16.44 0.93,-3.55 2.95,-9.17 4.48,-12.5 1.53,-3.33 4.2,-7.82 5.93,-9.96 1.74,-2.15 2.97,-4.09 2.74,-4.32 -0.22,-0.23 -4.39,1.23 -9.26,3.24 -4.87,2.01 -16.5,7.17 -25.85,11.46 -9.35,4.29 -18.69,8.5 -20.75,9.36 -3.75,1.56 -3.75,1.56 -3.75,72.11 0,38.8 0.39,70.55 0.86,70.55 z"
   id="path39"
   style="fill:none;stroke:#000000;stroke-opacity:1" />
<path
   d="m 416.5,448.83 c 6.6,0.08 12.57,-0.22 13.26,-0.66 0.99,-0.63 1.2,-15.55 1,-71.23 -0.26,-70.44 -0.26,-70.44 -29.26,-71.14 -15.95,-0.38 -42.95,-1.19 -60,-1.79 -17.05,-0.6 -41.57,-1.76 -54.5,-2.56 -12.93,-0.81 -27.54,-1.9 -32.48,-2.43 -5.06,-0.55 -9.35,-0.59 -9.84,-0.1 -0.49,0.49 0.07,11.04 1.28,24.22 1.18,12.85 2.83,28.09 3.67,33.86 0.84,5.77 3.72,25.07 6.4,42.88 4.15,27.58 5.19,32.72 6.99,34.64 1.16,1.24 4.67,2.97 7.8,3.84 3.12,0.87 9.95,2.25 15.18,3.08 5.23,0.82 22.77,2.42 39,3.55 16.23,1.13 40.75,2.42 54.5,2.87 13.75,0.46 30.4,0.89 37,0.97 z"
   id="path38"
   style="fill:none;stroke:#000000;stroke-opacity:1" />
<path
   d="m 374.8,466.86 c 1.26,0.08 3.51,-0.49 5,-1.26 1.48,-0.78 3.81,-2.6 5.17,-4.06 2.09,-2.23 2.24,-2.79 1,-3.58 -0.81,-0.51 -2.59,-0.94 -3.97,-0.95 -1.38,-0.01 -12.62,-0.7 -25,-1.54 -12.38,-0.84 -28.57,-1.96 -36,-2.49 -7.43,-0.53 -16.71,-0.97 -20.64,-0.97 -5.6,-0.01 -7.28,0.33 -7.75,1.57 -0.34,0.87 -0.61,2.46 -0.61,3.53 0,1.09 0.98,2.31 2.25,2.79 1.24,0.47 7.87,1.42 14.75,2.11 6.88,0.69 23.98,2.04 38,2.99 14.02,0.95 26.53,1.79 27.8,1.86 z"
   id="path37"
   style="fill:none;stroke:#000000;stroke-opacity:1" />
<path
   d="m 458.62,488 c 0.89,0 4.21,-1.57 7.37,-3.49 5.75,-3.5 5.75,-3.5 6.29,-11.25 0.29,-4.27 0.59,-11.7 0.65,-16.51 0.07,-4.81 -0.23,-8.75 -0.65,-8.75 -0.43,0 -4.04,1.43 -8.03,3.18 -7.25,3.18 -7.25,3.18 -7.25,20 0,14.83 0.19,16.82 1.62,16.82 z"
   id="path36"
   style="fill:none;stroke:#000000;stroke-opacity:1" />
<path
   d="m 423.39,497.72 c 3.91,-0.31 10.37,-1.3 14.34,-2.21 3.98,-0.92 8.11,-2.42 9.18,-3.34 1.75,-1.51 1.97,-3.33 2.26,-19.17 0.29,-15.16 0.13,-17.45 -1.17,-17.14 -0.82,0.19 -5.77,1.4 -11,2.68 -5.23,1.28 -12.05,2.61 -15.17,2.96 -5.66,0.62 -5.66,0.62 -6.03,17.81 -0.2,9.46 -0.17,17.59 0.06,18.07 0.23,0.49 3.62,0.64 7.53,0.34 z"
   id="path35"
   style="fill:none;stroke:#000000;stroke-opacity:1" />
<path
   d="m 401.17,497.86 c 8.66,0.14 8.66,0.14 9.02,-17.61 0.2,-9.76 0.12,-18.07 -0.18,-18.46 -0.3,-0.4 -3.23,-0.82 -6.52,-0.94 -5.77,-0.22 -6.3,-0.02 -14.53,5.47 -8.55,5.71 -8.55,5.71 -31,4.17 -12.35,-0.84 -30.78,-2.23 -40.96,-3.09 -10.18,-0.86 -20.75,-1.64 -23.5,-1.73 -2.75,-0.09 -5.33,-0.62 -5.73,-1.17 -0.41,-0.55 -0.75,-3.34 -0.75,-6.19 -0.01,-2.86 -0.37,-5.41 -0.8,-5.67 -0.43,-0.27 -3.69,0.12 -7.25,0.87 -3.56,0.75 -7.3,1.68 -8.32,2.07 -1.72,0.66 -1.83,1.86 -1.5,16.02 0.2,8.89 0.79,15.74 1.4,16.35 0.58,0.58 4.63,1.49 9,2.03 4.37,0.53 27.52,2.13 51.45,3.54 23.93,1.41 47.55,2.94 52.5,3.39 4.95,0.45 12.9,0.88 17.67,0.95 z"
   id="path34"
   style="fill:none;stroke:#000000;stroke-opacity:1" />
<path
   d="m 592.72,500 c 0.73,0 4.36,-1.53 8.05,-3.39 3.7,-1.86 7.54,-4.28 8.52,-5.37 1.72,-1.91 1.71,-2.5 -0.22,-15.36 -1.1,-7.36 -3.6,-23.28 -5.54,-35.38 -1.94,-12.1 -3.54,-22.9 -3.55,-24 0,-1.1 -0.39,-2.61 -0.86,-3.35 -0.67,-1.04 -2.93,-0.09 -10.18,4.28 -5.13,3.09 -9.5,5.79 -9.71,6 -0.21,0.21 2.44,17.53 5.89,38.48 4.6,27.97 6.62,38.09 7.6,38.09 z"
   id="path33"
   style="fill:none;stroke:#000000;stroke-opacity:1" />
<path
   d="m 566.67,503.65 c 10.54,-0.08 19.45,-0.44 19.8,-0.78 0.35,-0.35 -2.11,-17 -5.47,-37 -3.35,-20.01 -6.3,-37.32 -6.53,-38.48 -0.43,-2.07 -0.85,-2.11 -23.2,-2.12 -12.53,-0.01 -25.92,-0.47 -29.77,-1.03 -3.85,-0.55 -7.28,-0.72 -7.62,-0.37 -0.35,0.34 2.94,17.73 7.3,38.63 4.36,20.9 8.26,38.33 8.66,38.73 0.4,0.41 4.54,1.15 9.19,1.66 4.66,0.5 17.1,0.85 27.64,0.76 z"
   id="path32"
   style="fill:none;stroke:#000000;stroke-opacity:1" />
<path
   d="m 205.75,505.63 c 0.96,-0.28 3.78,-1.03 6.25,-1.66 2.47,-0.63 7.76,-2.5 11.75,-4.16 5.3,-2.19 7.39,-3.58 7.73,-5.16 0.25,-1.18 1.16,-12.05 2,-24.15 0.85,-12.1 1.82,-24.59 2.16,-27.75 0.59,-5.45 0.5,-5.75 -1.58,-5.75 -1.21,0 -5.88,0.66 -10.38,1.47 -4.5,0.82 -9.87,1.74 -11.93,2.05 -3.75,0.57 -3.75,0.57 -3.77,5.78 -0.01,2.86 -0.91,16 -1.99,29.2 -1.09,13.2 -1.98,25.49 -1.98,27.32 -0.01,2.69 0.32,3.22 1.74,2.81 z"
   id="path31"
   style="fill:none;stroke:#000000;stroke-opacity:1" />
<path
   d="m 192.73,506.93 c 4.66,0.06 5.28,-0.18 5.66,-2.18 0.24,-1.24 0.95,-9.45 1.57,-18.25 0.63,-8.8 1.83,-22.21 2.68,-29.79 0.85,-7.58 1.31,-14.4 1.02,-15.15 -0.29,-0.75 -2.46,-1.66 -4.84,-2.03 -2.38,-0.37 -7.47,-1.64 -11.32,-2.82 -3.85,-1.18 -11.13,-4.26 -16.18,-6.86 -6.75,-3.46 -9.43,-4.4 -10.1,-3.53 -0.51,0.65 -1.9,15.51 -3.11,33.03 -2.1,30.67 -2.12,31.95 -0.4,34.88 0.99,1.67 4.14,4.37 7.01,5.98 2.91,1.65 9.09,3.76 14,4.8 4.83,1.02 11.13,1.88 14.01,1.92 z"
   id="path30"
   style="fill:none;stroke:#000000;stroke-opacity:1" />
<path
   d="m 228.77,533.8 c 3.33,-0.21 4.8,-0.76 5.01,-1.88 0.17,-0.86 -1.51,-4.29 -3.73,-7.6 -2.21,-3.32 -5.72,-7.93 -7.79,-10.24 -3.33,-3.72 -3.97,-4.06 -5.55,-2.88 -1.68,1.25 -1.56,1.79 2.12,9.31 2.15,4.4 4.21,9.25 4.57,10.79 0.63,2.64 0.94,2.79 5.37,2.5 z"
   id="path29"
   style="fill:none;stroke:#000000;stroke-opacity:1" />
<path
   d="m 155.05,537 c 0.55,0 1.42,-1.11 1.94,-2.46 0.51,-1.36 2.13,-8.19 3.6,-15.18 2.56,-12.24 2.59,-12.75 0.83,-14.04 -1.49,-1.09 -2.07,-1.1 -3.12,-0.05 -0.71,0.71 -2.63,5.1 -4.27,9.76 -1.65,4.66 -3,10.18 -3.01,12.27 -0.01,2.09 0.67,5.13 1.51,6.75 0.83,1.62 1.97,2.95 2.52,2.95 z"
   id="path28"
   style="fill:none;stroke:#000000;stroke-opacity:1" />
<path
   d="m 602.53,544 c 0.69,0 3.43,-1.47 6.11,-3.27 4.84,-3.26 4.86,-3.28 4.53,-8.25 -0.19,-2.74 -1.16,-9.85 -2.16,-15.8 -1,-5.96 -2.03,-11.03 -2.27,-11.28 -0.25,-0.24 -2.99,0.53 -6.09,1.72 -3.11,1.19 -5.65,2.44 -5.65,2.78 0,0.34 0.42,2.07 0.93,3.84 0.51,1.78 1.47,9.32 2.14,16.75 0.85,9.44 1.59,13.51 2.46,13.51 z"
   id="path27"
   style="fill:none;stroke:#000000;stroke-opacity:1" />
<path
   d="m 581.72,547.88 c 3.18,-0.06 7.13,-0.4 8.78,-0.75 2.41,-0.51 3.07,-1.23 3.35,-3.63 0.19,-1.65 -0.2,-9.39 -0.87,-17.19 -0.74,-8.57 -1.67,-14.35 -2.35,-14.6 -0.62,-0.22 -4.66,-0.05 -8.97,0.37 -4.32,0.43 -8.1,1.02 -8.4,1.33 -0.3,0.3 0,7.64 0.68,16.32 0.67,8.67 1.4,16.33 1.61,17.02 0.26,0.83 2.33,1.21 6.17,1.13 z"
   id="path26"
   style="fill:none;stroke:#000000;stroke-opacity:1" />
<path
   d="m 221.1,552 c 0.52,0 1.39,-1.15 1.92,-2.57 0.54,-1.41 0.98,-3.46 0.98,-4.55 0,-1.1 -1.28,-3.66 -2.84,-5.69 -1.56,-2.03 -4.11,-7.07 -5.67,-11.19 -1.66,-4.39 -4.18,-8.85 -6.06,-10.75 -1.78,-1.79 -3.96,-3.25 -4.86,-3.25 -0.9,0 -1.91,0.73 -2.26,1.63 -0.34,0.9 -0.05,4.61 0.65,8.25 0.7,3.64 2.07,8.42 3.05,10.62 0.98,2.2 4.56,7.04 7.96,10.75 3.41,3.71 6.61,6.75 7.13,6.75 z"
   id="path25"
   style="fill:none;stroke:#000000;stroke-opacity:1" />
<path
   d="m 211.69,560.92 c 2.86,0.04 5.48,-0.39 5.84,-0.97 0.35,-0.57 -3.39,-5.18 -8.32,-10.25 -4.93,-5.06 -9.42,-10.1 -9.98,-11.2 -0.57,-1.1 -1.6,-6.41 -2.31,-11.81 -0.7,-5.39 -1.76,-10.4 -2.35,-11.14 -0.59,-0.74 -3.66,-1.65 -6.82,-2.02 -5.15,-0.6 -5.75,-0.48 -5.72,1.15 0.02,1 0.66,7.06 1.42,13.46 0.76,6.4 2.16,13.15 3.11,15 0.94,1.85 3.09,5.38 4.77,7.86 1.68,2.48 3.95,5.17 5.05,6 1.1,0.83 3.83,2.03 6.06,2.67 2.23,0.64 6.4,1.21 9.25,1.25 z"
   id="path24"
   style="fill:none;stroke:#000000;stroke-opacity:1" />
<path
   d="m 188.28,564.97 c 0.43,0.02 1.04,-0.65 1.36,-1.48 0.35,-0.91 -1.97,-5.23 -5.78,-10.75 -6.35,-9.24 -6.35,-9.24 -6.86,-24.74 -0.5,-15.5 -0.5,-15.5 -4.32,-16.44 -2.93,-0.73 -4.02,-0.63 -4.66,0.4 -0.45,0.74 -1.14,3.86 -1.53,6.93 -0.38,3.08 -1.8,9.4 -3.15,14.06 -1.35,4.66 -2.21,9.42 -1.92,10.59 0.29,1.17 2.28,4.7 4.42,7.85 2.14,3.16 4.97,6.49 6.28,7.42 1.31,0.93 5.31,2.69 8.88,3.91 3.57,1.23 6.85,2.24 7.28,2.25 z"
   id="path23"
   style="fill:none;stroke:#000000;stroke-opacity:1" />
<path
   d="m 542.18,576.81 c 0.98,-1.27 1.79,-2.7 1.8,-3.19 0.01,-0.48 2.21,-3.86 4.9,-7.5 2.68,-3.64 8.08,-11.31 12,-17.03 7.12,-10.42 7.12,-10.42 7.12,-21.19 0,-5.92 -0.41,-11.85 -0.92,-13.18 -0.86,-2.28 -1.48,-2.44 -11.71,-3.02 -5.93,-0.34 -10.95,-0.46 -11.13,-0.27 -0.19,0.19 -0.4,1.18 -0.46,2.21 -0.07,1.02 0.2,5.91 0.6,10.86 0.71,9 0.71,9 -7.83,22.68 -4.7,7.53 -8.55,14.21 -8.55,14.85 0,0.64 0.99,2.58 2.2,4.32 1.21,1.73 4,5.31 6.21,7.96 4,4.8 4,4.8 5.77,2.5 z"
   id="path22"
   style="fill:none;stroke:#000000;stroke-opacity:1" />
<path
   d="m 596.61,582 c 0.82,0 2.79,-0.67 4.38,-1.5 2,-1.03 4.05,-3.82 6.62,-9.03 3.1,-6.27 3.8,-8.87 4.19,-15.5 0.25,-4.38 0.23,-7.97 -0.04,-7.97 -0.28,0 -2.58,0.92 -5.12,2.04 -3.06,1.35 -4.78,2.79 -5.09,4.25 -0.25,1.22 -0.91,4.49 -1.45,7.28 -0.55,2.79 -2.12,8.16 -3.49,11.93 -1.38,3.78 -2.27,7.24 -1.99,7.69 0.27,0.44 1.17,0.81 1.99,0.81 z"
   id="path21"
   style="fill:none;stroke:#000000;stroke-opacity:1" />
<path
   d="m 579.5,587.49 c 1.1,-0.63 3.68,-4.26 5.73,-8.07 2.06,-3.81 4.65,-9.89 5.75,-13.53 1.11,-3.63 2.02,-7.57 2.02,-8.75 0,-1.9 -0.56,-2.14 -5.03,-2.14 -3.18,0 -5.15,0.46 -5.36,1.25 -0.19,0.69 -0.87,3.5 -1.51,6.25 -0.65,2.75 -3.02,8.91 -5.27,13.68 -2.25,4.78 -3.84,9.35 -3.52,10.17 0.31,0.82 1.61,1.67 2.88,1.89 1.27,0.22 3.21,-0.12 4.31,-0.75 z"
   id="path20"
   style="fill:none;stroke:#000000;stroke-opacity:1" />
<path
   d="m 555.92,592 c 0.55,0 1.82,-0.88 2.82,-1.96 1.01,-1.07 4.04,-5.67 6.75,-10.23 2.71,-4.55 5.94,-10.76 7.19,-13.79 1.25,-3.04 2.28,-6.77 2.3,-8.29 0.01,-2.1 -0.63,-3.03 -2.65,-3.8 -1.47,-0.55 -3.25,-0.88 -3.95,-0.72 -0.71,0.16 -5.47,6.56 -10.58,14.23 -5.12,7.66 -9.75,14.54 -10.3,15.29 -0.75,1.02 0.06,2.37 3.21,5.32 2.32,2.17 4.66,3.95 5.21,3.95 z"
   id="path19"
   style="fill:none;stroke:#000000;stroke-opacity:1" />
<path
   d="m 305,612.66 c 4.5,-0.16 4.5,-0.16 5.12,-41.16 0.34,-22.55 0.74,-44.96 0.89,-49.81 0.15,-4.84 -0.12,-9.16 -0.62,-9.61 -0.49,-0.44 -5.76,-1.58 -11.72,-2.53 -5.95,-0.95 -11.12,-1.44 -11.47,-1.08 -0.36,0.36 -0.89,23.01 -1.18,50.34 -0.28,27.33 -0.2,50.1 0.19,50.6 0.39,0.5 3.76,1.47 7.5,2.16 3.73,0.69 8.81,1.18 11.29,1.09 z"
   id="path18"
   style="fill:none;stroke:#000000;stroke-opacity:1" />
<path
   d="m 317.97,614 c 1.54,0 6.4,-1.8 10.81,-4.01 8.02,-4.01 8.02,-4.01 8.59,-17.25 0.31,-7.28 0.79,-28.88 1.07,-47.99 0.46,-32.38 0.38,-34.75 -1.22,-34.73 -0.95,0.01 -5.1,0.9 -9.22,1.98 -4.12,1.08 -8.47,1.97 -9.66,1.98 -1.99,0.02 -2.2,0.66 -2.72,8.27 -0.31,4.54 -0.74,26.48 -0.95,48.75 -0.22,22.27 -0.19,41.06 0.05,41.75 0.25,0.69 1.71,1.25 3.25,1.25 z"
   id="path17"
   style="fill:none;stroke:#000000;stroke-opacity:1" />
<path
   d="m 410,614.6 c 6.5,-0.1 6.5,-0.1 6.23,-39.6 -0.15,-21.73 -0.55,-44.28 -0.87,-50.12 -0.6,-10.61 -0.6,-10.61 -10.64,-11.3 -5.52,-0.38 -11.39,-0.96 -13.04,-1.29 -3.01,-0.61 -3.01,-0.61 -2.39,22.85 0.34,12.9 1.37,35.36 2.29,49.91 0.91,14.55 2.09,26.99 2.62,27.65 0.53,0.65 2.83,1.37 5.13,1.59 2.29,0.22 7.1,0.36 10.67,0.31 z"
   id="path16"
   style="fill:none;stroke:#000000;stroke-opacity:1" />
<path
   d="m 431.39,615.87 c 1.87,0.08 6.36,-1.89 12.75,-5.6 5.43,-3.15 10.09,-6.43 10.37,-7.29 0.27,-0.85 0.05,-19.31 -0.49,-41.02 -0.54,-21.7 -0.99,-44.07 -1,-49.71 -0.01,-6.78 -0.39,-10.25 -1.12,-10.25 -0.6,0 -6.34,2.05 -12.75,4.55 -6.41,2.5 -13.12,5.2 -14.91,5.99 -3.26,1.44 -3.26,1.44 -3,51.7 0.26,50.26 0.26,50.26 3.76,50.88 1.93,0.34 4.8,0.68 6.39,0.75 z"
   id="path15"
   style="fill:none;stroke:#000000;stroke-opacity:1" />
<path
   d="m 444.91,642 c 0.93,0 5.08,-2.23 9.22,-4.95 4.15,-2.72 8.12,-5.65 8.83,-6.5 1.06,-1.28 0.89,-2.63 -1,-7.8 -1.26,-3.44 -2.91,-7.52 -3.68,-9.07 -1.4,-2.82 -1.4,-2.82 -4.59,-0.43 -1.76,1.32 -5.1,3.46 -7.44,4.76 -4.25,2.36 -4.25,2.36 -4.24,10.92 0.01,4.72 0.29,9.58 0.62,10.82 0.33,1.24 1.36,2.25 2.28,2.25 z"
   id="path14"
   style="fill:none;stroke:#000000;stroke-opacity:1" />
<path
   d="m 435.68,642.21 c 0.85,-0.27 1.02,-2.95 0.62,-9.54 -0.3,-5.04 -0.93,-9.58 -1.39,-10.09 -0.46,-0.5 -8.17,-1.32 -17.13,-1.82 -8.95,-0.51 -17.63,-0.99 -19.28,-1.09 -3,-0.17 -3,-0.17 -2.93,9.56 0.03,5.36 0.35,10.03 0.71,10.38 0.36,0.36 9.1,1.17 19.43,1.81 10.34,0.64 19.32,0.99 19.97,0.79 z"
   id="path13"
   style="fill:none;stroke:#000000;stroke-opacity:1" />
<path
   d="m 325.28,648.96 c 0.43,0.02 0.65,-6.37 0.5,-14.21 C 325.5,620.5 325.5,620.5 314,619.83 c -6.32,-0.37 -15.1,-1.38 -19.5,-2.25 -4.4,-0.87 -8.56,-1.58 -9.25,-1.58 -0.91,0 -1.25,2.56 -1.25,9.46 0,8.34 0.23,9.59 1.93,10.5 1.07,0.57 3.26,1.04 4.87,1.04 1.62,0 6.86,0.68 11.64,1.52 4.79,0.83 10.36,2.38 12.39,3.44 2.02,1.06 5.02,3.06 6.67,4.45 1.65,1.38 3.35,2.53 3.78,2.55 z"
   id="path12"
   style="fill:none;stroke:#000000;stroke-opacity:1" />
<path
   d="m 469.05,649.95 c 0.31,0.03 2.7,-1.31 5.32,-2.97 3.18,-2.02 4.66,-3.6 4.45,-4.75 -0.18,-0.95 -2.43,-2.78 -5.01,-4.06 -4.49,-2.22 -4.83,-2.25 -8.13,-0.69 -1.89,0.9 -4.47,2.73 -5.73,4.07 -1.26,1.34 -2.1,2.61 -1.87,2.82 0.23,0.21 2.67,1.55 5.42,2.96 2.75,1.42 5.25,2.6 5.55,2.62 z"
   id="path11"
   style="fill:none;stroke:#000000;stroke-opacity:1" />
<path
   d="m 339.57,644.66 c 6.03,-6.48 7.29,-8.42 7.61,-11.75 0.21,-2.2 0.2,-7.16 -0.02,-11.03 -0.26,-4.59 -0.85,-7.21 -1.71,-7.54 -0.73,-0.28 -3.99,1.31 -7.26,3.53 -3.27,2.22 -6.22,4.77 -6.56,5.66 -0.35,0.9 -0.63,6.27 -0.63,11.93 0,5.66 0.3,11.79 0.67,13.63 0.67,3.34 0.67,3.34 7.9,-4.43 z"
   id="path10"
   style="fill:none;stroke:#000000;stroke-opacity:1" />
<path
   d="m 371.99,662 c 0.45,0 3.95,-4.39 7.76,-9.75 3.82,-5.36 7.5,-10.8 8.18,-12.09 0.76,-1.43 1.01,-4.13 0.66,-7 -0.32,-2.56 -1.25,-14.11 -2.06,-25.66 -0.82,-11.55 -1.94,-30.67 -2.49,-42.5 -0.56,-11.83 -1.19,-29.08 -1.42,-38.34 -0.22,-9.27 -0.79,-17.21 -1.26,-17.66 -0.47,-0.44 -8.19,-1.38 -17.15,-2.07 -11.49,-0.89 -16.6,-0.94 -17.35,-0.19 -0.7,0.7 -1.25,16.97 -1.61,48.2 -0.56,47.15 -0.56,47.15 2.54,50.35 1.7,1.77 3.53,4.37 4.06,5.79 0.54,1.42 1.29,6.67 1.68,11.66 0.7,8.97 0.76,9.13 4.77,12.92 2.49,2.36 5.49,6.93 7.78,11.84 2.04,4.4 4.02,9.46 4.4,11.25 0.37,1.79 1.05,3.25 1.51,3.25 z"
   id="path9"
   style="fill:none;stroke:#000000;stroke-opacity:1" />
<path
   d="m 346.14,692.97 c 0.75,-0.01 5.63,-3.06 10.86,-6.77 8.06,-5.72 9.55,-7.21 9.8,-9.8 0.17,-1.67 -0.37,-6.27 -1.19,-10.2 -0.82,-3.94 -3.29,-10.99 -5.49,-15.68 -2.19,-4.69 -4.39,-8.52 -4.87,-8.52 -0.49,0 -4.79,3.99 -9.57,8.87 -4.77,4.88 -8.68,9.32 -8.68,9.86 0,0.55 1.41,4.09 3.13,7.88 1.71,3.79 3.7,10.22 4.41,14.29 0.7,4.07 1.05,8.01 0.76,8.75 -0.28,0.74 0.1,1.34 0.84,1.32 z"
   id="path8"
   style="fill:none;stroke:#000000;stroke-opacity:1" />
<path
   d="m 482.82,694 c 0.55,0 3.48,-2.36 6.51,-5.25 5.52,-5.25 5.52,-5.25 4.52,-10.65 -0.55,-2.98 -2.74,-10.36 -4.88,-16.42 -2.13,-6.06 -4.53,-11.67 -5.33,-12.47 -1.27,-1.27 -2,-0.95 -5.8,2.61 -4.34,4.07 -4.34,4.07 -1.95,10.37 1.32,3.47 3.47,10.36 4.79,15.31 1.6,6.03 2.19,10.24 1.77,12.75 -0.38,2.24 -0.23,3.75 0.37,3.75 z"
   id="path7"
   style="fill:none;stroke:#000000;stroke-opacity:1" />
<path
   d="m 323.11,707 c 0.54,0 4.3,-1.82 8.35,-4.04 4.05,-2.23 7.88,-4.67 8.52,-5.43 0.84,-1.02 0.87,-3.35 0.11,-8.86 -0.58,-4.11 -1.99,-9.88 -3.15,-12.82 -1.15,-2.94 -3.86,-7.64 -6.02,-10.44 -2.15,-2.8 -6.73,-7.79 -10.17,-11.1 -3.44,-3.3 -7.61,-6.68 -9.25,-7.51 -1.65,-0.83 -4.57,-1.84 -6.5,-2.23 -1.93,-0.4 -8.9,-1.3 -15.5,-2.01 -6.6,-0.71 -12.92,-0.95 -14.04,-0.53 -1.11,0.42 -5.95,4.88 -10.75,9.91 -4.79,5.04 -8.71,9.59 -8.71,10.11 0,0.52 0.34,0.96 0.75,0.96 0.41,0.01 8.4,0.47 17.75,1.02 9.35,0.55 19.7,1.63 23,2.41 4.61,1.08 6.65,2.18 8.82,4.73 1.54,1.83 4.54,6.93 6.64,11.33 2.11,4.4 4.83,11.38 6.04,15.5 1.22,4.12 2.42,7.84 2.67,8.25 0.24,0.41 0.89,0.75 1.44,0.75 z"
   id="path6"
   style="fill:none;stroke:#000000;stroke-opacity:1" />
<path
   d="m 311.25,707.88 c 3.16,0.07 5.75,-0.07 5.75,-0.3 0,-0.23 -1.39,-4.36 -3.09,-9.18 -1.7,-4.82 -4.79,-12.43 -6.85,-16.9 -2.92,-6.32 -4.41,-8.4 -6.66,-9.32 -1.6,-0.65 -8.97,-1.85 -16.4,-2.66 -7.43,-0.81 -18.17,-2.02 -23.88,-2.68 -9.85,-1.14 -10.46,-1.1 -11.83,0.73 -1.15,1.53 -1.38,5.04 -1.12,17.13 0.2,8.98 0.77,15.64 1.4,16.27 0.58,0.58 6.1,1.59 12.26,2.23 7.03,0.74 11.55,0.82 12.14,0.23 0.59,-0.59 0.6,-3.37 0.01,-7.44 -0.52,-3.57 -0.95,-9.67 -0.96,-13.55 -0.01,-4.72 0.47,-7.7 1.46,-9 1.28,-1.68 1.62,-1.74 2.49,-0.44 0.55,0.83 1.03,4.88 1.08,9 0.04,4.12 0.4,10.74 0.8,14.7 0.39,3.96 0.98,7.47 1.31,7.79 0.33,0.33 6.39,1.2 13.47,1.93 7.08,0.74 15.46,1.4 18.62,1.46 z"
   id="path5"
   style="fill:none;stroke:#000000;stroke-opacity:1" />
<path
   d="m 460.27,711.98 c 0.68,-0.02 5.19,-3.42 10.03,-7.58 8.8,-7.55 8.8,-7.55 8.12,-12.22 -0.37,-2.58 -1.49,-7.91 -2.49,-11.85 -0.99,-3.95 -3.09,-10.25 -4.65,-14 -1.56,-3.76 -3.27,-6.81 -3.81,-6.78 -0.53,0.02 -3.1,3.17 -5.71,7 -2.61,3.82 -5.27,8.66 -5.92,10.74 -0.95,3.05 -0.84,6.38 0.54,17 0.94,7.27 1.93,14.22 2.19,15.46 0.26,1.24 1.02,2.24 1.7,2.23 z"
   id="path4"
   style="fill:none;stroke:#000000;stroke-opacity:1" />
<path
   d="m 420.31,715.86 c 4.82,0.14 4.82,0.14 4.11,-15.4 -0.54,-11.73 -0.39,-16.52 0.6,-19.51 0.71,-2.18 0.98,-4.28 0.59,-4.67 -0.39,-0.39 -6.88,-1.1 -14.41,-1.57 -7.54,-0.47 -15.61,-1.33 -17.95,-1.91 -2.34,-0.58 -4.25,-1.4 -4.25,-1.82 0,-0.42 0.71,-1.04 1.58,-1.37 0.87,-0.34 4.06,-0.61 7.08,-0.61 3.02,0 10.89,0.49 17.49,1.09 11.04,1.01 12.14,0.96 13.98,-0.7 1.09,-0.99 4.21,-5.49 6.93,-9.99 2.72,-4.5 4.94,-8.6 4.94,-9.11 0,-0.51 -10.24,-1.69 -22.75,-2.62 -12.51,-0.94 -23.31,-1.7 -23.99,-1.69 -0.68,0.01 -5.41,6.21 -10.5,13.77 -9.26,13.75 -9.26,13.75 -9.26,31.95 0,11.77 0.38,18.58 1.09,19.29 0.6,0.6 4.98,1.36 9.73,1.69 8.65,0.62 8.65,0.62 8.42,-16.78 -0.23,-16.81 -0.17,-17.4 1.76,-17.4 1.9,0 2.02,0.83 2.5,17.17 0.27,9.44 0.81,17.48 1.2,17.87 0.38,0.38 4.21,1.03 8.5,1.44 4.29,0.41 9.97,0.8 12.61,0.88 z"
   id="path3"
   style="fill:none;stroke:#000000;stroke-opacity:1" />
<path
   d="m 446.19,717.83 c 3.13,0.09 5.95,-0.25 6.27,-0.77 0.32,-0.52 -0.37,-9.33 -1.54,-19.58 -2.04,-17.85 -2.06,-18.83 -0.4,-23.16 0.94,-2.48 4.37,-8.03 7.6,-12.32 3.23,-4.29 5.88,-8.24 5.88,-8.78 0,-0.54 -1.41,-1.56 -3.12,-2.27 -1.72,-0.71 -4.96,-1.33 -7.19,-1.37 -3.73,-0.07 -4.36,0.32 -7.86,4.92 -2.1,2.75 -6.63,9.5 -10.07,15 -6.26,10 -6.26,10 -6.02,27.38 0.15,10.71 0.66,17.89 1.33,18.7 0.6,0.72 2.96,1.48 5.26,1.69 2.29,0.21 6.73,0.46 9.86,0.56 z"
   id="path2"
   style="fill:none;stroke:#000000;stroke-opacity:1" />
<path
   d="m 446.3,725.86 c -4.84,-0.08 -13.75,-0.53 -19.8,-1.01 -6.05,-0.48 -19.77,-1.74 -30.5,-2.81 -10.73,-1.07 -20.93,-2.45 -22.68,-3.06 -2.75,-0.97 -3.33,-1.82 -4.25,-6.1 -0.59,-2.74 -1.08,-7.54 -1.09,-10.68 0,-3.13 -0.41,-6.33 -0.89,-7.09 -0.7,-1.1 -4.11,0.67 -16,8.3 -8.31,5.33 -17.02,10.56 -19.35,11.62 -2.65,1.2 -6.49,1.93 -10.24,1.94 -3.3,0.01 -13.2,-0.67 -22,-1.51 -8.8,-0.84 -23.76,-2.4 -33.25,-3.47 -9.49,-1.07 -18.52,-2.6 -20.07,-3.4 -1.56,-0.8 -3.36,-2.1 -4,-2.88 -0.74,-0.88 -1.43,-7.63 -1.83,-17.85 -0.45,-11.44 -0.29,-17.5 0.52,-19.96 0.78,-2.38 5.47,-7.79 14.45,-16.68 8.93,-8.84 14.78,-13.82 17.86,-15.18 4.58,-2.03 4.58,-2.03 5.26,-14.78 0.38,-7.02 0.64,-20.41 0.58,-29.76 -0.06,-9.35 0.34,-33.88 0.88,-54.5 0.89,-33.7 0.83,-37.62 -0.59,-38.71 -0.86,-0.66 -3.98,-1.7 -6.92,-2.31 -3.53,-0.74 -5.98,-1.92 -7.21,-3.48 -1.59,-2.02 -1.95,-4.91 -2.48,-19.67 -0.52,-14.37 -0.37,-17.68 0.86,-19.56 0.82,-1.25 1.95,-2.27 2.53,-2.27 0.57,0 3.29,-0.97 6.04,-2.15 3.49,-1.5 4.6,-2.4 3.68,-2.99 -0.72,-0.46 -3.56,-1.57 -6.31,-2.48 -2.75,-0.91 -6.89,-2.53 -9.2,-3.61 -3.07,-1.42 -4.47,-2.8 -5.18,-5.11 -0.54,-1.74 -1.48,-7.21 -2.09,-12.16 -0.61,-4.95 -2.93,-20.93 -5.16,-35.5 -2.23,-14.57 -4.41,-27.14 -4.84,-27.92 -0.52,-0.92 -1.34,1 -2.35,5.5 -0.86,3.81 -2.95,14.56 -4.66,23.9 -2.75,14.98 -2.97,17.55 -1.93,21.88 0.67,2.82 0.92,7.62 0.58,11.27 -0.58,6.2 -0.52,6.39 2.19,7.8 1.53,0.79 3.37,2.14 4.08,3 1.06,1.27 1,6.39 -0.33,28.31 -0.89,14.72 -1.84,29.41 -2.11,32.66 -0.28,3.24 -1.06,6.57 -1.74,7.38 -0.68,0.82 -3.1,2.29 -5.39,3.27 -2.28,0.98 -4.46,2.29 -4.85,2.91 -0.38,0.63 1.66,4.36 4.54,8.31 2.88,3.94 6.31,9.2 7.63,11.67 1.31,2.48 2.26,5.42 2.1,6.53 -0.16,1.11 -1.98,3.11 -4.05,4.45 -3.24,2.09 -4.04,3.4 -5.79,9.5 -1.12,3.9 -2.77,8.8 -3.67,10.89 -0.9,2.1 -2.9,4.88 -4.45,6.18 -1.82,1.53 -4.66,2.58 -8.07,2.97 -2.89,0.33 -7.69,0.2 -10.65,-0.3 -4.86,-0.82 -5.74,-0.67 -8.89,1.47 -1.93,1.3 -4.22,2.36 -5.11,2.36 -0.89,-0.01 -4.5,-0.7 -8.02,-1.53 -3.53,-0.83 -8.6,-2.7 -11.26,-4.15 -2.66,-1.45 -6.07,-4.25 -7.58,-6.22 -1.51,-1.98 -5.6,-7.86 -9.09,-13.08 -3.5,-5.21 -6.99,-10.7 -7.76,-12.2 -0.77,-1.49 -1.39,-4.42 -1.39,-6.51 0.01,-2.09 1.39,-7.63 3.08,-12.3 1.68,-4.68 3.54,-9.93 4.13,-11.68 0.87,-2.57 0.73,-3.9 -0.72,-6.95 -1.72,-3.64 -1.71,-4.87 0.44,-35.82 1.23,-17.63 2.48,-33.3 2.78,-34.83 0.3,-1.53 1.65,-3.66 3.01,-4.72 1.36,-1.07 3.98,-2.23 5.83,-2.58 3.11,-0.58 3.39,-0.96 3.96,-5.27 0.33,-2.56 0.84,-5.91 1.13,-7.44 0.35,-1.83 1.84,-3.62 4.31,-5.18 3.57,-2.26 3.84,-2.8 4.89,-9.71 0.61,-4.03 2.69,-17.4 4.61,-29.71 3.5,-22.39 3.5,-22.39 -1.02,-26.37 -2.49,-2.19 -5.51,-5.84 -6.72,-8.11 -1.76,-3.32 -2.2,-5.81 -2.21,-12.65 -0.01,-7.65 0.33,-9.22 3.31,-15.27 1.83,-3.72 5.83,-9.46 8.88,-12.76 3.15,-3.4 8.42,-7.61 12.18,-9.72 6.43,-3.61 6.96,-3.73 18.35,-4.08 9.87,-0.3 12.87,-0.01 19,1.83 4,1.2 9.14,3.26 11.42,4.58 4.15,2.41 4.15,2.41 18.5,-2.93 7.89,-2.93 19.41,-7.08 25.6,-9.23 6.19,-2.14 11.25,-4.19 11.25,-4.54 0,-0.36 -3.71,-0.96 -8.25,-1.33 -4.54,-0.37 -11.18,-1.11 -14.75,-1.63 -3.57,-0.53 -8.95,-2.19 -11.96,-3.68 -3,-1.5 -6.31,-3.91 -7.36,-5.36 -1.49,-2.06 -2.19,-5.95 -3.23,-18 -0.72,-8.45 -1.35,-15.46 -1.38,-15.57 -0.04,-0.12 -2.73,-2.02 -5.99,-4.23 -4.53,-3.08 -6.51,-5.25 -8.47,-9.29 -1.41,-2.9 -2.85,-7.77 -3.2,-10.81 -0.36,-3.14 -0.12,-8.05 0.56,-11.3 0.8,-3.87 2.76,-8.09 6.02,-12.94 4.74,-7.06 4.79,-7.24 3.27,-10.18 -1.22,-2.37 -1.73,-8.92 -2.4,-31.02 -0.46,-15.41 -1.35,-34.8 -1.98,-43.08 -1,-13.36 -0.95,-15.41 0.49,-18.19 0.89,-1.72 2.62,-3.83 3.85,-4.69 1.22,-0.86 3.27,-1.56 4.55,-1.56 1.28,0 3.64,0.68 5.25,1.51 1.61,0.83 3.38,2.38 3.95,3.43 0.6,1.13 1.08,10.78 1.15,23.24 0.06,11.73 0.41,22.67 0.76,24.32 0.64,3 0.64,3 3.21,-0.5 1.41,-1.93 6.44,-8.67 11.17,-15 4.72,-6.33 10.89,-14.51 13.7,-18.19 2.81,-3.68 6.46,-7.83 8.11,-9.21 1.64,-1.39 4.67,-2.99 6.71,-3.56 2.38,-0.66 26.79,-1.03 67.76,-1.03 54.07,-0.01 64.97,0.23 70,1.51 3.28,0.84 13.73,5.32 23.22,9.96 9.49,4.64 23.22,11.88 30.5,16.09 7.28,4.21 16.16,9.46 19.74,11.67 3.58,2.2 7.55,4.97 8.83,6.13 2.33,2.12 2.33,2.12 2.11,26.63 -0.17,20.67 0.05,25.07 1.4,28.16 0.89,2.02 2.1,6.78 2.69,10.58 0.73,4.75 0.76,8.86 0.07,13.15 -0.56,3.42 -2.18,8.79 -3.61,11.92 -1.43,3.13 -4.61,8.26 -7.07,11.39 -4.19,5.34 -4.55,6.28 -5.51,14.5 -0.57,4.84 -1.25,9.85 -1.51,11.13 -0.36,1.75 -2.29,3.17 -7.69,5.67 -3.97,1.83 -15.53,6.53 -25.71,10.45 -10.18,3.92 -19.58,7.58 -20.9,8.14 -1.63,0.68 -2.08,1.33 -1.39,2.02 0.56,0.56 5.69,1.45 11.4,1.98 5.72,0.53 15.93,1.85 22.7,2.94 6.77,1.09 13.68,2.69 15.34,3.55 2.75,1.42 3.39,1.42 6.93,0 2.15,-0.86 7.96,-2.02 12.92,-2.58 6.02,-0.68 11.89,-0.69 17.7,-0.03 5.68,0.64 10.51,1.88 13.96,3.56 2.9,1.42 7.08,4.64 9.29,7.15 2.21,2.52 5.1,6.88 6.41,9.7 1.31,2.81 2.95,7.54 3.65,10.51 0.77,3.31 1.04,8.51 0.7,13.5 -0.3,4.46 -1.51,10.81 -2.68,14.11 -1.58,4.42 -1.97,7.19 -1.51,10.5 0.35,2.48 2.61,14.3 5.03,26.27 2.42,11.98 4.89,22.68 5.48,23.79 0.59,1.1 4.76,3.71 9.27,5.8 4.51,2.09 8.72,4.44 9.36,5.22 0.64,0.78 2.13,8.17 3.3,16.42 1.18,8.25 4.41,29.12 7.18,46.39 5.03,31.39 5.03,31.39 2.79,34.42 -2.24,3.03 -2.24,3.03 0.53,20.63 1.85,11.69 2.57,19.28 2.16,22.58 -0.34,2.74 -0.59,7.8 -0.55,11.25 0.03,3.45 -0.46,8.85 -1.1,12 -0.64,3.15 -2.49,8.53 -4.1,11.95 -1.62,3.41 -4.44,7.8 -6.27,9.75 -3.24,3.43 -3.56,3.53 -10.77,3.53 -7.19,0 -7.55,0.12 -10.83,3.5 -2.81,2.89 -4.11,3.5 -7.55,3.5 -2.28,0 -5.58,-0.5 -7.32,-1.1 -2.64,-0.93 -3.89,-0.76 -7.63,1 -2.46,1.15 -5.95,2.08 -7.74,2.06 -1.79,-0.01 -4.31,-0.61 -5.6,-1.33 -1.28,-0.71 -6.82,-5.76 -12.31,-11.21 -5.49,-5.46 -11.57,-12.53 -13.52,-15.72 -2.87,-4.71 -3.42,-6.42 -2.91,-9.13 0.34,-1.83 4.27,-8.88 8.73,-15.68 8.1,-12.34 8.1,-12.34 7.42,-22.31 -0.38,-5.48 -0.88,-10.28 -1.13,-10.67 -0.24,-0.39 -2.65,-1.24 -5.35,-1.89 -2.71,-0.65 -5.65,-1.98 -6.53,-2.95 -0.89,-0.99 -3.11,-8.81 -5,-17.67 -1.88,-8.75 -5.47,-26.39 -7.98,-39.22 -2.52,-12.83 -4.57,-24.98 -4.56,-27 0.02,-3.11 1.11,-4.92 7,-11.68 4.63,-5.31 6.98,-8.84 6.98,-10.5 0.01,-1.38 -2.06,-13.07 -4.59,-25.99 -2.53,-12.91 -5.15,-24.84 -5.83,-26.5 -1.22,-2.98 -1.25,-2.98 -2.41,-0.82 -0.65,1.21 -3.19,11.2 -5.65,22.21 -2.46,11.01 -5.6,26.73 -6.99,34.94 -1.39,8.21 -2.55,16.22 -2.57,17.8 -0.01,1.57 -0.59,3.86 -1.27,5.09 -0.68,1.23 -3.48,3.64 -6.22,5.36 -2.73,1.71 -5.94,4.01 -7.12,5.09 -1.95,1.8 -2.02,2.22 -0.76,4.65 1.05,2.01 1.4,7.4 1.4,21.79 0.01,17.46 -0.16,19.32 -1.95,21.6 -1.07,1.37 -5.11,4.14 -8.96,6.17 -6.3,3.31 -7.07,4.05 -7.69,7.34 -0.38,2.01 -0.36,25.47 0.04,52.12 0.72,48.46 0.72,48.46 5.98,63.55 5.26,15.1 5.26,15.1 11.09,18.38 3.2,1.81 6.42,4.06 7.15,5 0.73,0.95 2.64,4 4.25,6.8 1.61,2.79 4.35,9.09 6.09,14 1.75,4.9 4.04,13.32 5.09,18.71 1.06,5.38 1.92,10.2 1.92,10.71 0,0.51 -1.46,2.6 -3.25,4.64 -1.79,2.04 -8.43,7.82 -14.75,12.84 -6.32,5.01 -13.98,10.94 -17,13.17 -3.02,2.22 -6.94,4.79 -8.7,5.7 -2.35,1.21 -5.55,1.61 -12,1.51 z"
   id="path1"
   style="fill:none;stroke:#000000;stroke-opacity:1" />
</svg>
