<?xml version="1.0" encoding="UTF-8" standalone="no"?>
<svg
   version="1.1"
   viewBox="0 0 768 768"
   width="768"
   height="768"
   id="svg1"
   sodipodi:docname="sheep.svg"
   inkscape:version="1.4 (86a8ad7, 2024-10-11)"
   xmlns:inkscape="http://www.inkscape.org/namespaces/inkscape"
   xmlns:sodipodi="http://sodipodi.sourceforge.net/DTD/sodipodi-0.dtd"
   xmlns="http://www.w3.org/2000/svg"
   xmlns:svg="http://www.w3.org/2000/svg"
   xmlns:rdf="http://www.w3.org/1999/02/22-rdf-syntax-ns#"
   xmlns:cc="http://creativecommons.org/ns#"
   xmlns:dc="http://purl.org/dc/elements/1.1/"><defs
   id="defs1" />
<sodipodi:namedview
   id="namedview1"
   pagecolor="#ffffff"
   bordercolor="#000000"
   borderopacity="0.25"
   inkscape:showpageshadow="2"
   inkscape:pageopacity="0.0"
   inkscape:pagecheckerboard="0"
   inkscape:deskcolor="#d1d1d1"
   showgrid="false"
   inkscape:zoom="0.76302083"
   inkscape:cx="383.34471"
   inkscape:cy="384"
   inkscape:window-width="1440"
   inkscape:window-height="830"
   inkscape:window-x="-6"
   inkscape:window-y="-6"
   inkscape:window-maximized="1"
   inkscape:current-layer="svg1" />
<style
   id="style1">svg {background-color: white; }</style>

&quot;
<metadata
   id="metadata1">
Created by https://svgstud.io and licensed under CC-BY-SA 4.0 license. Please attribute https://svgstud.io
</metadata>
<metadata
   id="prompt">
Draw me a sheep
</metadata>
<metadata
   id="version">
7
</metadata>
<metadata
   id="metadata2">
  <rdf:RDF>
    <cc:Work
       rdf:about="">
      <cc:license
         rdf:resource="http://creativecommons.org/licenses/by-sa/4.0/" />
      <dc:creator>
        <cc:Agent>
          <dc:title>https://svgstud.io</dc:title>
        </cc:Agent>
      </dc:creator>
    </cc:Work>
    <cc:License
       rdf:about="http://creativecommons.org/licenses/by-sa/4.0/">
      <cc:permits
         rdf:resource="http://creativecommons.org/ns#Reproduction" />
      <cc:permits
         rdf:resource="http://creativecommons.org/ns#Distribution" />
      <cc:requires
         rdf:resource="http://creativecommons.org/ns#Notice" />
      <cc:requires
         rdf:resource="http://creativecommons.org/ns#Attribution" />
      <cc:permits
         rdf:resource="http://creativecommons.org/ns#DerivativeWorks" />
      <cc:requires
         rdf:resource="http://creativecommons.org/ns#ShareAlike" />
    </cc:License>
  </rdf:RDF>
</metadata>
<metadata
   id="uid">
82d3d61ce592c111de3baff765f6d059067703d4ab4104eb1ad0fad824b8bf07
</metadata>
<path
   d="m 486,245.85 c -0.82,0 -4.35,-0.63 -7.84,-1.38 -3.48,-0.76 -9.36,-3.09 -13.06,-5.17 -3.69,-2.09 -12.17,-6.91 -18.82,-10.71 -7.39,-4.22 -12.51,-7.81 -13.16,-9.22 -0.57,-1.26 -0.66,-2.53 -0.2,-2.82 0.47,-0.29 6.3,2.16 12.97,5.43 6.66,3.28 15.66,8.02 20.01,10.52 4.34,2.51 10.75,5.72 14.25,7.14 3.49,1.43 7.47,3.04 8.85,3.58 2.38,0.95 2.4,1.04 0.5,1.82 -1.1,0.45 -2.68,0.82 -3.5,0.81 z"
   id="path20"
   style="fill:none;stroke:#000000;stroke-opacity:1" />
<path
   d="m 408.42,260.7 c 0.59,-0.2 1.22,-1.53 1.39,-2.97 0.2,-1.66 -0.48,-3.4 -1.88,-4.8 -2.08,-2.08 -2.26,-2.1 -3.21,-0.4 -0.73,1.32 -0.52,2.69 0.81,5.16 1,1.85 2.3,3.2 2.89,3.01 z"
   id="path19"
   style="fill:none;stroke:#000000;stroke-opacity:1" />
<path
   d="m 402.62,267 c -1.25,0 -3.3,-1.1 -4.56,-2.44 -1.42,-1.5 -2.49,-4.16 -2.8,-6.94 -0.28,-2.47 -0.22,-6.02 0.13,-7.88 0.35,-1.87 1.55,-4.37 2.66,-5.56 1.12,-1.2 3.05,-2.18 4.3,-2.18 1.25,0 3.6,1.38 5.21,3.07 2.68,2.79 2.94,3.68 2.94,10.08 0,6.46 -0.23,7.22 -2.81,9.44 -1.54,1.32 -3.82,2.41 -5.07,2.41 z"
   id="path18"
   style="fill:none;stroke:#000000;stroke-opacity:1" />
<path
   d="m 326.92,278.97 c -1.33,-0.02 -3.25,-0.51 -4.26,-1.1 -1.02,-0.59 -2.7,-2.94 -3.73,-5.22 -1.04,-2.28 -1.9,-5.5 -1.92,-7.15 -0.02,-1.65 -0.44,-3.63 -0.92,-4.4 -0.63,-0.98 -1.87,-1.19 -4.23,-0.72 -2.94,0.59 -3.16,0.49 -1.85,-0.81 0.82,-0.81 4.16,-2.17 7.43,-3.02 5.18,-1.34 6.21,-1.35 8.13,-0.1 1.21,0.8 3.38,3.81 4.81,6.69 1.44,2.89 2.62,6.89 2.62,8.9 0,2.27 -0.69,4.28 -1.83,5.31 -1,0.91 -2.92,1.64 -4.25,1.62 z"
   id="path17"
   style="fill:none;stroke:#000000;stroke-opacity:1" />
<path
   d="m 364.59,320 c -0.66,0 -3.26,-1.31 -5.77,-2.9 -2.52,-1.6 -6.66,-4.9 -9.2,-7.33 -2.72,-2.6 -4.62,-5.32 -4.62,-6.6 0,-1.42 0.62,-2.17 1.78,-2.17 0.98,0 4.77,2.48 8.41,5.5 3.65,3.02 7.34,5.5 8.2,5.5 0.9,0 2.71,-2.25 4.21,-5.25 1.44,-2.89 3.32,-6.04 4.17,-7 0.85,-0.96 2.34,-1.75 3.33,-1.75 0.98,0 2.08,0.48 2.44,1.07 0.37,0.59 -0.78,4 -2.54,7.58 -1.76,3.59 -4.56,8.05 -6.21,9.93 -1.65,1.88 -3.54,3.42 -4.2,3.42 z"
   id="path16"
   style="fill:none;stroke:#000000;stroke-opacity:1" />
<path
   d="m 366.28,333.91 c 2.08,0.05 6.58,-0.85 10,-2 3.42,-1.15 8.87,-3.69 12.1,-5.65 3.23,-1.96 8.63,-5.82 12,-8.58 3.37,-2.76 8.27,-7.31 10.9,-10.1 2.63,-2.79 6.57,-7.78 8.77,-11.08 2.2,-3.3 4.92,-8.93 6.06,-12.5 1.21,-3.83 2.28,-10.64 2.61,-16.56 0.3,-5.53 0.05,-14.31 -0.57,-19.52 -0.61,-5.2 -1.85,-11.62 -2.75,-14.27 -1.21,-3.55 -1.35,-5.1 -0.52,-5.93 0.83,-0.83 2.43,0.36 6.15,4.52 2.77,3.11 8.05,7.77 11.75,10.36 3.7,2.59 8.97,5.75 11.72,7.01 2.75,1.27 7.91,3.05 11.47,3.96 4.49,1.15 8.92,1.51 14.5,1.18 4.8,-0.28 10.31,-1.35 13.69,-2.65 3.11,-1.19 7.16,-3.18 9,-4.42 2.13,-1.43 3.45,-3.21 3.65,-4.91 0.17,-1.47 -0.19,-3.61 -0.81,-4.77 -0.62,-1.15 -3.69,-3.98 -6.83,-6.3 -3.14,-2.31 -11.55,-7.19 -18.69,-10.85 -7.14,-3.66 -17.78,-8.29 -23.64,-10.28 -5.86,-1.99 -14.35,-4.16 -18.87,-4.82 -6.79,-0.99 -8.49,-1.61 -9.84,-3.58 -0.9,-1.32 -3.37,-4.36 -5.49,-6.76 -2.12,-2.4 -6.3,-5.57 -9.3,-7.03 -4.83,-2.36 -6.21,-2.6 -12.39,-2.08 -6.96,0.58 -6.96,0.58 -11.51,-3.35 -2.5,-2.17 -5.67,-4.22 -7.05,-4.57 -1.37,-0.34 -4.13,-0.36 -6.13,-0.03 -2,0.32 -5.87,1.97 -8.6,3.67 -4.56,2.83 -5.31,3 -9.47,2.12 -2.83,-0.61 -5.44,-0.62 -6.98,-0.03 -1.36,0.52 -3.78,1.88 -5.39,3.02 -2.1,1.49 -3.82,1.92 -6.12,1.52 -1.76,-0.3 -4.63,-0.85 -6.37,-1.2 -1.75,-0.36 -4.83,-0.11 -6.84,0.55 -2.01,0.67 -5.22,2.58 -7.11,4.24 -1.9,1.67 -4.6,4.98 -6,7.37 -2.08,3.55 -3.19,4.43 -6.21,4.9 -2.02,0.31 -5.28,1 -7.24,1.52 -1.96,0.52 -5.21,2.58 -7.22,4.59 -2,2 -4.07,5.05 -4.6,6.76 -0.53,1.72 -1.66,5.64 -2.52,8.71 -1.56,5.6 -1.56,5.6 -19.32,19 -9.77,7.36 -20.84,16.03 -24.59,19.26 -3.76,3.23 -8.17,7.73 -9.82,10 -2.48,3.42 -2.88,4.74 -2.35,7.64 0.36,1.93 1.81,4.74 3.23,6.23 1.42,1.5 4.87,3.51 7.67,4.46 3.51,1.2 8.34,1.75 15.59,1.78 10.17,0.04 10.76,-0.08 18.73,-3.86 4.52,-2.14 8.91,-4.64 9.73,-5.56 0.83,-0.92 2.22,-5.39 3.08,-9.95 0.87,-4.56 1.44,-9.37 1.27,-10.7 -0.29,-2.27 -0.87,-1.95 -9.31,4.96 -4.95,4.05 -11.83,8.8 -15.29,10.54 -3.46,1.75 -7.91,3.28 -9.89,3.39 -2.03,0.13 -3.78,-0.29 -4.02,-0.95 -0.23,-0.65 3.09,-2.99 7.48,-5.28 4.4,-2.28 14.8,-9.62 23.43,-16.53 8.55,-6.83 15.79,-13.07 16.09,-13.87 0.31,-0.8 2.24,-3.79 4.29,-6.64 3.17,-4.42 3.87,-4.94 4.68,-3.49 0.53,0.94 0.74,4.47 0.48,7.84 -0.26,3.38 -0.07,10.85 0.41,16.6 0.48,5.75 1.83,14.52 3,19.49 1.17,4.98 2.94,10.96 3.95,13.3 1,2.35 3.61,6.85 5.78,10.01 2.18,3.16 5.68,7.57 7.79,9.8 2.1,2.24 6.31,5.89 9.36,8.13 3.05,2.24 8,5.32 11,6.84 3,1.53 7.48,3.35 9.96,4.04 2.48,0.69 6.2,1.29 8.28,1.34 z"
   id="path15"
   style="fill:none;stroke:#000000;stroke-opacity:1" />
<path
   d="m 375.5,464.42 c 3.1,-0.34 6.75,-1.66 9.59,-3.48 2.52,-1.62 5.64,-2.94 6.93,-2.94 1.28,0 3.76,0.51 5.5,1.14 1.75,0.64 4.73,0.85 6.71,0.48 1.95,-0.37 5.47,-2.19 7.82,-4.05 4.19,-3.31 4.33,-3.35 8.23,-1.97 2.19,0.77 5.4,1.4 7.15,1.4 1.75,0 4.55,-1.01 6.22,-2.25 1.67,-1.24 5.29,-4.7 8.04,-7.7 5.01,-5.46 5.01,-5.46 11.16,-3.6 5.32,1.61 6.73,1.7 10.4,0.61 2.34,-0.69 5.09,-2 6.11,-2.91 1.02,-0.91 3.59,-5.08 5.7,-9.27 2.11,-4.2 4.57,-7.91 5.47,-8.25 0.9,-0.35 2.51,-0.63 3.59,-0.63 1.08,0 3.73,-0.9 5.89,-2.01 2.16,-1.1 5.46,-3.34 7.31,-4.97 1.86,-1.63 4.63,-5.75 6.16,-9.15 2.58,-5.75 2.72,-6.76 2.08,-14.65 -0.69,-8.48 -0.69,-8.48 3.09,-14.6 3.08,-4.97 3.86,-7.29 4.18,-12.37 0.34,-5.22 -0.03,-7.13 -2.21,-11.6 -1.44,-2.94 -2.62,-6.71 -2.62,-8.37 0,-1.67 0.68,-4.94 1.5,-7.28 0.82,-2.34 1.5,-6.19 1.5,-8.56 0,-2.37 -0.4,-5.37 -0.9,-6.68 -0.49,-1.3 -2.98,-4.8 -5.52,-7.77 -2.54,-2.98 -4.99,-7.01 -5.45,-8.95 -0.46,-1.95 -1.34,-6.18 -1.96,-9.41 -0.65,-3.44 -2.22,-7.31 -3.77,-9.36 -1.47,-1.91 -4.15,-4.11 -5.98,-4.87 -2.29,-0.96 -4.69,-3.52 -7.8,-8.33 -2.48,-3.82 -5.67,-7.71 -7.11,-8.66 -1.44,-0.94 -5.54,-2.52 -9.11,-3.51 -4.83,-1.34 -6.59,-1.49 -6.83,-0.6 -0.19,0.66 -0.81,5.94 -1.4,11.73 -0.58,5.79 -2.21,14.17 -3.62,18.61 -1.4,4.45 -3.49,9.28 -4.62,10.73 -1.14,1.45 -2.54,2.63 -3.12,2.63 -0.59,0 -0.82,-1.19 -0.53,-2.75 0.27,-1.51 1.68,-7.2 3.11,-12.64 1.7,-6.42 2.81,-13.8 3.17,-21 0.56,-11.11 0.56,-11.11 -6.24,-16.11 -3.73,-2.75 -7.05,-5.12 -7.37,-5.27 -0.32,-0.15 -0.56,6.6 -0.53,15 0.04,9.56 -0.45,17.33 -1.28,20.77 -0.74,3.02 -2.89,8.68 -4.77,12.56 -1.88,3.88 -6.09,10.4 -9.35,14.49 -3.25,4.09 -9.82,10.68 -14.58,14.64 -4.77,3.96 -12.16,9.02 -16.43,11.24 -4.27,2.22 -10.85,4.76 -14.62,5.63 -4.25,0.99 -8.59,1.35 -11.38,0.97 -2.48,-0.35 -7.36,-1.56 -10.84,-2.69 -3.48,-1.13 -9.71,-4.32 -13.86,-7.1 -4.15,-2.77 -10.58,-8.08 -14.29,-11.79 -3.72,-3.72 -8.81,-10.06 -11.31,-14.1 -2.51,-4.04 -5.51,-10.2 -6.67,-13.68 -1.17,-3.49 -2.74,-10.69 -3.51,-16 -0.76,-5.32 -1.7,-12.57 -2.08,-16.12 -0.6,-5.58 -0.86,-6.2 -1.98,-4.68 -0.71,0.97 -2,5.67 -2.88,10.45 -0.88,4.77 -1.59,13.86 -1.57,20.18 0.01,6.32 0.67,14.58 1.46,18.33 0.8,3.76 2.52,9.18 3.83,12.04 1.31,2.85 4.02,7.48 6.03,10.28 2.02,2.8 3.66,5.82 3.66,6.72 0,0.9 -0.74,1.63 -1.65,1.63 -0.91,0 -3.4,-1.83 -5.52,-4.06 -2.12,-2.23 -5.25,-6.81 -6.95,-10.19 -1.71,-3.37 -3.69,-8.18 -4.42,-10.69 -0.73,-2.51 -1.63,-7.15 -2.01,-10.32 -0.37,-3.17 -1.1,-6.02 -1.61,-6.34 -0.51,-0.31 -1.64,0.03 -2.52,0.76 -0.87,0.74 -4.56,2.91 -8.2,4.84 -6.62,3.5 -6.62,3.5 -7.12,12.19 -0.5,8.7 -0.5,8.7 -4.67,12.26 -2.5,2.14 -4.78,5.27 -5.69,7.81 -0.84,2.33 -1.81,6.46 -2.17,9.18 -0.36,2.72 -1.51,7.12 -2.56,9.79 -1.05,2.66 -1.9,6.51 -1.89,8.56 0.01,2.04 0.92,5.51 2.02,7.71 1.1,2.2 3.14,5.8 4.53,8 2.26,3.58 2.47,4.69 1.92,10.5 -0.33,3.57 -0.85,9.1 -1.17,12.28 -0.4,4.15 -0.09,7.03 1.11,10.18 0.94,2.46 3.62,6.17 6.1,8.46 2.43,2.24 5,4.12 5.7,4.18 0.7,0.05 2.37,0.17 3.72,0.25 2.13,0.13 2.8,1.18 5.11,7.97 1.46,4.3 3.54,9.01 4.63,10.46 1.08,1.45 3.96,3.72 6.39,5.03 4.03,2.17 5.21,2.33 13.31,1.79 8.89,-0.6 8.89,-0.6 13.23,3.4 3.93,3.63 4.83,4 9.7,4 2.95,0 7.57,-0.67 10.27,-1.49 2.7,-0.82 5.27,-1.49 5.72,-1.5 0.45,-0.01 3.15,2.15 6,4.79 2.85,2.64 6.36,5.53 7.79,6.43 1.44,0.89 4.81,2.32 7.5,3.18 3.11,0.98 6.72,1.35 9.9,1.01 z"
   id="path14"
   style="fill:none;stroke:#000000;stroke-opacity:1" />
<path
   d="m 360.46,591.61 c 2.19,-0.26 4.5,-1.2 5.14,-2.08 0.78,-1.06 1.39,-9.65 1.79,-25.32 0.34,-13.04 1.09,-39.12 1.68,-57.95 0.58,-18.84 0.78,-34.7 0.43,-35.25 -0.34,-0.56 -1.66,-1.01 -2.92,-1.01 -1.27,0 -5.55,-1.62 -9.51,-3.6 -3.96,-1.98 -7.35,-3.45 -7.54,-3.25 -0.19,0.19 -0.83,11.83 -1.43,25.85 -0.59,14.02 -1.62,40.35 -2.27,58.5 -0.65,18.15 -0.87,34.23 -0.49,35.74 0.48,1.9 2.29,3.67 5.93,5.8 4.17,2.43 6.04,2.95 9.19,2.57 z"
   id="path13"
   style="fill:none;stroke:#000000;stroke-opacity:1" />
<path
   d="m 325.5,604.98 c 1.65,0 4.03,-0.28 5.29,-0.62 1.26,-0.34 3.02,-2.02 3.91,-3.74 1.33,-2.57 1.84,-9.92 2.89,-41.62 0.71,-21.17 1.79,-51.53 2.41,-67.45 0.62,-15.92 1.39,-30.25 1.71,-31.83 0.57,-2.88 0.57,-2.88 -4.32,-2.05 -2.69,0.46 -7.48,0.72 -10.64,0.58 -5.7,-0.25 -5.75,-0.23 -5.75,2.56 0,1.56 -1.36,26.64 -3.02,55.76 -1.66,29.11 -3.3,59.02 -3.64,66.47 -0.46,9.75 -0.29,14.18 0.58,15.81 0.66,1.24 2.64,3.13 4.39,4.2 1.76,1.07 4.54,1.94 6.19,1.93 z"
   id="path12"
   style="fill:none;stroke:#000000;stroke-opacity:1" />
<path
   d="m 441.2,609 c 2.59,0 5.81,-0.5 7.16,-1.12 1.35,-0.61 3.24,-2.57 4.2,-4.36 1.65,-3.07 1.66,-4.66 0.1,-30.63 -0.91,-15.06 -2.09,-37.06 -2.62,-48.89 -0.54,-11.83 -1.49,-32.98 -2.11,-47 -0.63,-14.02 -1.36,-25.86 -1.62,-26.3 -0.27,-0.44 -2.69,1.25 -5.37,3.76 -2.69,2.51 -6.05,5.01 -7.48,5.55 -1.42,0.55 -5.04,0.99 -8.03,0.99 -5.33,0 -5.43,0.05 -5.43,2.91 0,1.6 0.66,14.09 1.47,27.75 0.81,13.66 2.17,39.46 3.03,57.34 0.86,17.88 1.96,37.14 2.45,42.81 0.51,5.8 1.48,11 2.22,11.91 0.73,0.88 2.68,2.43 4.33,3.44 1.79,1.09 4.9,1.83 7.7,1.84 z"
   id="path11"
   style="fill:none;stroke:#000000;stroke-opacity:1" />
<path
   d="m 443.78,615.59 c -3.45,0.2 -7.41,-0.01 -8.79,-0.46 -1.38,-0.46 -3.92,-1.56 -5.65,-2.45 -1.72,-0.9 -4.7,-3.46 -6.62,-5.69 -2.04,-2.38 -3.72,-5.6 -4.06,-7.78 -0.32,-2.04 -1.06,-12.71 -1.64,-23.71 -0.59,-11 -1.73,-31.25 -2.54,-45 -0.81,-13.75 -1.93,-33.55 -2.48,-44 -0.55,-10.45 -1,-19.46 -1,-20.02 0,-0.64 -3.92,-1 -10.36,-0.96 -7.8,0.05 -10.97,0.46 -12.84,1.69 -1.36,0.89 -4.29,2.11 -6.5,2.71 -4.03,1.08 -4.03,1.08 -4.16,9.83 -0.07,4.81 -0.63,30.8 -1.23,57.75 -0.95,41.92 -1.35,49.5 -2.76,52.44 -0.91,1.88 -2.92,4.36 -4.48,5.5 -2.14,1.56 -4.32,2.06 -9.01,2.04 -4.9,-0.01 -7.14,-0.57 -10.81,-2.72 -4.63,-2.72 -4.63,-2.72 -5.33,2.01 -0.38,2.6 -1.56,6.14 -2.62,7.87 -1.06,1.73 -3.56,3.92 -5.54,4.86 -2.64,1.25 -5.43,1.61 -10.34,1.33 -5.25,-0.3 -7.65,-0.98 -10.85,-3.1 -2.26,-1.5 -4.9,-4.19 -5.87,-5.98 -1.2,-2.24 -1.73,-5.42 -1.7,-10.25 0.02,-3.85 0.8,-17.8 1.72,-31 0.93,-13.2 2.34,-35.7 3.14,-50 0.8,-14.3 1.77,-33.02 2.14,-41.61 0.55,-12.77 0.42,-15.76 -0.71,-16.46 -0.77,-0.47 -4.21,-0.73 -7.66,-0.58 -3.6,0.16 -8.58,-0.39 -11.69,-1.3 -3.77,-1.09 -6.99,-3.02 -10.55,-6.31 -4.06,-3.75 -5.59,-6.1 -7.34,-11.24 -2.06,-6.03 -2.59,-6.7 -7.38,-9.28 -2.84,-1.54 -6.92,-4.79 -9.08,-7.24 -2.24,-2.55 -4.5,-6.5 -5.27,-9.22 -0.75,-2.62 -1.34,-6.56 -1.33,-8.76 0.01,-2.2 0.39,-7.67 0.85,-12.15 0.75,-7.34 0.63,-8.44 -1.17,-11 -1.11,-1.57 -2.92,-4.66 -4.04,-6.87 -1.12,-2.22 -2.34,-6.04 -2.71,-8.5 -0.51,-3.47 -0.1,-6.06 1.83,-11.48 1.38,-3.85 2.82,-9.7 3.2,-13 0.39,-3.3 1.38,-7.35 2.21,-9 0.83,-1.65 3.47,-5.12 5.87,-7.71 3.74,-4.03 4.37,-5.32 4.38,-9 0.01,-2.36 0.27,-5.25 0.59,-6.42 0.55,-2.06 0.2,-2.15 -9.76,-2.6 -6.2,-0.27 -12.31,-1.16 -15.26,-2.21 -2.7,-0.96 -6.56,-2.84 -8.57,-4.17 -2.01,-1.33 -4.41,-4 -5.33,-5.94 -0.92,-1.93 -1.68,-5.68 -1.68,-8.31 0,-3.69 0.72,-5.88 3.09,-9.47 1.7,-2.57 7.01,-7.93 11.79,-11.92 4.78,-3.99 12.95,-10.5 18.15,-14.48 5.21,-3.97 12.36,-9.37 15.89,-12 5.93,-4.41 6.54,-5.23 8.06,-10.77 0.9,-3.3 2.23,-7.12 2.95,-8.5 0.73,-1.38 2.45,-4.01 3.83,-5.86 1.38,-1.84 4.81,-4.43 7.62,-5.74 2.82,-1.31 6.37,-2.38 7.91,-2.39 1.62,-0.01 3.61,-0.95 4.76,-2.26 1.1,-1.24 3.82,-4.37 6.05,-6.95 2.23,-2.59 6.09,-5.68 8.58,-6.89 3.88,-1.87 5.66,-2.11 12.74,-1.67 7.41,0.47 8.63,0.28 12.16,-1.86 2.95,-1.78 5.38,-2.37 9.82,-2.37 4.33,-0.01 7.33,-0.71 11.24,-2.62 4.54,-2.22 6.36,-2.56 12.1,-2.23 5.68,0.33 7.72,0.99 12.78,4.12 5.46,3.37 6.68,3.72 13.05,3.72 5.59,0 8.12,0.54 12.31,2.63 2.91,1.45 8.36,5.72 12.11,9.5 3.82,3.84 7.7,6.87 8.79,6.87 1.08,0 6.27,1.09 11.54,2.43 5.27,1.34 14.48,4.5 20.46,7.02 5.99,2.53 14.9,6.9 19.8,9.71 4.91,2.81 11.51,7.1 14.68,9.54 3.16,2.44 6.43,5.73 7.25,7.31 0.82,1.59 1.49,4.38 1.49,6.21 0,1.82 -0.83,4.88 -1.84,6.8 -1.09,2.05 -3.96,4.76 -7.01,6.61 -2.84,1.72 -8.06,3.86 -11.61,4.75 -3.55,0.89 -7.82,1.62 -9.5,1.62 -1.67,0 -3.04,0.48 -3.04,1.06 0,0.58 4.45,5.47 9.88,10.87 8.02,7.96 10.28,10.89 12,15.47 1.16,3.1 2.4,8.17 2.77,11.26 0.56,4.78 1.33,6.37 5.13,10.65 2.45,2.77 5.09,6.52 5.84,8.33 0.76,1.81 1.38,5.64 1.38,8.51 0,2.87 -0.73,7.84 -1.63,11.03 -1.61,5.74 -1.6,5.89 0.87,11.58 1.37,3.17 2.83,7.26 3.23,9.09 0.4,1.84 0.44,5.27 0.09,7.63 -0.36,2.36 -2.4,7.2 -4.55,10.76 -3.83,6.36 -3.9,6.61 -3.77,15.86 0.11,7.75 -0.26,10.28 -2.1,14.4 -1.23,2.75 -4.13,6.96 -6.44,9.35 -2.31,2.4 -6,5.51 -8.2,6.93 -2.2,1.41 -5.8,3.1 -8,3.75 -3.52,1.03 -4.42,1.97 -7.5,7.84 -2.35,4.47 -4.9,7.67 -7.75,9.74 -2.66,1.91 -6.52,3.5 -10.25,4.21 -6,1.14 -6,1.14 -6,8.94 0,4.3 0.68,24.78 1.5,45.52 0.83,20.75 2.2,51.11 3.05,67.47 1.51,29.12 1.5,29.85 -0.42,34.18 -1.26,2.85 -3.4,5.38 -6.01,7.11 -3.06,2.02 -5.6,2.77 -10.34,3.05 z"
   id="path1"
   style="fill:none;stroke:#000000;stroke-opacity:1" />
</svg>
