<svg xmlns="http://www.w3.org/2000/svg" style="display: none;" width="800" height="600"
    viewBox="0 0 800 600">
    <rect width="800" height="600" fill="white" />
    <path
        d="M 237 103 L 237 102 L 232 102 L 228 102 L 222 103 L 215 105 L 211 109 L 208 111 L 206 114 L 205 117 L 202 122 L 198 125 L 195 130 L 193 132 L 191 136 L 190 139 L 190 144 L 190 151 L 190 159 L 195 168 L 204 182 L 214 194 L 229 209 L 245 222 L 259 230 L 273 240 L 282 242 L 286 242 L 295 242 L 309 239 L 331 226 L 340 218 L 345 210 L 347 202 L 347 193 L 347 179 L 343 169 L 338 155 L 333 146 L 328 136 L 322 128 L 317 123 L 310 115 L 309 115 L 303 115 L 297 113 L 290 112 L 282 110 L 273 108 L 263 104 L 255 99 L 251 98 L 246 96 L 243 96 L 236 96 L 232 96 L 231 96"
        fill="none" stroke="#000000" stroke-width="5" stroke-linecap="round" stroke-linejoin="round" />
    <path
        d="M 561 109 L 560 111 L 559 112 L 556 115 L 554 119 L 554 124 L 554 134 L 554 148 L 561 161 L 565 167 L 566 170 L 568 174 L 571 179 L 578 186 L 591 200 L 613 218 L 626 227 L 642 233 L 658 235 L 674 235 L 681 235 L 687 231 L 690 222 L 696 213 L 702 205 L 714 194 L 723 185 L 729 173 L 730 167 L 730 159 L 725 151 L 716 140 L 705 129 L 692 118 L 677 110 L 662 102 L 649 96 L 640 94 L 634 91 L 617 89 L 606 89 L 598 89 L 592 89 L 587 89 L 583 91 L 580 93 L 576 93 L 573 94 L 571 95 L 566 98 L 561 102 L 559 102"
        fill="none" stroke="#000000" stroke-width="5" stroke-linecap="round" stroke-linejoin="round" />
    <path
        d="M 726 362 L 726 363 L 726 364 L 726 367 L 726 371 L 726 378 L 726 382 L 722 391 L 719 397 L 706 410 L 688 426 L 656 451 L 634 465 L 614 473 L 600 482 L 588 486 L 576 493 L 558 500 L 544 504 L 528 508 L 511 514 L 495 514 L 464 520 L 446 523 L 427 525 L 412 527 L 397 529 L 383 529 L 367 529 L 350 529 L 330 529 L 314 529 L 298 527 L 286 524 L 270 521 L 245 515 L 231 509 L 215 503 L 204 500 L 192 495 L 183 491 L 173 486 L 166 484 L 159 479 L 152 476 L 144 469 L 132 461 L 118 451 L 110 443 L 107 441 L 105 435 L 103 430 L 100 424 L 99 420 L 96 413 L 94 411 L 94 408 L 93 404 L 91 400 L 90 398 L 90 395"
        fill="none" stroke="#000000" stroke-width="5" stroke-linecap="round" stroke-linejoin="round" />
    <path
        d="M 441 212 L 440 212 L 439 214 L 439 218 L 439 222 L 439 228 L 439 236 L 439 247 L 439 259 L 439 275 L 432 296 L 428 315 L 420 335 L 407 366 L 402 381 L 398 398 L 393 413 L 390 423 L 388 435 L 385 445 L 383 454 L 383 461 L 381 467 L 381 471 L 381 475 L 381 477 L 381 477 L 387 472 L 394 467 L 400 461 L 408 455 L 420 447 L 439 435 L 461 423 L 498 405 L 516 393 L 528 387 L 533 382 L 534 382 L 534 381 L 535 381 L 536 380 L 536 379"
        fill="none" stroke="#000000" stroke-width="5" stroke-linecap="round" stroke-linejoin="round" />
</svg>