<svg xmlns="http://www.w3.org/2000/svg" style="display: none;" width="800" height="600" viewBox="0 0 800 600"><path d="M 223 105 L 220 105 L 216 105 L 210 111 L 202 123 L 194 140 L 188 157 L 186 170 L 189 179 L 195 188 L 202 191 L 216 194 L 232 199 L 251 203 L 274 207 L 278 207 L 279 206 L 281 202 L 281 195 L 281 182 L 281 166 L 281 152 L 276 143 L 268 134 L 264 129 L 258 123 L 249 117 L 246 116 L 244 114 L 243 114 L 242 114 L 241 114" fill="none" stroke="#000000" stroke-width="5" stroke-linecap="round" stroke-linejoin="round"/><path d="M 483 115 L 482 115 L 481 115 L 481 116 L 481 119 L 481 123 L 484 129 L 491 138 L 498 148 L 507 159 L 519 168 L 536 175 L 547 179 L 557 181 L 567 181 L 577 181 L 586 173 L 592 160 L 596 147 L 602 131 L 602 115 L 602 105 L 600 102 L 590 96 L 584 95 L 576 95 L 568 95 L 555 95 L 543 96 L 535 96 L 531 96 L 528 97 L 527 97 L 525 97 L 523 97 L 522 99 L 518 100 L 518 101" fill="none" stroke="#000000" stroke-width="5" stroke-linecap="round" stroke-linejoin="round"/><path d="M 646 401 L 645 401 L 642 401 L 632 403 L 621 410 L 596 419 L 566 429 L 537 436 L 497 441 L 451 444 L 428 442 L 408 436 L 387 429 L 370 425 L 349 421 L 323 415 L 300 412 L 273 407 L 244 402 L 219 394 L 196 387 L 185 383 L 181 381 L 184 378 L 186 377" fill="none" stroke="#000000" stroke-width="5" stroke-linecap="round" stroke-linejoin="round"/><path d="M 398 250 L 397 249 L 397 250 L 396 252 L 396 258 L 394 268 L 392 285 L 392 301 L 392 314 L 392 321 L 392 325 L 393 324 L 399 314 L 408 298 L 414 288" fill="none" stroke="#000000" stroke-width="5" stroke-linecap="round" stroke-linejoin="round"/></svg>