<svg xmlns="http://www.w3.org/2000/svg" style="display: none;" width="306" height="156" viewBox="0 0 306 156"><path d="M 37 38 L 35.5 39.5 L 35.5 40.5 L 35.5 42.5 L 35.5 45 L 35.5 46 L 35.5 47.5 L 35.5 48.5 L 35.5 50 L 35.5 50.5 L 42 52 L 50 52 L 62 54.5 L 74 56.5 L 95 59 L 118 62 L 138.5 65 L 157.5 70 L 172.5 76.5 L 182 79.5 L 190.5 84 L 196.5 86 L 198.5 88 L 198.5 89.5 L 198.5 94.5 L 198.5 100 L 198.5 105.5 L 195 116.5 L 188.5 122.5 L 185 126 L 180 131 L 174.5 133 L 168.5 135 L 160.5 135 L 154 135 L 147 135 L 140.5 135 L 134.5 133.5 L 129.5 127.5 L 125 119 L 120 111.5 L 118 100.5 L 115.5 90 L 113.5 81.5 L 113.5 80.5 L 113.5 77.5 L 113.5 76 L 115.5 73.5 L 116.5 73.5 L 119.5 73.5 L 123 75 L 126 76.5 L 133.5 80.5 L 137 83 L 141 89 L 145 97.5 L 149.5 106 L 151.5 114.5 L 151.5 122.5 L 151.5 130.5 L 151.5 133.5 L 148.5 137 L 146.5 139 L 141 139 L 135.5 139 L 130 139 L 124.5 139 L 122 137.5 L 120.5 131.5 L 118.5 123.5 L 116 116.5 L 116 109.5 L 116 104 L 116 99 L 123.5 89 L 142 81 L 167 71.5" fill="none" stroke="#000000" stroke-width="2" stroke-linecap="round" stroke-linejoin="round"/></svg>