<?xml version="1.0" standalone="no"?>
<!DOCTYPE svg PUBLIC "-//W3C//DTD SVG 20010904//EN"
 "http://www.w3.org/TR/2001/REC-SVG-20010904/DTD/svg10.dtd">
<svg version="1.0" xmlns="http://www.w3.org/2000/svg"
 width="225.000000pt" height="225.000000pt" viewBox="0 0 225.000000 225.000000"
 preserveAspectRatio="xMidYMid meet">

<g transform="translate(0.000000,225.000000) scale(0.100000,-0.100000)"
fill="#000000" stroke="none">
<path d="M1105 2165 c-5 -2 -22 -6 -37 -9 -37 -8 -98 -63 -114 -103 -32 -76
-6 -179 56 -223 28 -20 30 -26 30 -80 l0 -59 -207 -3 c-198 -3 -209 -4 -240
-26 -21 -15 -39 -40 -50 -73 l-18 -49 -63 0 -62 0 2 -232 3 -233 62 -3 62 -3
11 -39 c6 -22 25 -51 45 -69 l36 -31 129 0 130 0 0 -50 0 -50 -190 0 c-207 0
-229 -5 -269 -56 -20 -26 -21 -37 -21 -354 0 -290 2 -329 16 -334 20 -8 1398
-8 1418 0 14 5 16 44 16 334 0 317 -1 328 -21 354 -40 51 -62 56 -269 56
l-190 0 0 50 0 50 130 0 129 0 36 31 c20 18 39 47 45 69 l11 39 62 3 62 3 3
233 2 232 -62 0 -63 0 -18 49 c-11 33 -29 58 -50 73 -31 22 -42 23 -239 26
l-208 3 0 59 c0 54 2 60 30 80 60 43 87 143 59 217 -12 34 -55 80 -89 98 -27
13 -89 25 -105 20z m93 -83 c32 -21 52 -64 52 -112 0 -32 -7 -48 -34 -78 -32
-34 -38 -37 -91 -37 -53 0 -59 3 -91 37 -102 112 37 273 164 190z m-48 -342
c0 -47 -2 -50 -25 -50 -23 0 -25 3 -25 50 0 47 2 50 25 50 23 0 25 -3 25 -50z
m477 -134 l28 -24 0 -277 0 -277 -24 -19 c-22 -18 -46 -19 -506 -19 -460 0
-484 1 -506 19 l-24 19 0 277 0 277 28 24 28 24 474 0 474 0 28 -24z m-1097
-301 l0 -175 -35 0 -35 0 0 175 0 175 35 0 35 0 0 -175z m1260 0 l0 -175 -35
0 -35 0 0 175 0 175 35 0 35 0 0 -175z m-485 -425 l0 -45 -180 0 -180 0 -3 33
c-6 64 -10 63 185 60 l178 -3 0 -45z m465 -130 c19 -19 20 -33 20 -315 l0
-295 -120 0 -119 0 -3 158 -3 157 -420 0 -420 0 -3 -157 -3 -158 -119 0 -120
0 0 295 c0 282 1 296 20 315 20 20 33 20 645 20 612 0 625 0 645 -20z m-280
-480 l0 -130 -365 0 -365 0 0 130 0 130 365 0 365 0 0 -130z"/>
<path d="M763 1490 c-98 -59 -75 -208 38 -241 75 -23 157 33 166 114 9 81 -49
147 -132 147 -22 0 -54 -9 -72 -20z m126 -66 c12 -15 21 -38 21 -51 0 -32 -42
-73 -75 -73 -33 0 -75 41 -75 73 0 40 36 77 75 77 24 0 39 -7 54 -26z"/>
<path d="M1343 1490 c-98 -59 -75 -208 38 -241 75 -23 157 33 166 114 9 81
-49 147 -132 147 -22 0 -54 -9 -72 -20z m126 -66 c12 -15 21 -38 21 -51 0 -32
-42 -73 -75 -73 -33 0 -75 41 -75 73 0 40 36 77 75 77 24 0 39 -7 54 -26z"/>
<path d="M920 1125 c-10 -12 -10 -18 0 -30 10 -12 46 -15 205 -15 159 0 195 3
205 15 10 12 10 18 0 30 -10 12 -46 15 -205 15 -159 0 -195 -3 -205 -15z"/>
<path d="M554 720 c-29 -11 -54 -49 -54 -78 0 -31 52 -82 84 -82 14 0 37 11
52 24 69 59 1 171 -82 136z m49 -86 c-3 -8 -12 -14 -19 -14 -20 0 -30 30 -13
40 17 11 40 -7 32 -26z"/>
<path d="M1630 717 c-54 -28 -61 -99 -13 -137 36 -28 70 -25 104 9 35 35 37
71 7 105 -28 31 -65 40 -98 23z m60 -73 c0 -20 -30 -30 -40 -13 -11 17 7 40
26 32 8 -3 14 -12 14 -19z"/>
</g>
</svg>
